<svg height="90" viewBox="0 0 112 117" fill="none" xmlns="http://www.w3.org/2000/svg">
<path d="M41.7764 78.9216H101.847C103.132 78.9216 106.269 80.6374 107.337 81.5213C113.547 86.6549 113.543 96.097 107.337 101.231C106.269 102.114 103.132 103.83 101.847 103.83H91.9802V113.04C91.9802 113.148 91.4729 114.253 91.3461 114.454C89.7911 116.936 86.4375 116.936 84.7391 114.597C84.5989 114.406 83.9883 113.376 83.9883 113.3V103.83H48.0197V113.04C48.0197 113.148 47.5125 114.253 47.3857 114.454C45.8307 116.936 42.4771 116.936 40.7786 114.597C40.6385 114.406 40.0278 113.376 40.0278 113.3V103.83H30.1606C29.6934 103.83 27.0272 102.794 26.4566 102.489C24.8816 101.647 23.687 100.153 22.2021 99.1785L6.28835 115.619C2.65112 118.143 -1.73024 113.605 0.702365 109.817L16.5293 93.0987C12.6251 88.492 7.65314 84.4295 3.80235 79.8367C-7.22279 66.6995 8.45067 51.0596 20.6637 61.8051C25.3087 65.8918 29.1328 71.327 33.8746 75.2716L66.1458 41.8185L66.0223 41.1634L38.4795 12.4245C36.2705 7.70341 41.5428 5.66524 44.8563 4.15394C59.3419 -2.44932 75.7962 -1.05935 89.2139 7.46424C91.2494 8.75716 93.0613 10.369 95.0701 11.6966C95.544 11.6099 100.429 5.93214 101.47 5.10023C104.961 2.30641 109.429 6.25797 107.61 10.1818C106.849 11.8213 100.876 16.8509 100.753 17.5996C102.031 19.6863 103.583 21.5685 104.827 23.683C113.086 37.711 114.347 54.8171 107.934 69.937C106.432 73.4726 104.524 78.7725 99.892 76.2872L71.9087 47.5483L41.7764 78.925V78.9216ZM82.7402 13.5337C82.1696 12.8092 81.0017 12.3344 80.1608 11.9357C70.2903 7.23893 58.8013 7.37411 48.7705 11.4643L57.63 20.7158C65.672 17.3223 74.0509 14.5112 82.7402 13.5372V13.5337ZM91.7332 21.0625C84.6923 21.2496 77.548 22.5529 70.8108 24.6292C68.9221 25.2116 66.0257 26.0851 64.3239 26.9794C64.0903 27.1042 63.9201 26.9066 64.0102 27.4196L85.9871 49.8672C89.2439 40.6504 91.543 30.9483 91.7366 21.0659L91.7332 21.0625ZM100.97 65.6908C104.901 55.2573 105.044 43.3506 100.516 33.0835C100.132 32.21 99.6717 30.9968 98.9776 30.4041C98.0533 39.4337 95.3271 48.1306 92.0669 56.4878L100.973 65.6908H100.97ZM11.4906 66.5227C8.46068 66.9837 7.09254 70.6822 8.94453 73.1953L29.2796 94.3639L31.2684 95.4107L100.099 95.5251C105.198 94.9289 105.198 87.8161 100.099 87.2199L34.2683 87.1055L32.7767 86.3186L14.674 67.5002C13.7196 66.8208 12.6752 66.3355 11.4906 66.5158V66.5227Z" fill="#AF9A75"/>
</svg>
