<svg width="827" height="827" viewBox="0 0 827 827" fill="none" xmlns="http://www.w3.org/2000/svg">
<mask id="mask0_305_1002" style="mask-type:alpha" maskUnits="userSpaceOnUse" x="0" y="0" width="827" height="827">
<g clip-path="url(#clip0_305_1002)">
<path d="M402.514 0.15153V86.4731C406.151 86.3721 409.838 86.2711 413.525 86.2711C417.212 86.2711 420.899 86.3721 424.536 86.4731V0.15153C420.899 0.05051 417.212 0 413.525 0C409.838 0 406.151 0.05051 402.514 0.15153Z" fill="#DAA749"/>
<path d="M344.276 5.80862L360.439 90.5644C354.883 91.4736 349.377 92.5343 343.922 93.696L327.759 8.94024C333.264 7.77851 338.719 6.7178 344.276 5.80862Z" fill="#DAA749"/>
<path d="M487.875 6.66736L494.088 7.87959L477.925 92.6354C475.854 92.1808 473.783 91.7767 471.712 91.4231L487.875 6.66736Z" fill="#DAA749"/>
<path d="M566.419 29.1948C570.006 30.609 573.541 32.1243 577.077 33.6396L544.044 113.344C540.508 111.829 536.972 110.314 533.386 108.9L566.419 29.1948Z" fill="#DAA749"/>
<path d="M757.297 183.705L685.926 232.194V232.245C685.473 231.585 685.028 230.924 684.584 230.267C683.84 229.164 683.099 228.067 682.34 226.992L753.71 178.502C754.923 180.22 756.135 181.937 757.297 183.705Z" fill="#DAA749"/>
<path d="M652.841 76.2701C648.295 73.0375 643.648 69.9059 638.951 66.8248L590.461 138.195C595.159 141.226 599.806 144.408 604.351 147.641L652.841 76.2701Z" fill="#DAA749"/>
<path d="M293.614 108.9L260.581 29.1948C256.995 30.609 253.459 32.1243 249.923 33.6396L282.957 113.344C286.492 111.829 290.029 110.314 293.614 108.9Z" fill="#DAA749"/>
<path d="M86.4731 402.514C86.3721 406.151 86.2711 409.838 86.2711 413.525C86.2711 417.213 86.3721 420.9 86.4731 424.536H0.15153C0.05051 420.9 0 417.213 0 413.525C0 409.838 0.05051 406.151 0.15153 402.514H86.4731Z" fill="#DAA749"/>
<path d="M636.982 652.539L697.998 713.555C703.302 708.504 708.504 703.301 713.555 697.998L652.539 636.981C647.539 642.335 642.336 647.538 636.982 652.539Z" fill="#DAA749"/>
<path d="M232.187 141.063L232.195 141.074L232.245 141.024L232.187 141.063Z" fill="#DAA749"/>
<path d="M183.705 69.7037L232.187 141.063C231.547 141.502 230.906 141.935 230.268 142.366C229.166 143.11 228.067 143.851 226.992 144.61L178.503 73.2899C180.22 72.0778 181.938 70.8654 183.705 69.7037Z" fill="#DAA749"/>
<path d="M174.461 636.981L113.445 697.998C118.496 703.301 123.699 708.504 129.002 713.555L190.018 652.539C184.664 647.538 179.462 642.335 174.461 636.981Z" fill="#DAA749"/>
<path d="M740.527 402.514H826.849C826.95 406.151 827.001 409.838 827.001 413.525C827.001 417.213 826.95 420.9 826.849 424.536H740.527C740.629 420.9 740.729 417.213 740.729 413.525C740.729 409.838 740.629 406.151 740.527 402.514Z" fill="#DAA749"/>
<path d="M190.018 174.461L129.002 113.445C123.699 118.496 118.496 123.699 113.445 129.002L174.461 190.019C179.462 184.664 184.664 179.462 190.018 174.461Z" fill="#DAA749"/>
<path d="M821.191 344.276L736.435 360.439C735.526 354.883 734.465 349.378 733.304 343.923L818.059 327.759C819.221 333.265 820.282 338.72 821.191 344.276Z" fill="#DAA749"/>
<path d="M652.539 190.019L713.555 129.002C708.504 123.699 703.302 118.496 697.998 113.445L636.982 174.461C642.336 179.462 647.539 184.664 652.539 190.019Z" fill="#DAA749"/>
<path d="M797.805 260.581L718.101 293.615C716.686 290.028 715.171 286.493 713.656 282.957L793.361 249.923C794.876 253.459 796.391 256.995 797.805 260.581Z" fill="#DAA749"/>
<path d="M147.641 222.648L76.27 174.158C73.0373 178.704 69.9057 183.351 66.8246 188.049L138.195 236.538C141.226 231.841 144.408 227.194 147.641 222.648Z" fill="#DAA749"/>
<path d="M566.419 797.805L533.386 718.1C536.972 716.686 540.508 715.171 544.044 713.656L577.077 793.36C573.541 794.876 570.006 796.391 566.419 797.805Z" fill="#DAA749"/>
<path d="M594.806 685.926L594.813 685.936L594.755 685.976L594.806 685.926Z" fill="#DAA749"/>
<path d="M594.813 685.936C595.129 685.72 595.445 685.505 595.761 685.291L596.708 684.651L596.737 684.632C597.839 683.888 598.933 683.149 600.008 682.39L648.498 753.71C646.78 754.922 645.063 756.134 643.295 757.296L594.813 685.936Z" fill="#DAA749"/>
<path d="M482.725 821.191L466.561 736.436C472.117 735.526 477.623 734.466 483.078 733.304L499.241 818.06C493.736 819.221 488.281 820.282 482.725 821.191Z" fill="#DAA749"/>
<path d="M679.359 604.352L750.73 652.842C753.963 648.296 757.094 643.649 760.175 638.951L688.805 590.462C685.774 595.159 682.592 599.806 679.359 604.352Z" fill="#DAA749"/>
<path d="M819.12 494.089L734.364 477.926C734.819 475.855 735.223 473.784 735.576 471.713L820.332 487.876L819.12 494.089Z" fill="#DAA749"/>
<path d="M713.656 544.094L793.361 577.127C794.876 573.591 796.391 570.056 797.805 566.47L718.101 533.436C716.686 537.022 715.171 540.558 713.656 544.094Z" fill="#DAA749"/>
<path d="M402.514 826.848V740.527C406.151 740.628 409.838 740.729 413.525 740.729C417.212 740.729 420.899 740.628 424.536 740.527V826.848C420.899 826.95 417.212 827 413.525 827C409.838 827 406.151 826.95 402.514 826.848Z" fill="#DAA749"/>
<path d="M92.6357 349.075L7.8799 332.911L6.66766 339.124L91.4234 355.287C91.777 353.216 92.1811 351.145 92.6357 349.075Z" fill="#DAA749"/>
<path d="M5.80816 482.724L90.5639 466.561C91.4731 472.117 92.5338 477.622 93.6955 483.077L8.93977 499.241C7.77804 493.735 6.71734 488.28 5.80816 482.724Z" fill="#DAA749"/>
<path d="M108.9 533.385L29.1949 566.419C30.6092 570.005 32.1245 573.541 33.6398 577.077L113.345 544.043C111.829 540.507 110.314 536.972 108.9 533.385Z" fill="#DAA749"/>
<path d="M33.6904 249.873L113.395 282.906C111.88 286.442 110.364 289.978 108.95 293.564L29.2455 260.531C30.6598 256.944 32.1751 253.409 33.6904 249.873Z" fill="#DAA749"/>
<path d="M249.923 793.36C253.459 794.876 256.995 796.391 260.581 797.805L293.614 718.1C290.028 716.686 286.493 715.171 282.957 713.656L249.923 793.36Z" fill="#DAA749"/>
<path d="M339.124 820.333L332.911 819.12L349.074 734.365C351.145 734.819 353.216 735.223 355.287 735.577L339.124 820.333Z" fill="#DAA749"/>
<path d="M141.075 594.806L69.704 643.295C70.8658 645.063 72.078 646.78 73.2902 648.498L144.661 600.008C143.902 598.933 143.163 597.838 142.419 596.736C141.974 596.077 141.528 595.416 141.075 594.755V594.806Z" fill="#DAA749"/>
<path d="M188.049 760.175C183.351 757.094 178.704 753.963 174.158 750.73L222.648 679.359C227.194 682.592 231.841 685.774 236.538 688.805L188.049 760.175Z" fill="#DAA749"/>
<path d="M406.387 214.938L420.126 214.916L420.247 291.944L406.508 291.965L406.387 214.938Z" fill="#DAA749"/>
<path d="M465.278 270.415L477.971 239.48L489.84 244.35L477.147 275.285L465.278 270.415Z" fill="#DAA749"/>
<path d="M582.071 336.044L551.219 348.937L556.166 360.775L587.018 347.882L582.071 336.044Z" fill="#DAA749"/>
<path d="M551.698 477.189L556.571 465.32L587.503 478.019L582.631 489.888L551.698 477.189Z" fill="#DAA749"/>
<path d="M466.229 556.195L478.065 551.246L490.963 582.096L479.127 587.045L466.229 556.195Z" fill="#DAA749"/>
<path d="M347.906 239.956L336.069 244.904L348.968 275.754L360.804 270.805L347.906 239.956Z" fill="#DAA749"/>
<path d="M239.565 349.092L244.437 337.224L275.37 349.923L270.497 361.791L239.565 349.092Z" fill="#DAA749"/>
<path d="M270.788 466.213L239.936 479.106L244.883 490.943L275.735 478.05L270.788 466.213Z" fill="#DAA749"/>
<path d="M337.172 582.507L349.865 551.572L361.734 556.443L349.041 587.377L337.172 582.507Z" fill="#DAA749"/>
<path d="M504.395 494.544L494.696 504.274L549.248 558.655L558.948 548.925L504.395 494.544Z" fill="#DAA749"/>
<path d="M535.034 406.522L612.061 406.401L612.083 420.14L535.055 420.261L535.034 406.522Z" fill="#DAA749"/>
<path d="M548.923 268.075L494.523 322.609L504.25 332.312L558.65 277.778L548.923 268.075Z" fill="#DAA749"/>
<path d="M277.782 268.412L268.083 278.142L322.635 332.523L332.335 322.793L277.782 268.412Z" fill="#DAA749"/>
<path d="M214.902 406.873L291.929 406.752L291.951 420.491L214.923 420.612L214.902 406.873Z" fill="#DAA749"/>
<path d="M322.782 494.688L268.381 549.221L278.108 558.924L332.508 504.391L322.782 494.688Z" fill="#DAA749"/>
<path d="M406.739 535.069L420.477 535.047L420.598 612.075L406.86 612.097L406.739 535.069Z" fill="#DAA749"/>
</g>
</mask>
<g mask="url(#mask0_305_1002)">
<path d="M-170 -48.5H859V1336.5H-170V-48.5Z" fill="#DAA749"/>
</g>
<defs>
<clipPath id="clip0_305_1002">
<rect width="827" height="827" fill="white"/>
</clipPath>
</defs>
</svg>
