<svg height="90" viewBox="0 0 143 128" fill="none" xmlns="http://www.w3.org/2000/svg">
<g clip-path="url(#clip0_117_700)">
<path d="M0 97.188C5.73758 90.3685 12.7682 84.4754 20.8456 80.5606C21.6461 80.1739 25.5728 78.8773 25.6792 78.4154C20.9631 68.538 19.1075 57.2722 20.1123 46.3681C31.0753 45.3665 42.4105 47.2307 52.3603 51.9162C56.5249 41.6938 62.7831 32.0556 71.6133 25.2861C79.8195 32.4702 86.769 41.5101 90.2311 51.9245C100.377 47.3642 111.774 45.3025 122.913 46.3681C123.336 57.3279 122.205 68.6271 117.052 78.446C127.147 82.4499 136.56 88.7909 143.006 97.5665C132.734 109.739 117.173 120.026 100.461 117.981C94.9359 117.305 89.6825 115.304 84.7762 112.775C81.0034 118.409 76.6204 123.654 71.3755 128C66.2172 123.632 61.8903 118.437 58.1147 112.861C57.8292 112.722 54.5769 114.539 53.908 114.814C39.1275 120.885 25.9282 118.534 13.0453 109.634C8.06619 106.195 4.08068 102.155 0.00559764 97.7445V97.188H0ZM71.3699 36.9331C65.7638 43.2602 60.6308 51.1371 59.3014 59.64C57.4205 71.6432 63.6899 82.6641 71.3699 91.3507C76.251 86.0391 80.8187 79.1333 82.7554 72.1273C86.4135 58.886 80.2813 46.4432 71.3699 36.9303V36.9331ZM53.9108 79.9708C51.1932 73.7522 50.3255 67.2915 50.4235 60.5304C43.8883 56.7074 36.0656 54.935 28.4892 54.7013C28.7495 62.1998 30.4567 70.0405 34.3583 76.5012C41.1594 76.4177 47.6527 77.2691 53.908 79.9735L53.9108 79.9708ZM114.528 54.7013C108.95 54.8321 102.98 55.9144 97.7711 57.8983C96.993 58.196 92.778 60.0268 92.4561 60.3885C91.7257 61.2037 92.4841 62.951 92.4841 64.0028C92.4869 66.276 91.9999 69.7122 91.5381 71.9742C90.9756 74.7177 89.7833 77.2691 89.1088 79.9708C95.2522 77.2385 101.902 76.312 108.614 76.593C112.356 69.8513 113.973 62.35 114.525 54.7013H114.528ZM35.419 85.0514C26.5076 85.8416 17.7277 91.2727 11.4612 97.3439C11.4136 97.5498 13.328 99.247 13.6834 99.5503C18.2203 103.446 24.3693 107.118 30.1685 108.71C43.2669 112.305 55.9148 105.966 65.358 97.3244C57.2694 90.3073 46.5751 84.0608 35.419 85.0514ZM102.459 85.0514C93.3965 85.7776 84.1772 91.3423 77.6644 97.3439C77.6 97.6304 79.131 98.8324 79.478 99.1246C84.4963 103.351 91.6165 107.472 98.0454 108.991C110.66 111.971 122.737 105.894 131.561 97.3272C123.8 90.1097 113.472 84.1694 102.459 85.0542V85.0514ZM65.386 108.048C64.941 108.693 70.5694 115.351 71.3699 116.345C73.5893 113.885 75.75 111.334 77.3817 108.432L71.3671 103.348L65.386 108.048Z" fill="#AF9A75"/>
<path d="M46.2677 16.6816L40.5234 22.5929L46.4697 28.3034L52.214 22.3921L46.2677 16.6816Z" fill="#AF9A75"/>
<path d="M71.3699 0L77.3705 5.96539L71.6106 11.6386L65.6631 5.92644L71.3699 0Z" fill="#AF9A75"/>
<path d="M96.5117 16.6608L102.512 22.6262L96.7524 28.2994L90.8049 22.59L96.5117 16.6608Z" fill="#AF9A75"/>
</g>
<defs>
<clipPath id="clip0_117_700">
<rect width="143" height="128" fill="white"/>
</clipPath>
</defs>
</svg>
