<svg width="203" height="205" viewBox="0 0 203 205" fill="none" xmlns="http://www.w3.org/2000/svg">
<g clip-path="url(#clip0_117_391)">
<path d="M100.237 83.6938L108.414 81.2228L102.691 75.4736L100.237 83.6938Z" fill="#F8F5EF"/>
<path d="M78.5546 79.1748H52.3679V85.7531H78.5546V79.1748Z" fill="#F8F5EF"/>
<path d="M104.736 131.785H52.3679V177.823H104.736V131.785Z" fill="#F8F5EF"/>
<path d="M78.5546 92.3262H52.3679V98.9045H78.5546V92.3262Z" fill="#F8F5EF"/>
<path d="M124.374 177.822V79.1746C120.805 78.955 118.963 83.8476 116.072 85.4235L94.7223 92.3533C88.1469 90.9311 94.3834 83.2436 94.5091 79.1746H85.097V103.22C85.097 103.703 83.3261 105.483 82.8451 105.483H52.3623V125.212H109.026C109.507 125.212 111.278 126.991 111.278 127.474V177.828H124.369L124.374 177.822Z" fill="#F8F5EF"/>
<path d="M175.103 16.9004C178.169 12.5899 175.797 6.75286 170.462 6.978C166.259 7.15372 161.859 13.9627 158.771 16.549L166.778 24.89C167.347 24.9888 174.419 17.8723 175.108 16.9004H175.103Z" fill="#F8F5EF"/>
<path d="M114.148 77.3464L152.015 40.1223C152.398 39.6445 152.059 39.4469 151.813 39.0844C151.266 38.2827 145.418 32.4018 144.642 31.8801C144.396 31.7154 144.237 31.4189 143.865 31.5232L106.556 68.9011C106.283 69.2086 106.392 69.4008 106.556 69.7138C106.802 70.1915 113.672 77.0993 114.153 77.3464H114.148Z" fill="#F8F5EF"/>
<path d="M161.985 29.7001L153.682 21.6611L148.949 26.7129L157.251 34.7519L161.985 29.7001Z" fill="#F8F5EF"/>
<path d="M176.742 131.785H130.917V177.823H176.742V131.785Z" fill="#F8F5EF"/>
<path d="M176.742 79.1748H163.652V92.326H176.742V79.1748Z" fill="#F8F5EF"/>
<path d="M129.283 72.5965H181.038C181.973 72.5965 183.678 74.9522 183.307 76.0724L183.104 182.364L181.263 184.214L48.4981 184.373C46.7545 184.099 45.7215 182.655 45.7925 180.925L46.1205 74.3482C46.667 73.2884 47.6728 72.624 48.8698 72.591L96.6846 72.6185C98.0019 66.5453 102.637 63.8876 106.365 59.4453H32.7292V175.56C32.7292 175.791 31.8001 176.982 31.494 177.197C29.3514 178.696 18.2175 177.306 14.3805 178.086C6.27474 179.733 3.76594 190.512 10.4342 195.493C11.1885 196.058 14.1728 197.547 14.9326 197.547H196.386V59.4453H142.177L129.288 72.5965H129.283Z" fill="#F8F5EF"/>
<path d="M26.1811 171.244V46.2939H14.9325C11.7459 46.2939 6.54248 51.5215 6.54248 54.7228V174.127C8.39539 173.567 11.8552 171.249 13.7027 171.249H26.1811V171.244Z" fill="#F8F5EF"/>
<path d="M130.917 79.1748V125.212H176.742V98.9043H159.356C158.875 98.9043 157.104 97.1252 157.104 96.642V79.1748H130.917Z" fill="#F8F5EF"/>
<path d="M200.677 52.8667H148.921L180.027 21.4301C190.297 8.94335 174.747 -6.65688 162.422 3.33144L113.126 52.8667H32.7292V41.9723C32.7292 40.8851 30.7342 39.8253 29.6684 39.7045C25.2247 39.1828 13.6481 39.3256 9.7018 41.0388C4.62954 43.2463 0.863597 48.4848 0.0382606 53.9374L0 189.529C0.994777 197.162 6.92517 203.125 14.5226 204.119L199.469 204.141C200.841 204.201 201.994 203.581 202.617 202.373L202.945 56.3371C203.317 55.2169 201.612 52.8612 200.677 52.8612V52.8667ZM170.462 6.97753C175.802 6.75239 178.174 12.5839 175.103 16.9C174.414 17.8719 167.341 24.9883 166.773 24.8895L158.765 16.5485C161.853 13.9677 166.253 7.15874 170.457 6.97753H170.462ZM153.682 21.6607L161.985 29.7052L157.251 34.757L148.949 26.7126L153.682 21.6607ZM106.55 68.9007L143.86 31.5228C144.232 31.4184 144.39 31.715 144.636 31.8797C145.412 32.4013 151.261 38.2823 151.807 39.084C152.053 39.4464 152.392 39.6386 152.009 40.1218L114.142 77.346C113.661 77.0989 106.791 70.1966 106.545 69.7134C106.381 69.3949 106.272 69.2082 106.545 68.9007H106.55ZM109.032 125.206H52.3679V105.477H82.8507C83.3317 105.477 85.1026 103.698 85.1026 103.215V79.1691H94.5147C94.389 83.238 88.1525 90.9255 94.7279 92.3477L116.077 85.4179C118.969 83.842 120.811 78.9439 124.38 79.1691V177.817H111.289V127.463C111.289 126.98 109.518 125.201 109.037 125.201L109.032 125.206ZM104.736 131.785V177.822H52.3679V131.785H104.736ZM78.5491 92.3258V98.9041H52.3624V92.3258H78.5491ZM52.3679 85.7529V79.1746H78.5546V85.7529H52.3679ZM100.237 83.6937L102.697 75.4736L108.42 81.2227L100.237 83.6937ZM6.54257 54.7172C6.54257 51.5159 11.7405 46.2883 14.9326 46.2883H26.1812V171.244H13.7028C11.8553 171.244 8.39548 173.561 6.54257 174.121V54.7172ZM196.381 197.552H14.9271C14.1619 197.552 11.183 196.058 10.4288 195.498C3.76047 190.518 6.26928 179.739 14.3751 178.091C18.2121 177.312 29.3514 178.701 31.4885 177.202C31.7946 176.988 32.7238 175.796 32.7238 175.565V59.445H106.37C102.642 63.8818 98.0073 66.5395 96.6901 72.6182L48.8752 72.5907C47.6782 72.6237 46.6725 73.2881 46.1259 74.3479L45.798 180.925C45.7215 182.66 46.76 184.099 48.5036 184.373L181.268 184.214L183.11 182.363L183.312 76.0721C183.684 74.9519 181.979 72.5962 181.044 72.5962H129.288L142.177 59.445H196.386V197.552H196.381ZM159.356 98.9041H176.742V125.212H130.917V79.1746H157.104V96.6418C157.104 97.125 158.875 98.9041 159.356 98.9041ZM163.652 92.3258V79.1746H176.742V92.3258H163.652ZM176.742 131.785V177.822H130.917V131.785H176.742Z" fill="#AF9A75"/>
</g>
<defs>
<clipPath id="clip0_117_391">
<rect width="203" height="204" fill="white" transform="translate(0 0.152344)"/>
</clipPath>
</defs>
</svg>
