<svg width="203" height="204" viewBox="0 0 203 204" fill="none" xmlns="http://www.w3.org/2000/svg">
<g clip-path="url(#clip0_117_412)">
<path d="M102.763 83.5415L94.5858 81.0705L100.309 75.3213L102.763 83.5415Z" fill="#F8F5EF"/>
<path d="M124.445 79.0225H150.632V85.6008H124.445V79.0225Z" fill="#F8F5EF"/>
<path d="M98.2642 131.633H150.632V177.67H98.2642V131.633Z" fill="#F8F5EF"/>
<path d="M124.445 92.1738H150.632V98.7522H124.445V92.1738Z" fill="#F8F5EF"/>
<path d="M78.6257 177.67V79.0223C82.1949 78.8027 84.0369 83.6952 86.9283 85.2712L108.278 92.201C114.853 90.7788 108.617 83.0912 108.491 79.0223H117.903V103.068C117.903 103.551 119.674 105.33 120.155 105.33H150.638V125.06H93.9737C93.4927 125.06 91.7218 126.839 91.7218 127.322V177.675H78.6312L78.6257 177.67Z" fill="#F8F5EF"/>
<path d="M27.8974 16.7481C24.8311 12.4376 27.2033 6.60052 32.5379 6.82566C36.7411 7.00137 41.1411 13.8103 44.2292 16.3967L36.2218 24.7376C35.6534 24.8365 28.5807 17.72 27.892 16.7481H27.8974Z" fill="#F8F5EF"/>
<path d="M88.8521 77.1941L50.985 39.9699C50.6024 39.4922 50.9413 39.2945 51.1873 38.9321C51.7338 38.1304 57.5823 32.2494 58.3584 31.7278C58.6044 31.563 58.7629 31.2665 59.1346 31.3708L96.4441 68.7488C96.7174 69.0563 96.6081 69.2485 96.4441 69.5615C96.1982 70.0392 89.3277 76.947 88.8467 77.1941H88.8521Z" fill="#F8F5EF"/>
<path d="M41.0153 29.5478L49.3179 21.5088L54.0513 26.5606L45.7487 34.5996L41.0153 29.5478Z" fill="#F8F5EF"/>
<path d="M26.2577 131.633H72.083V177.67H26.2577V131.633Z" fill="#F8F5EF"/>
<path d="M26.2578 79.0225H39.3484V92.1737H26.2578V79.0225Z" fill="#F8F5EF"/>
<path d="M73.7173 72.4442H21.9616C21.0269 72.4442 19.3216 74.7998 19.6933 75.92L19.8955 182.211L21.7375 184.062L154.502 184.221C156.246 183.946 157.279 182.502 157.207 180.773L156.88 74.1958C156.333 73.136 155.327 72.4716 154.13 72.4387L106.315 72.4661C104.998 66.393 100.363 63.7353 96.6354 59.293H170.271V175.408C170.271 175.638 171.2 176.83 171.506 177.044C173.649 178.543 184.782 177.154 188.619 177.934C196.725 179.581 199.234 190.36 192.566 195.341C191.811 195.906 188.827 197.394 188.067 197.394H6.6136V59.293H60.8235L73.7118 72.4442H73.7173Z" fill="#F8F5EF"/>
<path d="M176.819 171.092V46.1416H188.068C191.254 46.1416 196.458 51.3691 196.458 54.5704V173.974C194.605 173.414 191.145 171.097 189.297 171.097H176.819V171.092Z" fill="#F8F5EF"/>
<path d="M72.083 79.0225V125.06H26.2577V98.752H43.6444C44.1254 98.752 45.8963 96.9729 45.8963 96.4897V79.0225H72.083Z" fill="#F8F5EF"/>
<path d="M2.32298 52.7143H54.0787L22.9728 21.2778C12.7025 8.791 28.2527 -6.80922 40.5781 3.17909L89.8742 52.7143H170.271V41.82C170.271 40.7327 172.266 39.673 173.332 39.5522C177.775 39.0305 189.352 39.1733 193.298 40.8865C198.37 43.0939 202.136 48.3324 202.962 53.7851L203 189.377C202.005 197.01 196.075 202.973 188.477 203.967L3.53091 203.989C2.159 204.049 1.00571 203.429 0.382599 202.221L0.0546722 56.1847C-0.317001 55.0645 1.38832 52.7088 2.32298 52.7088V52.7143ZM32.5379 6.82519C27.1978 6.60005 24.8257 12.4316 27.8975 16.7476C28.5862 17.7195 35.6589 24.836 36.2274 24.7372L44.2348 16.3962C41.1466 13.8154 36.7466 7.00639 32.5434 6.82519H32.5379ZM49.318 21.5084L41.0154 29.5529L45.7488 34.6047L54.0513 26.5602L49.318 21.5084ZM96.4496 68.7484L59.14 31.3704C58.7683 31.2661 58.6098 31.5626 58.3639 31.7273C57.5877 32.249 51.7393 38.13 51.1927 38.9317C50.9468 39.2941 50.6079 39.4863 50.9905 39.9695L88.8576 77.1937C89.3386 76.9466 96.2091 70.0443 96.4551 69.561C96.619 69.2426 96.7284 69.0559 96.4551 68.7484H96.4496ZM93.9681 125.054H150.632V105.325H120.149C119.668 105.325 117.897 103.545 117.897 103.062V79.0167H108.485C108.611 83.0856 114.847 90.7732 108.272 92.1954L86.9227 85.2656C84.0313 83.6897 82.1893 78.7916 78.6201 79.0167V177.664H91.7107V127.311C91.7107 126.828 93.4817 125.049 93.9627 125.049L93.9681 125.054ZM98.2643 131.632V177.67H150.632V131.632H98.2643ZM124.451 92.1734V98.7517H150.638V92.1734H124.451ZM150.632 85.6006V79.0222H124.445V85.6006H150.632ZM102.763 83.5414L100.303 75.3212L94.5803 81.0704L102.763 83.5414ZM196.457 54.5648C196.457 51.3635 191.259 46.136 188.067 46.136H176.819V171.092H189.297C191.145 171.092 194.605 173.409 196.457 173.969V54.5648ZM6.61909 197.399H188.073C188.838 197.399 191.817 195.906 192.571 195.346C199.24 190.365 196.731 179.586 188.625 177.939C184.788 177.159 173.649 178.548 171.511 177.049C171.205 176.835 170.276 175.644 170.276 175.413V59.2927H96.63C100.358 63.7295 104.993 66.3872 106.31 72.4658L154.125 72.4384C155.322 72.4713 156.327 73.1357 156.874 74.1955L157.202 180.772C157.279 182.508 156.24 183.946 154.496 184.221L21.732 184.062L19.8901 182.211L19.6878 75.9197C19.3162 74.7996 21.0215 72.4439 21.9561 72.4439H73.7119L60.8235 59.2927H6.61363V197.399H6.61909ZM43.6445 98.7517H26.2577V125.06H72.083V79.0222H45.8964V96.4894C45.8964 96.9726 44.1255 98.7517 43.6445 98.7517ZM39.3483 92.1734V79.0222H26.2577V92.1734H39.3483ZM26.2577 131.632V177.67H72.083V131.632H26.2577Z" fill="#AF9A75"/>
</g>
<defs>
<clipPath id="clip0_117_412">
<rect width="203" height="204" fill="white" transform="matrix(-1 0 0 1 203 0)"/>
</clipPath>
</defs>
</svg>
