<svg height="90" viewBox="0 0 128 128" fill="none" xmlns="http://www.w3.org/2000/svg">
<g clip-path="url(#clip0_117_695)">
<path d="M128 60.3053V128.003H0V60.3053H5.12501C5.75624 60.3053 7.87789 59.7592 8.60931 59.5413C11.3221 58.7347 13.5089 57.099 15.6606 55.3381C17.3414 56.2724 18.7141 57.615 20.4449 58.4842C27.3685 61.9535 34.1868 60.135 39.8729 55.3932C47.2598 61.8283 56.7333 61.8433 64.0852 55.3306C69.7938 60.5132 77.4613 61.976 84.3247 58.0108C85.6598 57.2393 86.772 56.1371 88.1221 55.3932C92.7612 59.0929 97.6432 61.2121 103.71 59.8945C107.149 59.1455 109.516 57.2468 112.337 55.3406C116.708 59.416 122.081 60.7837 128 60.3078V60.3053ZM120.5 67.5494C117.582 67.0409 114.749 66.0365 112.169 64.5962C104.782 68.9346 95.5591 68.842 88.1246 64.6438C80.5824 68.9171 71.4646 68.842 63.9148 64.5987C56.6081 68.9196 47.2297 68.877 39.918 64.5962C32.4935 68.8971 23.2429 68.9071 15.8309 64.5962C13.2509 66.034 10.4178 67.0409 7.49965 67.5494V114.263L42.255 75.6728H85.745L120.5 114.263V67.5494ZM39.0012 90.5293H89.0013L82.3258 83.0297L45.8696 83.0146L45.554 83.0873L39.0012 90.5268V90.5293ZM102.25 105.519L96.015 98.3847L94.8903 98.0089L32.6312 98.029C31.5817 98.2294 26.8224 104.374 25.7503 105.519H102.25ZM115.751 120.508L109.521 113.369L108.64 113.001H19.6108L18.4811 113.369L12.2514 120.508H115.751Z" fill="#AF9A75"/>
<path d="M66.7503 0.102669C84.8832 1.86611 93.9684 23.809 82.8492 38.2973C68.4261 57.0915 38.425 45.3861 40.2535 21.7149C41.0852 10.9564 50.4434 1.15222 61.2495 0.102669C62.6523 -0.0325953 65.3475 -0.0325953 66.7503 0.102669ZM62.4494 7.66995C40.1007 9.89179 45.1631 44.3566 67.4617 39.6574C87.1151 35.5168 82.491 5.67605 62.4494 7.66995Z" fill="#AF9A75"/>
</g>
<defs>
<clipPath id="clip0_117_695">
<rect width="128" height="128" fill="white"/>
</clipPath>
</defs>
</svg>
