<svg  height="90" viewBox="0 0 78 108" fill="none" xmlns="http://www.w3.org/2000/svg">
<g clip-path="url(#clip0_117_705)">
<path d="M38.1634 108C36.8281 107.461 36.0443 106.503 35.1049 105.473C22.5438 91.6804 4.88445 65.9572 0.936687 47.7389C-5.29635 18.9894 20.6016 -6.23997 49.1649 1.37322C69.5027 6.79197 81.5254 27.2258 77.0763 47.7389C73.1259 65.9572 55.4691 91.6804 42.9054 105.473C41.966 106.503 41.1822 107.461 39.847 108H38.1607H38.1634ZM38.3323 19.507C22.7655 20.014 14.0572 37.7412 23.0347 50.5064C31.0859 61.9565 48.5025 61.3465 55.7436 49.3682C63.8344 35.9824 53.8779 19 38.3349 19.507H38.3323Z" fill="#AF9A75"/>
</g>
<defs>
<clipPath id="clip0_117_705">
<rect width="78" height="108" fill="white"/>
</clipPath>
</defs>
</svg>
