<svg height="90" viewBox="0 0 129 113" fill="none" xmlns="http://www.w3.org/2000/svg">
<g clip-path="url(#clip0_117_698)">
<path d="M4.12005 82.6555C5.61089 48.2727 23.441 16.279 57.0401 4.29236C77.7826 -3.1072 106.638 -2.0537 121.389 16.3355C133.303 31.1879 131.68 55.5625 117.014 68.0132C112.441 71.8948 105.453 73.5535 104.51 65.6867C103.199 54.7536 108.271 39.1236 96.8766 31.7303C81.7287 21.9039 73.0138 43.1839 74.5267 55.4873C77.231 77.4727 100.255 85.8756 119.655 87.4088C122.514 87.6346 127.106 87.2426 129.596 87.7725C131.702 88.2209 132.707 90.0206 132.862 92.0304C133.287 97.6396 132.572 103.835 132.789 109.504C132.36 111.489 130.627 112.665 128.673 112.915C88.1585 112.768 47.5466 113.351 7.08596 112.621C5.57622 112.157 4.74727 111.059 4.1232 109.689C4.41317 100.75 3.73552 91.5632 4.1232 82.6524L4.12005 82.6555ZM12.6679 104.434H34.7941C33.5964 101.296 32.2442 98.226 31.346 94.9745C21.4554 59.1369 47.7483 22.7285 84.9562 20.8222C91.2348 20.4993 95.8144 21.0825 101.151 24.4718C111.955 31.3321 112.995 41.7761 112.976 53.4806C112.976 55.6127 112.998 57.7447 112.989 59.8737C125.048 46.8461 123.223 26.3656 108.643 16.0094C93.7153 5.40543 71.8161 6.90729 55.6721 13.9463C30.9898 24.7007 16.8473 47.6832 13.4591 73.8043C12.1416 83.9536 12.8381 94.222 12.6679 104.437V104.434ZM124.298 104.434V96.2977L123.671 95.9214C95.2818 95.8995 63.7094 80.859 65.9725 48.2319C66.2341 44.4444 67.4255 41.287 68.5318 37.7628C68.6106 37.5151 68.9573 37.0134 68.6106 36.841C48.0761 53.5402 50.5157 90.0864 75.6046 101.22C77.9149 102.246 84.1241 104.431 86.4597 104.431H124.298V104.434ZM64.2106 104.434C61.0871 101.691 58.0581 99.0004 55.5587 95.6518C46.7965 83.916 44.3254 68.4427 47.9406 54.3115C48.6876 51.3955 49.8695 48.6677 50.8844 45.8522C38.3589 59.2278 34.4379 78.9464 40.6408 96.2318C41.6652 99.0819 43.1434 101.669 44.3475 104.431H64.2106V104.434Z" fill="#AF9A75"/>
</g>
<defs>
<clipPath id="clip0_117_698">
<rect width="129" height="113" fill="white"/>
</clipPath>
</defs>
</svg>
