<svg width="83" height="86" viewBox="0 0 83 86" fill="none" xmlns="http://www.w3.org/2000/svg">
<g clip-path="url(#clip0_117_190)">
<path d="M0 86.0001L5.72694 63.908C-7.66638 39.7932 4.71152 8.78246 30.6757 1.54069C61.4834 -7.05302 89.6611 21.7464 81.6089 53.4698C74.8259 80.2255 45.3281 93.179 21.6486 80.1103L0 86.0001ZM9.90029 75.8029L22.8265 72.4074C41.2665 84.3652 65.8801 76.3269 73.6683 55.3143C83.0609 30.0152 62.5394 3.73104 36.6057 7.64013C11.4437 11.4339 -0.934182 41.229 13.3324 62.8495L9.91045 75.8029H9.90029Z" fill="#AF9A75"/>
<path d="M9.90039 75.8028L13.3223 62.8494C-0.934089 41.2289 11.4438 11.4338 36.6058 7.64002C62.5395 3.73093 83.061 30.0151 73.6786 55.3142C65.8802 76.3268 41.2767 84.3651 22.8368 72.4073L9.91054 75.8028H9.90039ZM26.1876 23.0458C24.37 23.3602 22.258 26.4728 21.5675 28.1287C18.836 34.6369 22.2377 40.6839 25.9135 45.7877C31.5896 53.6583 39.388 60.2503 48.8111 62.6503C54.538 64.107 61.9505 61.8643 62.5395 54.9474C62.5801 54.4129 62.641 52.9876 62.377 52.6103C62.113 52.233 55.9291 49.1518 55.0153 48.7431C53.9085 48.2505 52.2026 47.1711 51.2379 48.3239C50.1717 49.5187 48.8517 51.95 47.684 52.9037C46.4249 53.9308 43.3786 52.0548 42.089 51.3212C38.6975 49.3719 35.5904 46.4165 33.3057 43.1886C32.8995 42.6122 31.2952 40.2647 31.2647 39.7407C31.1835 38.5145 34.2399 35.8735 34.6562 34.4797C34.9507 33.484 34.443 32.6875 34.118 31.7967C33.4072 29.8055 32.3715 27.1121 31.4576 25.2257C31.1429 24.5759 30.5438 23.1716 29.7721 23.0249C29.1628 22.9096 26.8172 22.9515 26.1673 23.0668L26.1876 23.0458Z" fill="white"/>
<path d="M26.1875 23.0458C26.8374 22.9305 29.183 22.8886 29.7922 23.0039C30.5639 23.1506 31.163 24.555 31.4778 25.2047C32.3815 27.0912 33.4274 29.7845 34.1382 31.7758C34.453 32.6666 34.9607 33.4631 34.6764 34.4587C34.2702 35.8525 31.2036 38.4935 31.2849 39.7197C31.3153 40.2437 32.9197 42.5913 33.3259 43.1677C35.6105 46.3956 38.7177 49.351 42.1092 51.3003C43.3988 52.0444 46.445 53.9098 47.7041 52.8828C48.8719 51.9291 50.1919 49.4977 51.2581 48.3029C52.2227 47.1501 53.9286 48.2296 55.0354 48.7222C55.9595 49.1309 62.1332 52.212 62.3972 52.5893C62.6612 52.9666 62.6003 54.3919 62.5597 54.9264C61.9809 61.8433 54.5582 64.0756 48.8312 62.6293C39.4082 60.2398 31.5997 53.6478 25.9336 45.7668C22.2578 40.6629 18.846 34.6159 21.5877 28.1077C22.2781 26.4519 24.3902 23.3393 26.2078 23.0249L26.1875 23.0458Z" fill="#AF9A75"/>
</g>
<defs>
<clipPath id="clip0_117_190">
<rect width="83" height="86" fill="white"/>
</clipPath>
</defs>
</svg>
