<?xml version="1.0" encoding="UTF-8"?>
<svg width="210px" id="Camada_2" xmlns="http://www.w3.org/2000/svg" viewBox="0 0 431.64 63.36">
    <defs>
        <style>
            .cls-1-by-gessele-white {
            fill: #fff;
            }
        </style>
    </defs>
    <g id="Camada_1-2" data-name="Camada_1">
        <path class="cls-1-by-gessele-white" d="M164.07,51.76c-.78,0-.93.85-1.04,1.47-.6,3.51-3.66,4.35-4.58,4.52-4.62.87-19.24.64-21.61.59v-26.32c0-.18.05-.23.23-.23,1.19,0,15.56.16,17.73.4,2.99.3,3.7,1.6,3.97,2.55h0c.27.87.51,1.14.99,1.13.02,0,.05,0,.06,0,.1,0,.25-.02.4-.16.35-.33.51-1.19.51-1.69,0-.27.28-2.2.5-3.75.28-1.95.45-3.15.45-3.39,0-.88-.51-.97-.73-.97-.44,0-.77.37-1.31.99l-.13.15c-.5.56-1.28.61-2.58.69-.29.02-.61.04-.96.07-1.76.16-17.24.16-19,.16-.07,0-.1-.01-.1-.01-.01-.02-.06-.09-.06-.46V5.58c2.34.01,16.18.08,17.39.23,3.02.34,5.04.87,5.75,2.5.14.32.21.59.27.8.11.42.23.85.79.85.44,0,.74-.38.89-1.14h0c.18-1.07.32-2.09.4-2.82.13-1.26.32-2.23.46-2.94.11-.57.18-.94.18-1.21,0-.91-.41-1.05-.66-1.05-.3,0-.54.13-.76.24-.14.07-.28.14-.41.17h-.02c-.64.17-1.93.32-3.36.39-1.2.06-31.39-.16-32.6-.16-.48,0-1.6,0-1.6.98,0,.75.85.97,1.13,1.04h.01c2.04.43,2.98,1.14,3.16,4.24.08,1.23.12,12.42.09,23.93-.04,13.93-.16,23.09-.32,24.51-.18,1.25-.51,2.31-.96,3.06-.52.86-1.17,1.29-1.94,1.29-.63,0-1.21.42-1.21.87,0,.98,1.16.98,1.6.98,2.07,0,32.66.18,38.32.22h.01c.38,0,.73-.15,1-.41.27-.27.42-.63.42-1.01v-7.83c0-.57,0-1.52-.8-1.52"/>
        <path class="cls-1-by-gessele-white" d="M319.66,51.76c-.78,0-.93.85-1.04,1.47-.6,3.51-3.66,4.35-4.58,4.52-4.62.87-19.24.64-21.61.59v-26.32c0-.18.05-.23.23-.23,1.19,0,15.56.16,17.73.4,2.99.3,3.7,1.6,3.97,2.55h0c.27.87.51,1.14.99,1.13.02,0,.05,0,.06,0,.1,0,.25-.02.4-.16.35-.33.51-1.19.51-1.69,0-.27.28-2.2.5-3.75.28-1.95.45-3.15.45-3.39,0-.88-.51-.97-.73-.97-.44,0-.77.37-1.31.99l-.13.15c-.5.56-1.28.61-2.58.69-.29.02-.61.04-.96.07-1.76.16-17.24.16-19,.16-.07,0-.1-.01-.1-.01-.01-.02-.06-.09-.06-.46V5.58c2.34.01,16.18.08,17.39.23,3.02.34,5.04.87,5.75,2.5.14.32.21.59.27.8.11.42.23.85.79.85.44,0,.74-.38.89-1.14h0c.18-1.07.32-2.09.4-2.82.13-1.26.32-2.23.46-2.94.11-.57.18-.94.18-1.21,0-.91-.41-1.05-.66-1.05-.3,0-.54.13-.76.24-.14.07-.28.14-.41.17h-.02c-.64.17-1.93.32-3.36.39-1.2.06-31.39-.16-32.6-.16-.48,0-1.6,0-1.6.98,0,.75.85.97,1.13,1.04h.01c2.04.43,2.98,1.14,3.16,4.24.08,1.23-.06,47.02-.23,48.44-.18,1.25-.51,2.31-.96,3.06-.52.86-1.17,1.29-1.94,1.29-.63,0-1.21.42-1.21.87,0,.98,1.16.98,1.6.98,2.07,0,32.66.18,38.32.22h.01c.38,0,.73-.15,1-.41.27-.27.42-.63.42-1.01v-7.83c0-.57,0-1.52-.8-1.52"/>
        <path class="cls-1-by-gessele-white" d="M375.09,51.77c-.72,0-.9.69-1.04,1.47-.6,3.51-3.66,4.35-4.58,4.52-4.62.86-19.24.64-21.6.59V2.99c0-.82-.67-1.49-1.48-1.49-5.02-.04-8.96-.07-10.2-.07-.48,0-1.61,0-1.61.98,0,.75.85.97,1.13,1.04h.01c2.04.43,2.98,1.14,3.16,4.24.08,1.23-.06,47.02-.23,48.44-.18,1.25-.51,2.3-.96,3.06-.52.86-1.17,1.29-1.94,1.29-.63,0-1.21.42-1.21.87,0,.98,1.17.98,1.6.98,2.11,0,32.43.18,38.31.22h.01c.38,0,.73-.15,1-.41.27-.27.42-.63.42-1.01v-7.83c0-.57,0-1.52-.8-1.52"/>
        <path class="cls-1-by-gessele-white" d="M106.67,31.6h-14.46c-.49,0-1.64,0-1.64.96,0,.53.75.74,1.89,1.02l.14.03c2.99.81,3.27,1.48,3.27,7.91v13.22c0,1.18-.46,1.98-1.44,2.51h0c-2.12,1.21-6.02,1.64-8.7,1.64-3.83,0-7.46-.65-10.78-1.95-3.59-1.4-6.96-3.59-10-6.52-.87-.83-8.48-8.52-8.48-21.54,0-4.46.75-8.5,2.22-12.01,1.35-3.22,3.31-5.9,5.67-7.75,6.18-4.8,11.97-5.2,16.92-5.2s9.05.72,12.56,2.07c2.89,1.12,5.15,2.67,6.2,4.25.5.79.91,1.57,1.24,2.19.6,1.15.88,1.67,1.32,1.67,1.05,0,1.05-1.16,1.05-2.01,0-5.78.3-7.23.46-8.01.06-.31.11-.54.11-.88,0-.42-.22-.94-1.28-1.05h-.02c-2.15-.09-4.95-.42-6.5-.78h0c-1.68-.35-8.19-1.37-13.21-1.37-6.27,0-14.4.58-21.73,5.09h0c-3.9,2.42-7.21,5.93-9.59,10.15-2.72,4.85-4.1,10.37-4.1,16.43,0,4.67,1.04,9.4,3,13.68,1.73,3.77,4.13,7.09,6.76,9.35,6.64,5.73,15.68,8.63,26.88,8.63,4.28,0,12.98-.76,18.45-3.63h.01c1.14-.67,1.22-.97,1.22-4.62,0,0,0-14.7.16-17.25.16-2.86.82-3.9,2.72-4.24.97-.16,1.33-.44,1.33-1.06,0-.96-1.15-.96-1.63-.96"/>
        <path class="cls-1-by-gessele-white" d="M430.84,51.76c-.78,0-.93.85-1.04,1.47-.6,3.51-3.66,4.35-4.58,4.52-4.63.87-19.24.64-21.61.59v-26.32c0-.18.05-.23.23-.23,1.19,0,15.56.16,17.73.4,2.99.3,3.7,1.6,3.97,2.55h0c.27.87.51,1.14.99,1.13.02,0,.05,0,.06,0,.1,0,.25-.02.4-.16.35-.33.51-1.19.51-1.69,0-.27.28-2.2.5-3.75.28-1.95.45-3.15.45-3.39,0-.88-.51-.97-.73-.97-.44,0-.77.37-1.3.99l-.13.15c-.5.55-1.28.61-2.58.69-.29.02-.61.04-.96.07-1.76.16-17.24.16-19,.16-.07,0-.1-.01-.1-.01-.01-.02-.06-.09-.06-.46V5.58c2.34.01,16.18.08,17.39.23,3.02.34,5.04.87,5.75,2.5.14.32.21.59.27.8.11.42.23.85.79.85.44,0,.74-.38.89-1.14h0c.18-1.07.32-2.09.4-2.82.13-1.26.32-2.23.46-2.94.11-.57.18-.94.18-1.21,0-.91-.41-1.05-.66-1.05-.3,0-.54.13-.76.24-.14.07-.28.14-.41.17h-.02c-.64.17-1.93.32-3.36.39-1.2.06-31.39-.16-32.6-.16-.48,0-1.6,0-1.6.98,0,.75.85.97,1.13,1.04h.01c2.04.43,2.98,1.14,3.16,4.24.08,1.23-.06,47.02-.23,48.44-.18,1.25-.51,2.31-.96,3.06-.52.86-1.17,1.29-1.94,1.29-.63,0-1.21.42-1.21.87,0,.98,1.16.98,1.6.98,2.07,0,32.66.18,38.32.22h.01c.38,0,.73-.15,1-.41.27-.27.42-.63.42-1.01v-7.83c0-.57,0-1.52-.8-1.52"/>
        <path class="cls-1-by-gessele-white" d="M251.76,28.44l-2.77-2.13c-4.36-3.35-6.95-5.68-8.66-7.78-1.82-2.23-2.63-4.21-2.63-6.42,0-2.61,1.18-4.82,3.41-6.39,2.04-1.43,4.8-2.22,7.77-2.22,7.73,0,9.82,1.28,11.81,4.33.22.34.36.79.49,1.19.2.63.39,1.23.92,1.23.93,0,.93-1.42.93-2.18,0-4.25.21-5.24.3-5.66.03-.12.05-.22.05-.34,0-.89-.83-.89-1.19-.89-.69,0-1.4-.09-2.92-.39-2.2-.5-7.08-.81-10.35-.81-2.7,0-5.25.34-7.57,1.01-2.3.67-4.32,1.64-6.01,2.89-1.72,1.27-3.05,2.81-3.97,4.56-.95,1.81-1.43,3.82-1.43,5.96,0,3.07.76,5.7,2.38,8.28,1.85,2.93,4.91,5.91,9.38,9.12,1.16.83,4.59,3.08,4.86,3.26,7.21,5.58,10.37,8.59,10.37,13.97,0,2.5-1.29,5.05-3.54,7.01-2.48,2.16-5.88,3.35-9.57,3.35-2.21,0-5.43-.28-8.21-1.64-2.66-1.3-4.29-3.28-4.86-5.89-.25-1.09-.39-1.69-1.18-1.69-.85,0-.96,1.02-1.02,1.57h0c-.02.38-.07.7-.12,1.07-.13.9-.3,2.12-.3,4.98,0,2.14.05,2.67,1.47,3.34,3.3,1.51,9.36,2.19,13.9,2.19,5.92,0,10.32-.99,13.45-3.04,5.45-3.63,7.39-9.37,7.39-13.54,0-3.55-.75-6.19-2.51-8.82-1.86-2.79-4.97-5.72-10.07-9.49"/>
        <path class="cls-1-by-gessele-white" d="M201.94,28.44l-2.77-2.13c-4.36-3.35-6.95-5.68-8.66-7.78-1.82-2.23-2.63-4.21-2.63-6.42,0-2.61,1.18-4.82,3.41-6.39,2.04-1.43,4.8-2.22,7.77-2.22,7.73,0,9.82,1.28,11.81,4.33.22.34.36.79.49,1.19.2.63.39,1.23.92,1.23.93,0,.93-1.42.93-2.18,0-4.25.21-5.24.3-5.66.03-.12.05-.22.05-.34,0-.89-.83-.89-1.19-.89-.69,0-1.4-.09-2.92-.39-2.2-.5-7.08-.81-10.35-.81-2.7,0-5.25.34-7.57,1.01-2.3.67-4.32,1.64-6.01,2.89-1.72,1.27-3.05,2.81-3.97,4.56-.95,1.81-1.43,3.82-1.43,5.96,0,3.07.76,5.7,2.38,8.28,1.85,2.93,4.91,5.91,9.38,9.12,1.16.83,4.59,3.08,4.86,3.26,7.21,5.58,10.37,8.59,10.37,13.97,0,2.5-1.29,5.05-3.54,7.01-2.48,2.16-5.88,3.35-9.57,3.35-2.21,0-5.43-.28-8.21-1.64-2.66-1.3-4.29-3.28-4.86-5.89-.25-1.09-.39-1.69-1.18-1.69-.85,0-.96,1.02-1.02,1.57h0c-.02.38-.07.7-.12,1.07-.13.9-.3,2.12-.3,4.98,0,2.14.05,2.67,1.47,3.34,3.3,1.51,9.36,2.19,13.9,2.19,5.92,0,10.32-.99,13.45-3.04,5.45-3.63,7.39-9.37,7.39-13.54,0-3.55-.75-6.19-2.51-8.82-1.86-2.79-4.97-5.72-10.07-9.49"/>
        <g>
            <path class="cls-1-by-gessele-white" d="M0,24.68h6.43c4.22,0,6.9,1.55,6.9,5.11,0,1.93-.94,3.2-2.35,4,2.04.69,3.56,2.04,3.56,4.47,0,3.59-2.54,5.19-6.9,5.19H0v-18.77ZM6.71,33.15c2.54,0,4.28-1.05,4.28-3.37s-2.01-3.17-4.55-3.17H2.21v6.54h4.5ZM2.21,41.51h5.44c2.54,0,4.55-.86,4.55-3.26s-2.04-3.34-4.61-3.34H2.21v6.6Z"/>
            <path class="cls-1-by-gessele-white" d="M14.82,24.68h2.57l5.52,9.61,5.49-9.61h2.57l-6.98,11.9v6.87h-2.21v-6.93l-6.96-11.84Z"/>
        </g>
    </g>
</svg>