<svg width="538" height="78" viewBox="0 0 538 78" fill="none" xmlns="http://www.w3.org/2000/svg">
<g clip-path="url(#clip0_117_707)">
<path d="M112.025 77.8306C112.252 77.8306 112.483 77.84 112.709 77.8306C112.992 77.8212 113.284 77.8495 113.567 77.8306L113.926 77.5812C119.921 77.1481 125.213 75.8771 130.854 73.8906C131.934 73.5093 133.594 72.7656 133.552 71.4522C133.703 63.4122 133.797 55.3156 133.849 47.1626C133.901 45.2702 134.226 42.3705 136.137 41.5232C137.585 41.1231 140.938 39.9463 137.528 39.1978C131.382 39.1225 125.232 39.1084 119.077 39.1507C117.52 39.3814 117.11 40.3464 118.827 40.7559C122.491 41.349 124.152 42.7189 124.213 46.5836C124.326 53.9128 124.345 61.2939 124.09 68.6137C123.996 71.2969 116.817 72.5067 114.765 72.6385C93.5028 74.0271 77.3955 60.2959 75.1551 39.2637C73.1835 20.7452 83.0554 5.63944 102.483 4.60854C112.185 4.09545 127.175 5.44174 131.132 15.779C132.109 17.7278 133.052 17.3371 133.175 15.2047C133.047 11.453 133.269 7.79068 133.835 4.22725C133.991 3.2246 133.047 3.08338 132.245 2.97982L128.382 2.7115C123.18 1.80299 117.959 1.08748 112.709 0.560263L111.676 0.169557C111.332 0.155435 110.987 0.178972 110.648 0.169557C110.19 0.155435 109.733 0.178972 109.275 0.169557C108.422 0.155435 107.558 0.160143 106.7 0.169557C106.129 0.174265 105.554 0.155435 104.983 0.169557C104.582 0.178972 104.181 0.155435 103.78 0.169557L102.828 0.550849C82.2583 1.47348 66.3349 14.3903 65.0284 35.5167C64.0521 51.2767 70.4526 64.9326 84.7534 72.2666C91.3379 75.6417 96.9507 76.4985 104.158 77.4258C104.516 77.4729 104.842 77.6565 105.148 77.8306C105.544 77.8542 105.95 77.8165 106.351 77.8306C106.577 77.84 106.808 77.8306 107.035 77.8306C107.573 77.8306 108.356 77.6894 108.752 78.0001H110.469C110.808 77.6894 111.53 77.8306 112.011 77.8306H112.025Z" fill="#AF9A75"/>
<path d="M128.387 2.71131L132.25 2.97962C133.052 3.08318 133.995 3.2244 133.84 4.22706C133.274 7.79049 133.052 11.4528 133.179 15.2045C133.057 17.3369 132.113 17.7229 131.137 15.7788C127.18 5.44625 112.186 4.09525 102.488 4.60835C83.0602 5.63925 73.1883 20.7403 75.1598 39.2635C77.4002 60.2957 93.5123 74.0316 114.77 72.6383C116.822 72.5065 124.001 71.2967 124.095 68.6135C124.345 61.2937 124.326 53.9126 124.218 46.5834C124.161 42.7187 122.496 41.3535 118.831 40.7557C117.114 40.3415 117.52 39.3765 119.081 39.1505C125.237 39.1082 131.387 39.1223 137.533 39.1976C140.948 39.9461 137.589 41.1229 136.141 41.523C134.231 42.3703 133.906 45.27 133.854 47.1624C133.807 55.3154 133.708 63.4167 133.557 71.452C133.599 72.7607 131.939 73.5091 130.859 73.8904C125.213 75.8769 119.926 77.1479 113.931 77.5809L113.572 77.8304C119.006 77.5103 125.85 76.4277 130.845 74.267C134.528 72.6759 133.778 72.5253 133.981 68.8442C134.368 61.9103 133.816 54.8965 134.151 47.9767C134.226 46.461 134.387 43.8249 135.283 42.6057C136.363 41.137 139.207 41.5748 139.302 40.1014C139.372 38.9905 137.976 38.8822 137.165 38.821C131.401 38.3974 125.128 39.1552 119.308 38.821C118.317 38.6704 116.619 39.706 117.69 40.6192C118.435 41.2547 120.982 41.4336 122.128 42.1773C123.482 43.0576 123.774 45.1147 123.869 46.6022C124.312 53.6914 123.586 61.2937 123.784 68.43C123.298 70.7177 119.204 71.6168 117.204 71.9604C104.361 74.187 90.2484 68.8442 82.6169 58.3093C70.3441 41.3583 72.5657 11.6364 95.8565 5.8652C104.431 3.74221 122.803 4.62718 128.732 12.1589C129.694 13.3828 130.769 16.3154 131.661 17.1109C132.604 17.9488 133.363 16.8191 133.462 15.8259C133.708 13.3828 133.453 10.4642 133.632 7.95995C133.712 6.84432 134.373 4.4436 134.109 3.5445C134.052 3.34679 133.797 3.11614 133.623 3.00316C132.736 2.44299 129.665 2.53714 128.42 2.37709C122.746 1.63804 117.492 0.385901 111.671 0.174072L112.704 0.564778C117.949 1.092 123.175 1.80751 128.378 2.71602L128.387 2.71131Z" fill="#AF9A75"/>
<path d="M64.6699 36.0014C63.354 61.3455 80.848 76.4794 105.162 77.8304C104.851 77.6516 104.53 77.4727 104.172 77.4256C96.9601 76.4983 91.352 75.6463 84.7676 72.2664C70.4667 64.9324 64.0662 51.2812 65.0425 35.5165C66.349 14.3948 82.2677 1.47329 102.837 0.555364L103.79 0.174072C82.3762 0.884875 65.8161 13.8347 64.6699 36.0014Z" fill="#AF9A75"/>
<path d="M537.83 64.3158L537.594 64.3393C536.976 63.5862 536.448 64.1981 536.236 64.9231C535.609 69.6398 532.331 71.1508 527.92 71.711C519.978 72.0829 511.936 72.403 503.922 72.1723C503.502 72.1205 503.29 71.9934 503.517 71.5886L503.172 71.4709V39.3859L503.517 39.1741C503.517 39.0423 503.554 38.8352 503.639 38.8352C510.766 38.7646 518.072 38.9058 525.171 39.24C528.369 39.6119 530.199 40.2003 531.316 43.4954C532.147 45.0017 532.845 41.363 532.675 40.7605L533.566 35.4318C533.854 33.337 534.066 30.4656 531.722 33.5301C530.416 34.2314 528.953 34.5798 527.345 34.5751C519.765 34.8716 512.115 34.881 504.399 34.5892L503.521 34.3774L503.177 34.2597V7.05147L503.521 6.83965L503.644 6.50072L523.369 6.66548C525.138 6.79257 527.453 7.03735 529.133 7.5834C531.387 8.31774 532.151 9.2592 532.797 11.4293C533.335 12.6014 533.911 11.594 534.085 10.742C534.632 8.08708 535.057 4.95673 535.377 2.24061C535.453 1.61454 535.085 1.20501 534.453 1.43566C532.76 2.07586 530.911 2.33946 529.057 2.34888C516.468 2.17 503.309 2.04761 490.777 2.00525C490.055 2.00525 487.98 2.02408 487.522 2.53717C486.961 3.16795 487.961 3.70458 488.489 3.86463C491.112 4.39656 492.517 5.93114 492.72 8.62842C492.73 28.6674 492.706 48.97 492.536 68.7736C492.432 70.6048 491.399 74.0176 489.395 74.5024C485.041 75.5004 488.621 76.7713 491.31 76.4465C505.578 76.1876 520.412 76.3759 534.646 76.7478C535.712 76.7243 537.033 76.6678 537.623 75.6557L538.019 75.6133V64.8383C537.764 64.7583 537.896 64.457 537.849 64.3252L537.83 64.3158Z" fill="#AF9A75"/>
<path d="M503.922 72.1724C511.936 72.4031 519.982 72.0877 527.921 71.7111C532.331 71.1509 535.604 69.6399 536.236 64.9232C536.448 64.1982 536.977 63.5863 537.594 64.3394L537.83 64.3159C537.552 63.5863 536.991 63.398 536.368 63.9723C535.75 64.5372 535.679 66.2789 535.293 67.1732C532.774 72.9538 523.204 71.0944 518.195 71.8523C513.757 71.4522 508.441 72.3607 504.111 71.8523C503.936 71.8335 503.521 71.7723 503.521 71.5887C503.29 71.9982 503.507 72.1206 503.927 72.1724H503.922Z" fill="#AF9A75"/>
<path d="M503.177 71.4662L503.521 71.5839V39.1694L503.177 39.3813V71.4662Z" fill="#AF9A75"/>
<path d="M534.632 76.7385C520.402 76.3666 505.568 76.1783 491.296 76.4372C488.607 76.762 485.027 75.491 489.381 74.4931C491.385 74.0082 492.418 70.5955 492.522 68.7643C492.692 48.9607 492.715 28.6581 492.706 8.61911C492.508 5.92182 491.098 4.39195 488.475 3.85532C487.947 3.69527 486.952 3.15864 487.508 2.52786C487.966 2.01476 490.041 1.99593 490.763 1.99593C503.295 2.043 516.454 2.16539 529.043 2.33957C530.901 2.33486 532.746 2.06654 534.439 1.42635C535.071 1.19569 535.439 1.60523 535.363 2.2313C535.043 4.94741 534.618 8.08247 534.071 10.7327C533.896 11.58 533.321 12.5921 532.783 11.42C532.142 9.24988 531.378 8.30842 529.119 7.57409C527.439 7.02804 525.123 6.78326 523.355 6.65616L503.63 6.49141L503.507 6.83033L523.331 6.99509C525.638 7.30106 530.142 7.42816 531.618 9.50879C532.071 10.149 532.434 12.0978 533.01 12.2343C534.09 12.4932 534.311 11.2128 534.486 10.4267C535.061 7.83299 535.061 4.88622 535.698 2.26425C535.67 0.0847671 533.816 1.3981 532.538 1.64288C529.331 2.26425 526.18 1.87354 522.992 1.85471C513.035 1.80293 503.073 1.83118 493.14 1.68525C491.98 1.66642 487.82 1.41693 487.23 2.30661C486.098 4.01536 489.532 4.36371 490.418 4.90975C491.824 5.7759 492.116 7.08923 492.357 8.62381C492.409 24.4686 492.381 40.3463 492.182 56.1676C492.135 60.1217 492.503 64.6313 492.197 68.496C492.083 69.9129 491.348 72.6384 490.305 73.6222C489.395 74.479 487.362 74.2342 487.074 75.1992C486.772 76.2254 487.871 76.5502 488.669 76.6208C492.843 77.0115 498.088 76.5643 502.408 76.6067C512.266 76.7102 522.218 76.8044 532.071 76.9644C533.915 76.9927 537.222 77.5717 537.995 75.5899L537.599 75.6323C537.014 76.6443 535.689 76.7055 534.623 76.7244L534.632 76.7385Z" fill="#AF9A75"/>
<path d="M503.177 34.2645L503.521 34.3822V6.84448L503.177 7.05631V34.2692V34.2645Z" fill="#AF9A75"/>
<path d="M527.345 34.5752C528.954 34.5752 530.411 34.2316 531.722 33.5302C534.066 30.461 533.854 33.3372 533.566 35.4319L532.675 40.7606C532.845 41.3631 532.142 45.0019 531.317 43.4956C530.199 40.2004 528.369 39.612 525.171 39.2401C518.072 38.9059 510.771 38.76 503.639 38.8353C503.554 38.8353 503.517 39.0424 503.517 39.1742L521.449 39.339C524.237 39.7391 528.666 39.0283 530.246 42.0269C530.906 43.2837 531.416 45.7409 532.807 42.9825C532.906 40.0216 533.882 36.8583 534.047 33.9538C534.085 33.276 534.222 31.765 533.137 31.8544C532.312 31.925 531.953 32.857 531.486 33.276C530.368 34.2928 525.369 34.3351 523.68 34.3869C516.973 34.594 510.224 34.2175 503.517 34.3822L504.394 34.594C512.115 34.8812 519.761 34.8765 527.34 34.5799L527.345 34.5752Z" fill="#AF9A75"/>
<path d="M248.756 0.169463C248.53 0.183585 248.294 0.150634 248.072 0.169463L247.483 0.569584C241.115 1.25685 234.54 3.71406 230.757 9.10392C221.508 24.8546 238.026 36.1474 249.652 43.825C257.704 48.8194 266.491 59.4674 258.123 68.1759C250.558 76.0465 230.578 75.6416 228.314 63.0826C228.055 61.901 227.036 61.5715 226.63 62.8896C226.074 64.7019 225.371 72.7984 226.428 74.1683C227.041 74.9591 230.163 75.8958 231.224 76.103C234.347 76.7055 237.111 77.0538 240.266 77.4398C240.398 77.4587 240.53 77.5152 240.658 77.5763C240.794 77.6423 240.917 77.7317 241.04 77.8258C241.436 77.8447 241.842 77.8117 242.242 77.8258C242.587 77.8352 242.931 77.8211 243.271 77.8258C244.011 77.84 244.761 77.84 245.502 77.8258C245.789 77.8211 246.072 77.8352 246.36 77.8258C246.704 77.8164 247.049 77.84 247.388 77.8258C247.615 77.8164 247.846 77.84 248.072 77.8258L248.747 77.4398C259.92 76.7479 268.613 70.5342 269.873 58.9401C270.957 48.9936 263.647 42.1115 256.378 36.5569C251.657 33.1959 247.143 29.5901 242.837 25.7395C232.979 16.7156 236.139 5.35691 249.732 3.98709C255.944 3.36101 265.029 4.42016 266.859 11.5141C267.755 13.4441 268.34 11.4858 268.307 10.3514C268.458 4.79203 268.538 2.01002 268.538 2.01002C264.736 1.36512 260.935 0.94146 256.991 0.555462C256.817 0.536632 256.647 0.480145 256.477 0.41895C256.303 0.353048 256.133 0.263609 255.963 0.169463C255.562 0.155341 255.161 0.169463 254.76 0.169463C254.303 0.169463 253.845 0.169463 253.388 0.169463C252.902 0.169463 252.18 0.310682 251.846 0H250.303L249.883 0.178877C249.511 0.202414 249.129 0.145926 248.756 0.169463Z" fill="#AF9A75"/>
<path d="M240.261 77.4444C237.106 77.0537 234.347 76.7101 231.22 76.1076C230.158 75.9004 227.031 74.9684 226.423 74.1729C225.366 72.803 226.069 64.7065 226.626 62.8942C227.031 61.5808 228.05 61.9056 228.309 63.0872C230.573 75.6463 250.558 76.0511 258.119 68.1805C266.491 59.4673 257.699 48.8193 249.648 43.8296C238.026 36.152 221.503 24.8592 230.753 9.10853C234.54 3.71867 241.11 1.26146 247.478 0.574193L248.067 0.174072C236.573 1.16261 226.14 7.90346 228.017 20.7638C230.069 34.8339 248.233 40.9817 256.902 50.4622C263.232 57.3819 262.458 66.2269 254.01 70.8495C247.218 74.5683 233.092 73.9328 229.503 65.9775C229.102 65.0925 228.658 62.5694 228.243 62.1033C227.828 61.6373 226.946 61.6279 226.536 62.1033C226.093 62.6164 225.63 67.3661 225.583 68.3358C225.517 69.6491 225.371 73.382 226.102 74.3329C226.899 75.3732 230.272 76.2441 231.592 76.5548C234.54 77.2467 238.002 77.6939 241.03 77.8352C240.908 77.741 240.78 77.6563 240.648 77.5857C240.516 77.5198 240.389 77.4633 240.257 77.4492L240.261 77.4444Z" fill="#AF9A75"/>
<path d="M256.992 0.560071C260.935 0.94607 264.736 1.36973 268.538 2.01463C268.538 2.01463 268.462 4.79664 268.307 10.356C268.335 11.4904 267.75 13.4534 266.859 11.5187C265.033 4.42947 255.949 3.37033 249.733 3.99169C236.144 5.35681 232.984 16.7202 242.837 25.7441C247.138 29.5994 251.652 33.2052 256.378 36.5615C263.642 42.1161 270.958 48.9982 269.873 58.9447C268.609 70.5388 259.921 76.7478 248.747 77.4444L248.072 77.8304C257.911 77.2656 266.463 73.0337 269.392 63.0778C275.269 43.0811 251.77 35.6012 241.294 23.607C232.861 13.9523 239.111 4.62718 250.898 4.26942C256.128 4.10938 263.236 4.62247 265.887 9.86641C266.26 10.6007 266.788 13.6134 268.142 12.3942C268.962 11.6552 268.609 7.348 268.656 6.06291C268.689 5.21089 269.316 2.27353 268.793 1.75102C268.5 1.45917 262.133 0.917826 261.175 0.536535C259.435 0.381194 257.708 0.23056 255.963 0.174072C256.128 0.268218 256.298 0.35295 256.477 0.423559C256.647 0.489462 256.817 0.545949 256.992 0.560071Z" fill="#AF9A75"/>
<path d="M310.176 0.169394C309.95 0.188223 309.714 0.150565 309.492 0.169394L308.912 0.569515C297.422 1.69456 287.362 9.04737 290.013 21.6959C291.621 29.3688 298.031 34.5374 304.125 38.8775L310.969 43.6884C319.02 48.7064 327.854 59.2178 319.685 68.0628C312.261 76.0935 292.319 75.6557 289.824 63.2896C289.706 62.7389 289.131 61.708 288.489 62.1881C287.48 62.946 287.301 69.7198 287.319 71.1508C287.362 74.2294 287.918 74.8366 290.951 75.6369C294.541 76.583 298.158 77.3268 301.884 77.4586L302.455 77.8305C302.851 77.8493 303.257 77.8164 303.658 77.8305C304.059 77.8446 304.46 77.8258 304.861 77.8305C305.545 77.8399 306.238 77.8399 306.917 77.8305C307.205 77.8258 307.488 77.8399 307.776 77.8305C308.12 77.8211 308.464 77.8446 308.804 77.8305C309.087 77.8164 309.379 77.8493 309.662 77.8305L310.332 77.4398C321.421 76.7101 330.066 70.4871 331.345 58.9918C332.448 49.0689 325.142 42.1727 317.897 36.6227C313.11 33.2241 308.544 29.5665 304.2 25.6453C294.71 16.7297 297.418 5.56867 310.827 4.02467C317.11 3.29975 326.359 4.32124 328.288 11.4716C329.09 13.3075 329.736 11.7494 329.732 10.5678C329.651 7.90349 329.812 5.21092 330.198 2.49951C330.165 2.21236 329.967 2.04761 329.694 1.95346C325.93 1.38859 322.1 0.922563 318.199 0.550686L317.383 0.174102C316.982 0.15998 316.582 0.174102 316.181 0.174102C315.666 0.174102 315.152 0.174102 314.638 0.174102C314.209 0.174102 313.549 0.305906 313.266 0.00463867H312.063L311.205 0.174102C310.865 0.192931 310.516 0.150565 310.176 0.174102V0.169394Z" fill="#AF9A75"/>
<path d="M329.689 1.94879C329.958 2.03823 330.161 2.2077 330.194 2.49484C329.802 5.20625 329.647 7.89882 329.727 10.5632C329.732 11.7447 329.081 13.3028 328.284 11.467C326.355 4.31657 317.105 3.29979 310.823 4.02001C297.408 5.564 294.706 16.7297 304.196 25.6406C308.54 29.5571 313.105 33.2194 317.893 36.6181C325.142 42.168 332.444 49.0642 331.34 58.9872C330.062 70.4824 321.416 76.7055 310.327 77.4351L309.658 77.8258C319.416 77.2374 327.916 72.9726 330.845 63.1155C336.726 43.3024 313.535 35.6954 303.05 23.946C294.371 14.2207 300.092 4.70257 312.308 4.26479C317.544 4.07649 324.515 4.61783 327.246 9.74409C327.68 10.5584 328.232 13.5805 329.552 12.3943C330.383 11.6458 330.015 7.83763 330.076 6.58549C330.142 5.23449 330.335 3.83642 330.529 2.49955C330.434 1.18621 328.331 1.51572 327.265 1.34155C323.836 0.776675 320.893 0.282409 317.374 0.169434L318.19 0.546018C322.091 0.917895 325.921 1.38392 329.684 1.94879H329.689Z" fill="#AF9A75"/>
<path d="M290.951 75.6369C287.918 74.8367 287.362 74.2294 287.319 71.1508C287.301 69.7198 287.475 62.946 288.489 62.1881C289.126 61.708 289.706 62.7389 289.824 63.2896C292.319 75.6557 312.261 76.0935 319.685 68.0629C327.859 59.2225 319.02 48.7064 310.969 43.6884L304.125 38.8776C298.031 34.5374 291.621 29.3688 290.013 21.6959C287.362 9.04741 297.423 1.69931 308.912 0.569554L309.492 0.169434C298.215 1.15326 287.73 7.7529 289.447 20.4155C291.447 35.2012 309.931 40.8029 318.676 50.8012C325.241 58.3093 323.199 67.5921 314.072 71.5321C307.139 74.526 293.791 73.448 290.711 65.342C290.31 64.2876 290.216 61.7221 288.815 61.741C287.933 61.7504 287.678 62.8801 287.551 63.5674C287.169 65.681 286.631 71.8899 287.277 73.7257C287.678 74.8602 288.687 75.1662 289.72 75.5663C293.328 76.9597 298.583 77.6469 302.46 77.8352L301.889 77.4633C298.163 77.3315 294.545 76.5878 290.956 75.6416L290.951 75.6369Z" fill="#AF9A75"/>
<path d="M15.5744 52.877C23.5785 52.1662 25.0831 41.2359 17.2394 38.9952C16.5649 38.3691 17.2912 37.9596 17.8903 37.7007C23.1446 33.0075 20.041 25.344 13.15 25.0051C8.8673 24.7368 4.57987 24.6756 0.292432 24.8215L0 24.4543V53.5314C0.311299 53.3384 0.646181 53.2113 1.00465 53.1595C5.91468 53.4184 10.7728 53.3242 15.5744 52.8723V52.877ZM3.60352 27.3682C6.47596 27.4906 9.56065 27.1234 12.3906 27.5847C14.4471 27.9236 16.7252 28.9781 17.1167 31.2564C18.4327 38.9905 8.3296 37.5265 3.60352 37.6301V27.3682ZM3.60352 40.3697H13.8104C14.2065 40.3697 15.5083 40.7981 15.9517 40.9723C21.3098 43.0953 19.3005 50.4622 13.8104 50.4622H3.60352V40.3697Z" fill="#AF9A75"/>
<path d="M12.7868 53.5457C17.4375 53.2915 22.2767 51.8322 22.6541 46.4471C22.8569 43.5803 22.1069 41.3067 19.6496 39.678C19.1449 39.3437 17.4186 38.7459 17.329 38.6518C17.046 38.3552 17.895 38.1528 18.1025 37.9692C20.6165 35.7944 21.3994 33.0454 20.4608 29.7973C18.2723 22.228 5.82506 24.977 0 24.4545L0.292432 24.8217C4.58458 24.6711 8.8673 24.7323 13.15 25.0053C20.041 25.3442 23.1446 33.0124 17.8903 37.7009C17.2912 37.9551 16.5649 38.3646 17.2394 38.9954C25.0784 41.2361 23.5738 52.1664 15.5744 52.8772C10.7728 53.3291 5.9194 53.4233 1.00465 53.1644C0.641465 53.2209 0.311299 53.3433 0 53.5363C4.20725 53.3574 8.60317 53.7716 12.7868 53.5457Z" fill="#AF9A75"/>
<path d="M109.28 0.169463V0H106.705V0.169463C107.549 0.0282438 108.431 0.0282438 109.28 0.169463Z" fill="#AF9A75"/>
<path d="M106.709 0.169391C107.563 0.159976 108.426 0.155269 109.285 0.169391C108.436 0.0281718 107.558 0.0281718 106.709 0.169391Z" fill="#AF9A75"/>
<path d="M243.266 77.8306V78H245.497V77.8306C244.77 77.9718 244.002 77.9718 243.266 77.8306Z" fill="#AF9A75"/>
<path d="M243.266 77.8306C244.002 77.9718 244.766 77.9718 245.497 77.8306C244.756 77.8447 244.006 77.8447 243.266 77.8306Z" fill="#AF9A75"/>
<path d="M304.856 77.8306V78H306.912V77.8306C306.233 77.9671 305.53 77.9671 304.856 77.8306Z" fill="#AF9A75"/>
<path d="M304.856 77.8306C305.535 77.9671 306.238 77.9671 306.912 77.8306C306.228 77.84 305.535 77.84 304.856 77.8306Z" fill="#AF9A75"/>
<path d="M106.71 0.169463C106.559 0.12239 106.563 0.0659022 106.71 0H104.993V0.169463C105.549 0.0282438 106.158 0.0329511 106.71 0.169463Z" fill="#AF9A75"/>
<path d="M104.993 0.169342C105.563 0.15522 106.139 0.174049 106.71 0.169342C106.162 0.0328303 105.549 0.028123 104.993 0.169342Z" fill="#AF9A75"/>
<path d="M106.71 0.169463V0C106.563 0.0659022 106.559 0.12239 106.71 0.169463Z" fill="#AF9A75"/>
<path d="M107.049 78H108.766C108.186 77.9294 107.615 77.8729 107.049 77.8306V78Z" fill="#AF9A75"/>
<path d="M107.049 77.8306C107.61 77.8777 108.186 77.9341 108.766 78C108.37 77.6847 107.587 77.8306 107.049 77.8306Z" fill="#AF9A75"/>
<path d="M110.483 78H112.025V77.8306C111.535 77.8776 111.021 77.9341 110.483 78Z" fill="#AF9A75"/>
<path d="M110.483 78.0001C111.025 77.9295 111.539 77.873 112.025 77.8306C111.539 77.8306 110.818 77.6941 110.483 78.0001Z" fill="#AF9A75"/>
<path d="M250.303 0H248.761V0.169463C249.261 0.112975 249.775 0.0564876 250.303 0Z" fill="#AF9A75"/>
<path d="M249.883 0.178877L250.303 0C249.775 0.0564876 249.261 0.112975 248.761 0.169463C249.133 0.141219 249.511 0.202414 249.888 0.178877H249.883Z" fill="#AF9A75"/>
<path d="M253.388 0H251.845C252.369 0.0706095 252.883 0.127097 253.388 0.169463V0Z" fill="#AF9A75"/>
<path d="M253.388 0.169463C252.883 0.12239 252.369 0.0659022 251.845 0C252.185 0.310682 252.907 0.169463 253.388 0.169463Z" fill="#AF9A75"/>
<path d="M316.181 0.169463V0H314.638V0.169463C315.143 0.0376584 315.676 0.0376584 316.181 0.169463Z" fill="#AF9A75"/>
<path d="M314.634 0.16941C315.148 0.16941 315.662 0.16941 316.176 0.16941C315.671 0.0376055 315.138 0.0376055 314.634 0.16941Z" fill="#AF9A75"/>
<path d="M314.634 0H313.261C313.728 0.0659022 314.185 0.127097 314.634 0.169463C314.483 0.12239 314.487 0.0659022 314.634 0Z" fill="#AF9A75"/>
<path d="M314.634 0.169463C314.185 0.12239 313.728 0.0659022 313.261 0C313.544 0.305975 314.204 0.169463 314.634 0.169463Z" fill="#AF9A75"/>
<path d="M314.634 0.169463V0C314.487 0.0659022 314.483 0.12239 314.634 0.169463Z" fill="#AF9A75"/>
<path d="M109.28 0.169463C109.709 0.0376584 110.223 0.0282438 110.653 0.169463V0H109.28C109.431 0.047073 109.426 0.103561 109.28 0.169463Z" fill="#AF9A75"/>
<path d="M109.28 0.169553C109.738 0.178968 110.195 0.155431 110.653 0.169553C110.223 0.0283338 109.709 0.0377485 109.28 0.169553Z" fill="#AF9A75"/>
<path d="M109.28 0V0.169463C109.426 0.103561 109.431 0.047073 109.28 0Z" fill="#AF9A75"/>
<path d="M253.388 0.169463C253.845 0.0423657 254.308 0.0423657 254.761 0.169463V0H253.388C253.539 0.047073 253.534 0.103561 253.388 0.169463Z" fill="#AF9A75"/>
<path d="M253.388 0.169542C253.845 0.169542 254.303 0.169542 254.761 0.169542C254.308 0.0424445 253.845 0.0424445 253.388 0.169542Z" fill="#AF9A75"/>
<path d="M253.388 0V0.169463C253.534 0.103561 253.539 0.047073 253.388 0Z" fill="#AF9A75"/>
<path d="M254.76 0.169463C255.138 0.0376584 255.576 0.0282438 255.963 0.169463C255.812 0.12239 255.817 0.0659022 255.963 0H254.76C254.911 0.047073 254.907 0.103561 254.76 0.169463Z" fill="#AF9A75"/>
<path d="M255.963 0.169463V0C255.817 0.0659022 255.812 0.12239 255.963 0.169463Z" fill="#AF9A75"/>
<path d="M254.76 0.169553C255.161 0.169553 255.562 0.155431 255.963 0.169553C255.581 0.0283338 255.138 0.0377485 254.76 0.169553Z" fill="#AF9A75"/>
<path d="M254.76 0V0.169463C254.907 0.103561 254.911 0.047073 254.76 0Z" fill="#AF9A75"/>
<path d="M105.162 77.8306C105.313 77.8776 105.309 77.9341 105.162 78H106.365V77.8306C106.021 77.9624 105.516 77.9765 105.162 77.8306Z" fill="#AF9A75"/>
<path d="M105.162 77.8306V78C105.309 77.9341 105.313 77.8776 105.162 77.8306Z" fill="#AF9A75"/>
<path d="M106.365 77.8304C105.969 77.8163 105.563 77.854 105.162 77.8304C105.516 77.9763 106.021 77.9622 106.365 77.8304Z" fill="#AF9A75"/>
<path d="M103.79 0.169463C104.158 0.0282438 104.62 0.0376584 104.993 0.169463C104.842 0.12239 104.846 0.0659022 104.993 0H103.79C103.941 0.047073 103.936 0.103561 103.79 0.169463Z" fill="#AF9A75"/>
<path d="M103.79 0V0.169463C103.936 0.103561 103.941 0.047073 103.79 0Z" fill="#AF9A75"/>
<path d="M103.79 0.169553C104.191 0.155431 104.592 0.178968 104.993 0.169553C104.62 0.0377485 104.158 0.0283338 103.79 0.169553Z" fill="#AF9A75"/>
<path d="M104.993 0.169463V0C104.846 0.0659022 104.842 0.12239 104.993 0.169463Z" fill="#AF9A75"/>
<path d="M241.035 77.8306C241.186 77.8776 241.181 77.9341 241.035 78H242.238V77.8306C241.884 77.9624 241.403 77.9765 241.035 77.8306Z" fill="#AF9A75"/>
<path d="M241.035 77.8306V78C241.181 77.9341 241.186 77.8776 241.035 77.8306Z" fill="#AF9A75"/>
<path d="M241.035 77.8305C241.398 77.9765 241.879 77.9623 242.238 77.8305C241.837 77.8164 241.436 77.8494 241.035 77.8305Z" fill="#AF9A75"/>
<path d="M316.181 0.169463C316.558 0.0376584 316.997 0.0282438 317.383 0.169463C317.233 0.12239 317.237 0.0659022 317.383 0H316.181C316.332 0.047073 316.327 0.103561 316.181 0.169463Z" fill="#AF9A75"/>
<path d="M317.379 0.169463V0C317.233 0.0659022 317.228 0.12239 317.379 0.169463Z" fill="#AF9A75"/>
<path d="M316.181 0.169553C316.582 0.169553 316.983 0.155431 317.383 0.169553C317.001 0.0283338 316.558 0.0377485 316.181 0.169553Z" fill="#AF9A75"/>
<path d="M316.181 0V0.169463C316.327 0.103561 316.332 0.047073 316.181 0Z" fill="#AF9A75"/>
<path d="M302.455 77.8306C302.606 77.8776 302.601 77.9341 302.455 78H303.658V77.8306C303.304 77.9624 302.818 77.9765 302.455 77.8306Z" fill="#AF9A75"/>
<path d="M302.455 77.8306V78C302.601 77.9341 302.606 77.8776 302.455 77.8306Z" fill="#AF9A75"/>
<path d="M302.455 77.8305C302.818 77.9765 303.299 77.9623 303.658 77.8305C303.257 77.8164 302.856 77.8494 302.455 77.8305Z" fill="#AF9A75"/>
<path d="M304.856 77.8306C304.488 77.9624 304.031 77.9718 303.653 77.8306C303.804 77.8776 303.8 77.9341 303.653 78H304.856C304.705 77.953 304.71 77.8965 304.856 77.8306Z" fill="#AF9A75"/>
<path d="M303.653 77.8306C304.031 77.9718 304.488 77.9624 304.856 77.8306C304.455 77.8259 304.054 77.8447 303.653 77.8306Z" fill="#AF9A75"/>
<path d="M304.856 78V77.8306C304.71 77.8965 304.705 77.953 304.856 78Z" fill="#AF9A75"/>
<path d="M303.653 77.8306V78C303.8 77.9341 303.804 77.8776 303.653 77.8306Z" fill="#AF9A75"/>
<path d="M311.204 0.169463V0H310.176V0.169463C310.469 0.0188292 310.926 0.0423657 311.204 0.169463Z" fill="#AF9A75"/>
<path d="M311.204 0.169521C310.926 0.0424238 310.464 0.0188873 310.176 0.169521C310.516 0.145984 310.865 0.18835 311.204 0.169521Z" fill="#AF9A75"/>
<path d="M110.653 0.169463C110.945 0.0423657 111.332 0.0329511 111.634 0.150634C111.539 0.108268 111.553 0.0564876 111.686 0H110.657C110.808 0.047073 110.804 0.103561 110.657 0.169463H110.653Z" fill="#AF9A75"/>
<path d="M111.634 0.150634C111.634 0.150634 111.667 0.164756 111.686 0.169463V0C111.558 0.0564876 111.539 0.108268 111.634 0.150634Z" fill="#AF9A75"/>
<path d="M110.653 0.169383C110.997 0.178798 111.341 0.155261 111.681 0.169383C111.662 0.164676 111.643 0.155261 111.629 0.150554C111.327 0.0328716 110.945 0.0422862 110.648 0.169383H110.653Z" fill="#AF9A75"/>
<path d="M111.686 0.169464C111.686 0.169464 111.653 0.155342 111.634 0.150635C111.648 0.155342 111.667 0.164757 111.686 0.169464Z" fill="#AF9A75"/>
<path d="M110.653 0V0.169463C110.799 0.103561 110.804 0.047073 110.653 0Z" fill="#AF9A75"/>
<path d="M243.266 77.8306C242.964 77.9624 242.549 77.9718 242.238 77.8306C242.389 77.8776 242.384 77.9341 242.238 78H243.266C243.115 77.953 243.12 77.8965 243.266 77.8306Z" fill="#AF9A75"/>
<path d="M242.238 77.8306C242.549 77.9718 242.964 77.9624 243.266 77.8306C242.922 77.8259 242.577 77.84 242.238 77.8306Z" fill="#AF9A75"/>
<path d="M243.266 78V77.8306C243.12 77.8965 243.115 77.953 243.266 78Z" fill="#AF9A75"/>
<path d="M242.238 77.8306V78C242.384 77.9341 242.389 77.8776 242.238 77.8306Z" fill="#AF9A75"/>
<path d="M246.355 77.8306V78H247.384V77.8306C247.077 77.9718 246.662 77.9624 246.355 77.8306Z" fill="#AF9A75"/>
<path d="M246.355 77.8304C246.667 77.9622 247.077 77.9716 247.384 77.8304C247.044 77.8445 246.695 77.821 246.355 77.8304Z" fill="#AF9A75"/>
<path d="M307.771 77.8306V78H308.799V77.8306C308.493 77.9718 308.078 77.9624 307.771 77.8306Z" fill="#AF9A75"/>
<path d="M307.771 77.8304C308.082 77.9622 308.493 77.9716 308.799 77.8304C308.46 77.8445 308.111 77.821 307.771 77.8304Z" fill="#AF9A75"/>
<path d="M113.572 77.8306C113.336 77.9765 112.94 77.9624 112.714 77.8306V78H113.572C113.421 77.953 113.426 77.8965 113.572 77.8306Z" fill="#AF9A75"/>
<path d="M113.572 78V77.8306C113.426 77.8965 113.421 77.953 113.572 78Z" fill="#AF9A75"/>
<path d="M112.714 77.8306C112.94 77.9624 113.336 77.9765 113.572 77.8306C113.289 77.8494 113.002 77.8212 112.714 77.8306Z" fill="#AF9A75"/>
<path d="M246.355 77.8306C246.119 77.9577 245.818 77.9624 245.568 77.8635C245.638 77.9059 245.615 77.953 245.497 78.0047H246.355C246.204 77.9577 246.209 77.9012 246.355 77.8353V77.8306Z" fill="#AF9A75"/>
<path d="M245.497 77.8306C245.53 77.84 245.549 77.8494 245.568 77.8635C245.818 77.9624 246.119 77.9577 246.355 77.8306C246.068 77.84 245.785 77.8259 245.497 77.8306Z" fill="#AF9A75"/>
<path d="M245.568 77.8635C245.544 77.8541 245.52 77.8447 245.497 77.8306V78C245.615 77.9482 245.638 77.9012 245.568 77.8588V77.8635Z" fill="#AF9A75"/>
<path d="M245.568 77.8635C245.568 77.8635 245.525 77.84 245.497 77.8306C245.52 77.8447 245.544 77.8541 245.568 77.8635Z" fill="#AF9A75"/>
<path d="M246.355 78V77.8306C246.209 77.8965 246.204 77.953 246.355 78Z" fill="#AF9A75"/>
<path d="M309.657 77.8306C309.45 77.9577 309.115 77.9624 308.889 77.8729C308.94 77.9106 308.912 77.9577 308.804 78.0047H309.662C309.511 77.9577 309.516 77.9012 309.662 77.8353L309.657 77.8306Z" fill="#AF9A75"/>
<path d="M309.658 78V77.8306C309.511 77.8965 309.507 77.953 309.658 78Z" fill="#AF9A75"/>
<path d="M308.804 77.8305C308.842 77.8447 308.87 77.8588 308.889 77.8729C309.12 77.9623 309.45 77.9576 309.658 77.8305C309.375 77.8494 309.082 77.8164 308.799 77.8305H308.804Z" fill="#AF9A75"/>
<path d="M308.889 77.8729C308.856 77.8588 308.827 77.8494 308.804 77.8306V78C308.912 77.953 308.94 77.9106 308.889 77.8682V77.8729Z" fill="#AF9A75"/>
<path d="M308.889 77.8729C308.889 77.8729 308.841 77.8447 308.804 77.8306C308.832 77.8447 308.86 77.8588 308.889 77.8729Z" fill="#AF9A75"/>
<path d="M311.205 0.169495C311.44 0.0471052 311.723 -0.00938246 312.063 3.21451e-05H311.205C311.356 0.0471052 311.351 0.103593 311.205 0.169495Z" fill="#AF9A75"/>
<path d="M312.063 -3.08754e-05C311.728 -0.00944548 311.44 0.0517495 311.205 0.169432L312.063 -3.08754e-05Z" fill="#AF9A75"/>
<path d="M311.205 0V0.169463C311.351 0.103561 311.356 0.047073 311.205 0Z" fill="#AF9A75"/>
<path d="M307.771 77.8306C307.535 77.9577 307.233 77.9624 306.983 77.8635C307.054 77.9059 307.03 77.953 306.912 78.0047H307.771C307.62 77.9577 307.625 77.9012 307.771 77.8353V77.8306Z" fill="#AF9A75"/>
<path d="M306.912 77.8306C306.945 77.84 306.964 77.8494 306.983 77.8635C307.233 77.9624 307.535 77.9577 307.771 77.8306C307.483 77.84 307.2 77.8259 306.912 77.8306Z" fill="#AF9A75"/>
<path d="M306.988 77.8635C306.964 77.8541 306.941 77.8447 306.917 77.8306V78C307.035 77.9482 307.059 77.9012 306.988 77.8588V77.8635Z" fill="#AF9A75"/>
<path d="M306.988 77.8635C306.988 77.8635 306.946 77.84 306.917 77.8306C306.941 77.8447 306.964 77.8541 306.988 77.8635Z" fill="#AF9A75"/>
<path d="M307.771 78V77.8306C307.625 77.8965 307.62 77.953 307.771 78Z" fill="#AF9A75"/>
<path d="M309.554 0.136512C309.719 0.0564876 309.917 0.0611949 310.087 0.127097C310.04 0.0894388 310.068 0.047073 310.176 0H309.492C309.615 0.0376584 309.634 0.0847314 309.558 0.136512H309.554Z" fill="#AF9A75"/>
<path d="M309.554 0.136512C309.629 0.0847314 309.61 0.0376584 309.488 0V0.169463C309.488 0.169463 309.53 0.145926 309.554 0.136512Z" fill="#AF9A75"/>
<path d="M310.176 0.169397C310.134 0.155275 310.106 0.141153 310.087 0.127031C309.917 0.0564213 309.719 0.0564213 309.554 0.136445C309.535 0.14586 309.516 0.159982 309.488 0.169397C309.714 0.150567 309.945 0.188226 310.172 0.169397H310.176Z" fill="#AF9A75"/>
<path d="M309.488 0.169426C309.516 0.155304 309.535 0.145889 309.554 0.136475C309.53 0.145889 309.511 0.160011 309.488 0.169426Z" fill="#AF9A75"/>
<path d="M310.087 0.127097C310.115 0.141219 310.148 0.155341 310.176 0.169463V0C310.073 0.047073 310.04 0.0894388 310.087 0.127097Z" fill="#AF9A75"/>
<path d="M310.087 0.127197C310.087 0.127197 310.134 0.155441 310.176 0.169563C310.148 0.150734 310.12 0.136612 310.087 0.127197Z" fill="#AF9A75"/>
<path d="M106.988 77.8635C106.823 77.9435 106.629 77.953 106.46 77.8776C106.497 77.9153 106.464 77.953 106.365 78H107.049C106.927 77.9577 106.908 77.9153 106.988 77.8635Z" fill="#AF9A75"/>
<path d="M106.988 77.8635C106.988 77.8635 107.026 77.84 107.049 77.8306C106.823 77.8306 106.592 77.84 106.365 77.8306C106.412 77.8447 106.445 77.8635 106.46 77.8776C106.629 77.9483 106.823 77.9435 106.988 77.8635Z" fill="#AF9A75"/>
<path d="M106.988 77.8635C106.908 77.9153 106.927 77.9624 107.049 78V77.8306C107.049 77.8306 107.007 77.8541 106.988 77.8635Z" fill="#AF9A75"/>
<path d="M107.049 77.8306C107.026 77.84 107.007 77.8541 106.988 77.8635C107.007 77.8541 107.03 77.8447 107.049 77.8306Z" fill="#AF9A75"/>
<path d="M106.46 77.8776C106.427 77.8635 106.394 77.8494 106.365 77.8306V78C106.464 77.9577 106.497 77.9153 106.46 77.8776Z" fill="#AF9A75"/>
<path d="M106.365 77.8306C106.394 77.8494 106.427 77.8682 106.46 77.8776C106.441 77.8588 106.412 77.8447 106.365 77.8306Z" fill="#AF9A75"/>
<path d="M248.157 0.117683C248.303 0.0517803 248.506 0.0564876 248.652 0.117683C248.624 0.0800241 248.657 0.0423657 248.751 0H248.067C248.176 0.0329511 248.204 0.0753168 248.157 0.117683Z" fill="#AF9A75"/>
<path d="M248.157 0.117683C248.204 0.0753168 248.176 0.0329511 248.067 0V0.169463C248.091 0.145926 248.124 0.131804 248.157 0.117683Z" fill="#AF9A75"/>
<path d="M248.756 0.169351C248.704 0.150522 248.671 0.1364 248.657 0.112863C248.511 0.0516684 248.308 0.0469611 248.162 0.112863C248.143 0.131693 248.115 0.145814 248.072 0.164644C248.299 0.145814 248.53 0.178766 248.756 0.164644V0.169351Z" fill="#AF9A75"/>
<path d="M248.157 0.117676C248.124 0.131798 248.096 0.150627 248.067 0.169456C248.11 0.150627 248.138 0.131798 248.157 0.117676Z" fill="#AF9A75"/>
<path d="M248.657 0.117683C248.695 0.131804 248.728 0.150634 248.756 0.17417V0C248.662 0.0423657 248.629 0.0800241 248.657 0.117683Z" fill="#AF9A75"/>
<path d="M248.657 0.117676C248.657 0.117676 248.704 0.155334 248.756 0.174163C248.728 0.150627 248.695 0.136505 248.657 0.117676Z" fill="#AF9A75"/>
<path d="M112.634 77.8775C112.473 77.9528 112.28 77.9481 112.124 77.8822C112.157 77.9199 112.124 77.9575 112.025 77.9999H112.709C112.596 77.9622 112.568 77.9199 112.629 77.8728L112.634 77.8775Z" fill="#AF9A75"/>
<path d="M112.025 77.8306C112.077 77.8447 112.105 77.8635 112.124 77.8823C112.28 77.9482 112.473 77.9483 112.634 77.8776C112.652 77.8635 112.681 77.8494 112.714 77.8306C112.487 77.84 112.256 77.8306 112.03 77.8306H112.025Z" fill="#AF9A75"/>
<path d="M112.124 77.8823C112.091 77.8682 112.058 77.8494 112.025 77.8306V78C112.124 77.9577 112.157 77.9153 112.124 77.8823Z" fill="#AF9A75"/>
<path d="M112.124 77.8823C112.124 77.8823 112.077 77.8447 112.025 77.8306C112.053 77.8494 112.086 77.8682 112.124 77.8823Z" fill="#AF9A75"/>
<path d="M112.634 77.8776C112.572 77.9246 112.601 77.967 112.714 78.0047V77.8352C112.69 77.854 112.662 77.8682 112.634 77.8823V77.8776Z" fill="#AF9A75"/>
<path d="M112.714 77.8306C112.681 77.8447 112.652 77.8635 112.634 77.8776C112.662 77.8635 112.69 77.8494 112.714 77.8306Z" fill="#AF9A75"/>
<path d="M247.987 77.8824C247.836 77.9483 247.638 77.9483 247.487 77.8824C247.52 77.92 247.487 77.9577 247.388 78.0001H248.072C247.964 77.9624 247.935 77.9248 247.987 77.8777V77.8824Z" fill="#AF9A75"/>
<path d="M247.987 77.8823C247.935 77.9293 247.964 77.967 248.072 78.0047V77.8352C248.049 77.854 248.016 77.8729 247.987 77.887V77.8823Z" fill="#AF9A75"/>
<path d="M247.384 77.8304C247.435 77.8445 247.464 77.8634 247.483 77.8822C247.638 77.9434 247.836 77.9481 247.983 77.8822C248.001 77.8681 248.03 77.8492 248.067 77.8304C247.841 77.8445 247.61 77.821 247.384 77.8304Z" fill="#AF9A75"/>
<path d="M247.987 77.8823C248.02 77.8682 248.049 77.8541 248.072 77.8306C248.034 77.8494 248.006 77.8635 247.987 77.8823Z" fill="#AF9A75"/>
<path d="M247.483 77.8823C247.445 77.8682 247.412 77.8494 247.384 77.8306V78C247.483 77.9577 247.516 77.9153 247.483 77.8823Z" fill="#AF9A75"/>
<path d="M247.483 77.8823C247.483 77.8823 247.435 77.8447 247.384 77.8306C247.412 77.8494 247.445 77.8682 247.483 77.8823Z" fill="#AF9A75"/>
<path d="M537.858 64.3724C537.91 64.4807 537.957 64.6313 538 64.829V64.3159C537.957 64.443 537.91 64.4571 537.858 64.3724Z" fill="#AF9A75"/>
<path d="M537.858 64.3724C537.91 64.4571 537.957 64.443 538 64.3159H537.83C537.83 64.3159 537.849 64.3536 537.858 64.3724Z" fill="#AF9A75"/>
<path d="M537.83 64.3159C537.882 64.4477 537.745 64.749 538 64.829C537.957 64.6313 537.91 64.4807 537.858 64.3724C537.849 64.3583 537.84 64.3395 537.83 64.3159Z" fill="#AF9A75"/>
<path d="M537.83 64.3159C537.83 64.3159 537.849 64.3583 537.858 64.3724C537.849 64.3536 537.84 64.3347 537.83 64.3159Z" fill="#AF9A75"/>
<path d="M399.967 63.6332C398.741 63.5767 398.628 65.888 398.317 66.7589C396.255 72.5018 387.265 71.5179 382.308 71.6639C377.582 71.8051 371.894 72.2193 367.21 71.8521C366.88 71.8239 366.588 71.7533 366.276 71.6733V39.4283C366.276 39.24 366.696 39.1835 366.866 39.1646C370.229 38.7692 374.913 39.2776 378.36 39.3529C381.78 39.4283 388.487 38.9387 391.407 40.3697C393.605 41.4477 393.043 43.1611 393.939 43.9143C394.822 44.6534 395.567 43.6789 395.737 42.8128C396.156 40.6757 397.001 35.2999 396.991 33.2758C396.986 31.9813 396.387 31.4917 395.27 32.259C394.826 32.565 394.633 33.0499 394.34 33.2993C393.171 34.3067 388.317 34.3397 386.6 34.3914C379.926 34.5986 373.219 34.2126 366.54 34.3914C366.465 34.3726 366.272 33.8689 366.262 33.7842V7.0985C366.262 6.91021 366.682 6.85372 366.852 6.83489C369.776 6.49126 373.021 6.99023 375.945 7.02318C380.106 7.06555 390.275 6.37828 393.524 8.65191C395.067 9.72988 394.675 10.549 395.383 11.7587C396.001 12.8085 397.001 12.0318 397.232 11.1327C397.378 8.45891 398.416 5.25324 398.515 2.65951C398.623 -0.0848454 396.996 1.39795 395.307 1.68981C391.958 2.26881 388.718 1.89693 385.388 1.8781C375.606 1.82161 365.809 1.84986 356.051 1.70864C354.9 1.68981 350.721 1.44503 350.145 2.33C349.009 4.07641 352.4 4.37768 353.339 4.92843C354.881 5.83694 355.013 7.55981 355.272 9.15559C355.386 22.4914 355.211 35.8601 355.098 49.1724C355.046 54.9718 355.381 61.0536 355.112 66.8059C355.013 68.9524 354.659 72.9913 352.48 74.1022C351.674 74.5118 350.023 74.2623 349.961 75.3685C349.91 76.3147 350.754 76.6018 351.579 76.6395L399.411 76.936C400.236 76.6489 400.764 76.2393 400.892 75.3355C401.213 73.0713 401.08 67.6579 400.915 65.2525C400.868 64.5747 400.831 63.6756 399.948 63.6332H399.967Z" fill="#AF9A75"/>
<path d="M469.212 64.7395C469.198 63.6898 468.038 63.2332 467.415 64.1511C467.024 64.7301 466.873 66.2364 466.547 67.0461C464.151 72.9773 454.609 71.0661 449.572 71.8475C445.082 71.4427 439.7 72.3606 435.318 71.8475C435.116 71.824 434.795 71.8052 434.729 71.5839V3.33746C434.729 2.8479 433.705 1.79347 433.102 1.8782C428.932 2.25949 424.333 1.34627 420.235 1.71344C419.437 1.78405 418.461 1.93469 418.343 2.88556C418.183 4.18478 420.206 4.29305 421.065 4.64139C422.749 5.32865 423.371 6.53372 423.555 8.31779C424.149 14.056 423.588 20.0013 423.569 25.7348C423.527 37.7149 423.649 49.6997 423.399 61.6562C423.338 64.6548 424.182 72.8125 420.701 74.1918C419.914 74.5025 418.461 74.253 418.287 75.3874C418.145 76.3054 419.178 76.5737 419.881 76.6396C423.961 77.0162 429.059 76.5831 433.276 76.6255C443.134 76.729 453.086 76.8279 462.939 76.9832C464.264 77.002 465.962 77.0962 467.241 76.9832C468.368 76.8844 469.094 76.5501 469.217 75.3639C469.566 72.05 468.929 68.1241 469.208 64.7442L469.212 64.7395Z" fill="#AF9A75"/>
<path d="M208.952 64.4053C208.693 63.5627 207.683 63.3838 207.165 64.1558C206.773 64.7348 206.622 66.2411 206.297 67.0508C203.887 73.0149 194.199 71.0661 189.152 71.8522C184.713 71.4521 179.398 72.3606 175.068 71.8522C174.893 71.8334 174.478 71.7722 174.478 71.5886V39.1741L192.585 39.3389C195.279 39.7437 199.302 39.0611 201.042 41.6831C201.424 42.2621 201.825 43.9332 202.391 44.1074C203.472 44.4369 203.811 43.0671 203.943 42.2951C204.462 39.2683 204.561 36.1191 205.16 33.097C204.49 30.0702 202.943 33.2617 201.882 33.7419C200.764 34.2456 196.114 34.3491 194.642 34.3915C187.935 34.5986 181.185 34.222 174.478 34.3868V6.84437L194.302 7.00912C196.67 7.32922 201.189 7.43278 202.689 9.59343C203.156 10.2666 203.674 13.331 204.92 11.9659C206.052 10.7279 205.948 4.19416 206.735 2.30182C206.58 0.117633 204.962 1.42156 203.684 1.67104C200.354 2.32065 196.944 1.89699 193.614 1.87816C184.176 1.82638 174.728 1.99114 165.29 1.89229C163.687 1.87346 161.998 1.59573 160.314 1.70399C159.456 1.76048 158.088 1.84521 158.083 2.99379C158.083 4.26477 160.097 4.30713 160.965 4.66489C162.658 5.36627 163.069 6.78317 163.323 8.46839C163.635 24.5768 163.578 40.7699 163.319 56.8689C163.253 60.8607 164.021 70.2753 161.611 73.2973C160.536 74.6483 159.385 74.0599 158.527 74.6672C157.281 75.5521 158.409 76.5266 159.63 76.6395C163.809 77.0255 169.045 76.583 173.37 76.6254C183.228 76.729 193.18 76.8231 203.033 76.9832C204.825 77.0114 208.731 77.6375 208.971 75.3639C209.334 71.9511 208.683 67.8934 208.957 64.41L208.952 64.4053Z" fill="#AF9A75"/>
<path d="M35.7663 39.1743L27.2763 24.4592H23.1587L33.9693 42.6812V53.5409H37.3983V42.8507L48.2088 24.4592H44.3459L35.7663 39.1743Z" fill="#AF9A75"/>
</g>
<defs>
<clipPath id="clip0_117_707">
<rect width="538" height="78" fill="white"/>
</clipPath>
</defs>
</svg>
