<svg width="28"  viewBox="0 0 35 147" fill="none" xmlns="http://www.w3.org/2000/svg">
<path d="M10.7873 15.4561C10.0874 15.4561 9.51758 15.8936 9.51758 16.4261C9.51758 16.9586 10.0874 17.3897 10.7873 17.3897H23.2307C23.9306 17.3897 24.5066 16.9523 24.5066 16.4261C24.5066 15.8999 23.9306 15.4561 23.2307 15.4561H10.7873Z" fill="#F8F5EF"/>
<path d="M15.9407 5.65499C15.408 7.39205 15.5381 10.359 16.4176 15.044H17.613C18.4925 10.359 18.6226 7.39205 18.0899 5.65499C17.9475 5.17951 17.4829 4.94495 17.0184 4.94495C16.5539 4.94495 16.0893 5.17951 15.9407 5.65499Z" fill="#F8F5EF"/>
<path d="M6.75518 7.67734C6.47026 8.00066 6.27206 8.38738 6.18535 8.83116C6.04289 9.56022 6.24729 10.3907 6.70563 11.0817C7.133 11.7284 7.75858 12.2482 8.41513 12.673C9.30704 13.2499 10.2051 13.7571 10.5644 15.0503H10.8493C10.7254 12.9773 7.87007 11.5065 7.96917 9.28761C8.01872 8.1338 8.78676 7.34768 10.1432 7.35402C10.2299 7.22723 10.3228 7.10677 10.4281 6.99266C9.91403 6.82783 9.41233 6.73907 8.93541 6.73907C8.09305 6.73907 7.3374 7.01802 6.74899 7.68368" fill="#F8F5EF"/>
<path d="M12.8994 6.02903C12.119 6.11144 11.3881 6.40941 10.8431 6.94194C9.37515 8.36836 9.78394 10.3146 10.8617 11.7157C11.3076 12.2863 11.896 12.6857 12.3544 13.2372C12.7446 13.7063 13.0233 14.2642 12.9985 15.0503H13.302C13.8347 12.8632 11.0537 10.9106 11.8527 8.59658C12.3358 7.2082 13.6675 6.48548 15.4017 7.11311C15.4451 6.9356 15.4761 6.75809 15.5132 6.58058C14.931 6.21288 14.1506 6.01001 13.364 6.01001C13.2091 6.01001 13.0543 6.01635 12.8994 6.03537" fill="#F8F5EF"/>
<path d="M23.5961 6.98637C23.7014 7.10048 23.8005 7.22093 23.8872 7.34773C25.2375 7.34773 26.0055 8.1275 26.0613 9.28132C26.1542 11.5002 23.2988 12.9773 23.1812 15.0441H23.4661C23.8253 13.7508 24.7172 13.2436 25.6153 12.6667C26.2719 12.2419 26.8974 11.7221 27.3248 11.0754C27.7894 10.3844 27.9876 9.55392 27.8513 8.82486C27.7646 8.38109 27.5602 7.99437 27.2815 7.67105C26.6931 7.00539 25.9374 6.72644 25.095 6.72644C24.6181 6.72644 24.1102 6.8152 23.6023 6.98003" fill="#F8F5EF"/>
<path d="M18.511 6.57424C18.5543 6.75175 18.5791 6.92926 18.6225 7.10677C20.3629 6.47914 21.6946 7.20186 22.1715 8.59024C22.9767 10.9042 20.1957 12.8568 20.7222 15.044H21.0319C21.0071 14.2579 21.2858 13.7 21.676 13.2309C22.1406 12.6793 22.7228 12.2799 23.1687 11.7093C24.2465 10.3146 24.6615 8.36202 23.1873 6.94194C22.6485 6.40941 21.9176 6.11778 21.1372 6.03537C20.9823 6.01635 20.8275 6.01001 20.6664 6.01001C19.8798 6.01001 19.0994 6.21288 18.5172 6.58058" fill="#F8F5EF"/>
<path d="M32.856 50.4446C32.7012 50.9391 32.9241 51.2181 32.7879 52.0169C32.664 52.7396 32.1747 53.2975 31.5987 53.849C29.8024 55.5607 26.786 56.4356 24.2528 57.6338C23.7201 57.8493 23.1812 58.1346 22.5928 58.496C22.1655 58.7623 21.7319 59.0349 21.3479 59.3645C19.0128 61.3995 19.1552 62.9971 19.1552 62.9971C19.564 62.173 20.2516 61.3108 21.0753 60.5627C22.1221 59.5991 23.4042 58.7686 24.7669 58.4643C25.7888 58.2297 26.6931 58.3755 27.1948 59.0475C27.5851 59.5737 29.0406 59.4089 28.799 58.851C29.9511 58.851 31.0164 57.3929 30.3971 56.3468C30.5271 57.5894 29.1211 57.3358 27.8266 57.19C27.2506 57.1266 26.7365 57.1139 26.241 57.152C29.3131 56.0172 32.6516 54.6732 33.7479 52.2134C34.3611 50.6285 33.8532 49.7283 33.3887 49.7219C33.1533 49.7219 32.9303 49.9502 32.8622 50.432" fill="#F8F5EF"/>
<path d="M0.641888 49.7283C0.177351 49.7283 -0.330543 50.6285 0.282646 52.2198C1.37276 54.6795 4.71743 56.0235 7.78957 57.1583C7.30026 57.1203 6.77998 57.133 6.20395 57.1964C4.91563 57.3358 3.50963 57.5894 3.63351 56.3532C3.01413 57.3992 4.07327 58.8574 5.23152 58.8574C4.98996 59.4216 6.44551 59.5801 6.83572 59.0539C7.33123 58.3819 8.23553 58.2361 9.2637 58.4706C10.6202 58.7749 11.9023 59.6054 12.9552 60.5691C13.779 61.3171 14.4665 62.1793 14.8753 63.0035C14.8753 63.0035 15.024 61.3996 12.6827 59.3709C12.2987 59.0349 11.8651 58.7686 11.4377 58.5023C10.8493 58.141 10.3105 57.8557 9.77779 57.6401C7.24451 56.4356 4.22812 55.5671 2.42571 53.8554C1.84969 53.3038 1.36037 52.7459 1.2365 52.0232C1.10023 51.2244 1.32321 50.9518 1.16836 50.451C1.10023 49.9692 0.877254 49.7409 0.641888 49.7409" fill="#F8F5EF"/>
<path d="M3.63979 25.6122C6.71193 25.6186 9.84601 25.1177 12.6828 23.8752C13.5623 23.4884 14.4666 22.9876 15.247 22.4234C15.5258 22.2268 15.8912 21.9289 16.1389 21.6943C16.4362 21.4281 16.7707 21.0667 17.0185 20.7497C18.1395 22.1698 19.7314 23.1588 21.348 23.8752C22.1903 24.2429 23.1194 24.5725 24.0051 24.8134C24.4325 24.9339 25.0271 25.0607 25.4668 25.1558C27.2259 25.5044 29.0717 25.6503 30.8679 25.6122V41.3662L30.8493 42.1016C30.8307 42.463 30.7564 43.173 30.7068 43.528L30.583 44.2254L30.4281 44.9101L30.2423 45.5821L30.0255 46.2414C29.9078 46.5647 29.6415 47.1987 29.499 47.5093L29.1955 48.1179C25.9252 54.2737 18.8023 57.0442 12.2616 54.6795C11.0352 54.2103 9.78407 53.532 8.73731 52.7205C7.88256 52.0675 7.01543 51.218 6.33411 50.3812L5.92531 49.8487L5.5413 49.2908L5.17586 48.7202L4.84759 48.1243L4.54409 47.5157C4.39544 47.1987 4.1353 46.5774 4.01142 46.2477L3.79464 45.5884L3.60882 44.9164L3.45398 44.2317L3.3301 43.5344C3.28055 43.1857 3.21242 42.463 3.18764 42.108L3.16906 41.3726V25.6186C3.231 25.6186 3.30532 25.6186 3.37346 25.6186H3.64598L3.63979 25.6122ZM17.0123 18.7591L16.9999 18.74C16.845 18.9239 15.8664 20.1728 15.7363 20.2996C15.631 20.4137 15.4081 20.6356 15.2904 20.7434C14.3861 21.5675 13.2898 22.2142 12.1811 22.7023C10.0318 23.6469 7.67817 24.1224 5.35548 24.2809C4.80423 24.3189 4.11052 24.3316 3.55927 24.3316C3.2248 24.3316 2.24618 24.2999 1.90552 24.2936V41.3852L1.93029 42.165L1.98604 42.9448C2.02939 43.3315 2.14088 44.0986 2.21521 44.479C2.29573 44.853 2.48154 45.5948 2.58684 45.9625C2.69833 46.3238 2.95227 47.0339 3.09473 47.3825C3.24338 47.7312 3.55927 48.3969 3.7327 48.7329L4.09813 49.3795L4.48834 50.0072C4.69274 50.3115 5.1325 50.9074 5.36167 51.1927L5.8386 51.7569C6.08635 52.0295 6.59425 52.5557 6.86058 52.8029L7.40564 53.2848C7.69056 53.5193 8.27278 53.9631 8.57008 54.1786L9.17707 54.578L9.80885 54.9521L10.4654 55.2944C10.8618 55.491 11.4192 55.7192 11.8156 55.884C18.4307 58.2487 25.6527 55.884 29.53 50.0072C30.0441 49.2274 30.5582 48.2447 30.9298 47.3825C31.0661 47.0339 31.3262 46.3175 31.4377 45.9625C31.543 45.6011 31.7288 44.853 31.8093 44.479L31.9456 43.7119L32.0385 42.9385L32.0942 42.1587L32.119 41.3789V24.2872C31.7722 24.2936 30.7873 24.3253 30.4653 24.3253C29.914 24.3253 29.2265 24.3126 28.6753 24.2746C26.3464 24.1161 23.9927 23.6406 21.8435 22.696C20.7348 22.2078 19.6385 21.5612 18.7342 20.737C18.6227 20.6293 18.3997 20.4074 18.2944 20.2933C18.1334 20.1411 17.1919 18.9239 17.037 18.7337L17.0185 18.7527L17.0123 18.7591Z" fill="#F8F5EF"/>
<path d="M12.2987 30.9819C10.2237 32.3132 8.40894 35.0076 8.40894 38.824C8.40894 41.8037 9.75919 44.3522 11.1776 45.6201C13.7604 47.9341 17.0679 48.1687 18.8393 48.1687C20.1896 48.1687 22.6052 47.9087 24.0979 47.0973C24.3766 46.9324 24.4014 46.8817 24.4014 45.8103V43.1413C24.4014 42.1397 24.4014 41.4233 24.451 40.6625C24.4943 39.832 24.6801 39.4263 25.3119 39.3058C25.5906 39.2615 25.6154 39.1854 25.6154 39.0903C25.6154 38.9508 25.4977 38.9001 25.2438 38.9001H21.0877C20.8276 38.9001 20.7099 38.9508 20.7099 39.0903C20.7099 39.1854 21.032 39.2615 21.224 39.3058C22.153 39.5658 22.2336 39.832 22.2336 41.7593V45.7025C22.2336 46.1083 22.0725 46.3682 21.769 46.5394C21.162 46.8944 20.0595 47.0402 19.2234 47.0402C17.0803 47.0402 15.0239 46.3238 13.1844 44.4917C12.373 43.6802 10.7192 41.3599 10.7192 37.9999C10.7192 35.2104 11.6731 33.131 13.0233 32.0343C14.7948 30.6015 16.4795 30.462 17.9412 30.462C20.9452 30.462 22.8344 31.4827 23.4104 32.3893C23.7634 32.9598 23.9493 33.4987 24.0669 33.4987C24.228 33.4987 24.2775 33.3783 24.2775 32.9979C24.2775 30.6142 24.4448 30.6839 24.4448 30.3479C24.4448 30.2528 24.3952 30.1577 24.1598 30.1324C23.5776 30.107 22.7662 30.0119 22.2769 29.8978C21.831 29.8027 19.9666 29.4921 18.4987 29.4921C16.7025 29.4921 14.3984 29.6569 12.3049 30.9946" fill="#F8F5EF"/>
<path d="M17.743 2.26325C17.7925 2.99231 17.0864 3.75941 17.0802 4.53285H16.944C16.944 3.76575 16.2379 2.99865 16.2874 2.26959C16.2379 1.54053 16.944 0.773437 16.944 0H17.0802C17.0802 0.767097 17.7863 1.53419 17.7368 2.26325" fill="#F8F5EF"/>
<path d="M18 67.8434H16V146.287H18V67.8434Z" fill="#F8F5EF"/>
</svg>
