<svg width="344" height="127" viewBox="0 0 344 127" fill="none" xmlns="http://www.w3.org/2000/svg">
<path d="M169.336 74.1571C168.827 74.1571 168.729 74.6966 168.655 75.092C168.262 77.3314 166.267 77.8653 165.663 77.9762C162.645 78.5287 153.105 78.3827 151.56 78.355V61.5672C151.56 61.4545 151.594 61.4231 151.709 61.4231C152.487 61.4231 161.866 61.5247 163.283 61.6781C165.238 61.8721 165.697 62.698 165.873 63.304V63.3095C166.049 63.8583 166.208 64.032 166.524 64.0227C166.539 64.0227 166.554 64.0227 166.564 64.0227C166.63 64.0264 166.728 64.0135 166.826 63.923C167.055 63.7142 167.157 63.1654 167.157 62.8421C167.157 62.6721 167.339 61.4397 167.484 60.4494C167.668 59.2078 167.779 58.441 167.779 58.2876C167.779 57.7278 167.447 57.6687 167.305 57.6687C167.016 57.6687 166.804 57.907 166.452 58.3006L166.365 58.3985C166.038 58.7532 165.527 58.7846 164.682 58.8401C164.495 58.853 164.283 58.8659 164.058 58.8844C162.906 58.9842 152.804 58.986 151.657 58.986C151.609 58.986 151.594 58.9786 151.594 58.9786C151.585 58.9694 151.558 58.9195 151.558 58.6886V44.7018C153.084 44.7092 162.12 44.7554 162.912 44.8515C164.886 45.0658 166.202 45.4076 166.666 46.446C166.755 46.6511 166.802 46.8211 166.84 46.9578C166.913 47.222 166.989 47.4973 167.352 47.4973C167.64 47.4973 167.834 47.2516 167.931 46.7675V46.762C168.048 46.0857 168.143 45.4317 168.192 44.9679C168.281 44.1623 168.402 43.5452 168.492 43.0944C168.564 42.7341 168.612 42.4957 168.612 42.3221C168.612 41.7382 168.341 41.6514 168.18 41.6514C167.986 41.6514 167.825 41.7327 167.685 41.8029C167.592 41.8491 167.503 41.8934 167.418 41.91L167.405 41.9137C166.983 42.019 166.144 42.1133 165.213 42.1613C164.427 42.1983 144.722 42.0578 143.93 42.0578C143.616 42.0578 142.882 42.0578 142.882 42.6805C142.882 43.1572 143.438 43.2976 143.622 43.3438H143.631C144.96 43.6191 145.575 44.0736 145.694 46.0451C145.745 46.8303 145.774 53.9641 145.755 61.3104C145.732 70.1939 145.652 76.0343 145.545 76.9415C145.429 77.7379 145.212 78.4123 144.917 78.8926C144.58 79.4377 144.153 79.7148 143.648 79.7148C143.236 79.7148 142.861 79.9809 142.861 80.271C142.861 80.8937 143.622 80.8937 143.909 80.8937C145.257 80.8937 165.227 81.0101 168.922 81.0359H168.929C169.177 81.0359 169.408 80.9417 169.584 80.7717C169.761 80.5999 169.858 80.3708 169.858 80.1269V75.1308C169.858 74.7668 169.858 74.1608 169.334 74.1608" fill="#A5865C"/>
<path d="M270.902 74.1571C270.393 74.1571 270.295 74.6966 270.221 75.092C269.828 77.3314 267.833 77.8653 267.229 77.9762C264.211 78.5287 254.671 78.3827 253.126 78.355V61.5672C253.126 61.4545 253.16 61.4231 253.275 61.4231C254.053 61.4231 263.432 61.5247 264.848 61.6781C266.804 61.8721 267.263 62.698 267.439 63.304V63.3095C267.615 63.8583 267.774 64.0301 268.09 64.0227C268.105 64.0227 268.12 64.0227 268.129 64.0227C268.196 64.0264 268.294 64.0135 268.392 63.923C268.621 63.7142 268.723 63.1654 268.723 62.8421C268.723 62.6721 268.905 61.4397 269.05 60.4494C269.234 59.2078 269.345 58.441 269.345 58.2876C269.345 57.7278 269.013 57.6687 268.871 57.6687C268.581 57.6687 268.37 57.907 268.018 58.3006L267.931 58.3985C267.604 58.7532 267.093 58.7846 266.248 58.8401C266.061 58.853 265.849 58.8659 265.624 58.8844C264.472 58.9842 254.37 58.986 253.222 58.986C253.175 58.986 253.16 58.9786 253.16 58.9786C253.151 58.9694 253.124 58.9195 253.124 58.6886V44.7018C254.65 44.7092 263.685 44.7554 264.478 44.8515C266.452 45.0658 267.768 45.4076 268.232 46.446C268.32 46.6511 268.368 46.8211 268.405 46.9578C268.479 47.222 268.555 47.4973 268.918 47.4973C269.205 47.4973 269.4 47.2516 269.497 46.7675V46.762C269.614 46.0857 269.708 45.4317 269.758 44.9679C269.846 44.1623 269.967 43.5452 270.058 43.0944C270.13 42.7341 270.177 42.4957 270.177 42.3221C270.177 41.7382 269.907 41.6514 269.746 41.6514C269.551 41.6514 269.391 41.7327 269.251 41.8029C269.158 41.8491 269.069 41.8934 268.984 41.91L268.971 41.9137C268.549 42.019 267.71 42.1133 266.779 42.1613C265.993 42.1983 246.288 42.0578 245.496 42.0578C245.182 42.0578 244.448 42.0578 244.448 42.6805C244.448 43.1572 245.004 43.2976 245.187 43.3438H245.197C246.526 43.6191 247.141 44.0736 247.26 46.0451C247.311 46.8303 247.218 76.0343 247.109 76.9415C246.993 77.7379 246.776 78.4123 246.481 78.8926C246.144 79.4377 245.717 79.7148 245.212 79.7148C244.8 79.7148 244.425 79.9809 244.425 80.271C244.425 80.8937 245.185 80.8937 245.473 80.8937C246.821 80.8937 266.791 81.0101 270.486 81.0359H270.493C270.739 81.0359 270.972 80.9417 271.147 80.7717C271.325 80.5999 271.422 80.3708 271.422 80.1269V75.1308C271.422 74.7668 271.422 74.1608 270.898 74.1608" fill="#A5865C"/>
<path d="M307.086 74.1588C306.617 74.1588 306.498 74.6004 306.406 75.0937C306.012 77.3331 304.017 77.8671 303.414 77.9779C300.396 78.5304 290.858 78.3844 289.311 78.3567V43.0536C289.311 42.5326 288.876 42.1058 288.342 42.1021C285.065 42.078 282.493 42.0596 281.682 42.0596C281.368 42.0596 280.635 42.0596 280.635 42.6822C280.635 43.1589 281.192 43.2993 281.376 43.3455H281.385C282.715 43.6208 283.329 44.0754 283.448 46.0468C283.499 46.8339 283.407 76.036 283.297 76.9432C283.184 77.7377 282.966 78.4121 282.669 78.8944C282.333 79.4394 281.905 79.7166 281.4 79.7166C280.988 79.7166 280.614 79.9826 280.614 80.2727C280.614 80.8954 281.374 80.8954 281.661 80.8954C283.036 80.8954 302.828 81.0118 306.672 81.0376H306.68C306.926 81.0376 307.158 80.9453 307.334 80.7753C307.512 80.6034 307.608 80.3743 307.608 80.1304V75.1344C307.608 74.7723 307.608 74.1644 307.084 74.1644" fill="#A5865C"/>
<path d="M131.861 61.2963H122.421C122.101 61.2963 121.353 61.2963 121.353 61.9116C121.353 62.2479 121.841 62.3864 122.586 62.5601L122.678 62.5823C124.632 63.1015 124.811 63.5264 124.811 67.6282V76.0591C124.811 76.8148 124.513 77.3229 123.873 77.6573H123.87C122.483 78.4296 119.944 78.7031 118.189 78.7031C115.687 78.7031 113.321 78.2855 111.152 77.4614C108.806 76.5709 106.608 75.1722 104.623 73.3061C104.055 72.7739 99.0838 67.8721 99.0838 59.5688C99.0838 56.7252 99.5717 54.1496 100.534 51.9121C101.417 49.8575 102.698 48.1484 104.233 46.9715C108.267 43.9081 112.049 43.6512 115.277 43.6512C118.505 43.6512 121.186 44.1095 123.476 44.9742C125.362 45.6874 126.837 46.674 127.525 47.6828C127.852 48.1854 128.119 48.6806 128.332 49.0796C128.728 49.8113 128.907 50.1457 129.193 50.1457C129.881 50.1457 129.881 49.4048 129.881 48.8635C129.881 45.1774 130.078 44.2517 130.184 43.7566C130.225 43.557 130.256 43.4147 130.256 43.1986C130.256 42.9307 130.11 42.5962 129.42 42.5279H129.407C128 42.4743 126.177 42.2581 125.163 42.0272H125.157C124.062 41.8017 119.811 41.1514 116.536 41.1514C112.444 41.1514 107.134 41.5209 102.348 44.3995C99.8024 45.9423 97.6372 48.1798 96.0903 50.8719C94.3127 53.963 93.4126 57.4883 93.4126 61.3536C93.4126 64.3302 94.0896 67.3492 95.3679 70.0819C96.4931 72.4857 98.0608 74.605 99.7797 76.0461C104.114 79.6989 110.018 81.5503 117.329 81.5503C120.122 81.5503 125.8 81.0625 129.374 79.2352L129.382 79.2315C130.125 78.8084 130.178 78.6162 130.178 76.29C130.178 76.29 130.178 66.915 130.284 65.2873C130.392 63.4599 130.823 62.8022 132.058 62.5804C132.691 62.4807 132.926 62.2978 132.926 61.9079C132.926 61.2926 132.179 61.2926 131.859 61.2926" fill="#A5865C"/>
<path d="M343.478 74.1571C342.969 74.1571 342.871 74.6966 342.797 75.092C342.403 77.3314 340.408 77.8653 339.807 77.9762C336.787 78.5287 327.249 78.3827 325.704 78.355V61.5672C325.704 61.4545 325.738 61.4231 325.853 61.4231C326.63 61.4231 336.01 61.5247 337.426 61.6781C339.382 61.8721 339.841 62.698 340.017 63.304V63.3095C340.195 63.8583 340.352 64.032 340.667 64.0227C340.683 64.0227 340.698 64.0227 340.707 64.0227C340.773 64.0264 340.872 64.0135 340.97 63.923C341.199 63.7142 341.301 63.1654 341.301 62.8421C341.301 62.6721 341.483 61.4397 341.628 60.4494C341.812 59.2078 341.923 58.441 341.923 58.2876C341.923 57.7278 341.59 57.6687 341.448 57.6687C341.159 57.6687 340.947 57.907 340.597 58.3006L340.509 58.3985C340.181 58.7532 339.671 58.7846 338.826 58.8401C338.638 58.853 338.427 58.8659 338.202 58.8844C337.05 58.9842 326.948 58.986 325.8 58.986C325.753 58.986 325.738 58.9786 325.738 58.9786C325.728 58.9694 325.702 58.9195 325.702 58.6886V44.7018C327.228 44.7092 336.263 44.7554 337.056 44.8515C339.03 45.0658 340.346 45.4076 340.809 46.446C340.898 46.6511 340.945 46.8211 340.983 46.9578C341.057 47.222 341.133 47.4973 341.496 47.4973C341.783 47.4973 341.978 47.2516 342.074 46.7675V46.762C342.192 46.0857 342.286 45.4317 342.335 44.9679C342.424 44.1605 342.545 43.5452 342.636 43.0944C342.708 42.7341 342.755 42.4957 342.755 42.3221C342.755 41.7382 342.485 41.6514 342.324 41.6514C342.129 41.6514 341.968 41.7327 341.829 41.8029C341.736 41.8491 341.647 41.8934 341.562 41.91L341.549 41.9137C341.127 42.019 340.287 42.1133 339.357 42.1613C338.57 42.1983 318.866 42.0578 318.075 42.0578C317.761 42.0578 317.028 42.0578 317.028 42.6805C317.028 43.1572 317.585 43.2976 317.767 43.3438H317.776C319.106 43.6191 319.72 44.0736 319.84 46.0451C319.891 46.8303 319.798 76.0343 319.69 76.9415C319.575 77.736 319.357 78.4123 319.062 78.8926C318.726 79.4377 318.298 79.7148 317.794 79.7148C317.381 79.7148 317.007 79.9809 317.007 80.271C317.007 80.8937 317.767 80.8937 318.054 80.8937C319.403 80.8937 339.372 81.0101 343.067 81.0359H343.075C343.322 81.0359 343.553 80.9417 343.729 80.7717C343.907 80.5999 344.003 80.3708 344.003 80.1269V75.1308C344.003 74.7668 344.003 74.1608 343.479 74.1608" fill="#A5865C"/>
<path d="M226.578 59.2798L224.766 57.9236C221.92 55.7859 220.229 54.3022 219.112 52.9608C217.922 51.5363 217.393 50.2725 217.393 48.8664C217.393 47.1998 218.162 45.7919 219.619 44.7942C220.948 43.8815 222.75 43.3789 224.69 43.3789C229.739 43.3789 231.099 44.1937 232.4 46.143C232.546 46.361 232.638 46.6492 232.72 46.9024C232.85 47.307 232.971 47.6895 233.323 47.6895C233.932 47.6895 233.932 46.786 233.932 46.3019C233.932 43.5914 234.068 42.9613 234.127 42.6916C234.144 42.6121 234.157 42.5493 234.157 42.4735C234.157 41.9026 233.614 41.9026 233.381 41.9026C232.931 41.9026 232.468 41.8416 231.477 41.655C230.042 41.3354 226.854 41.1377 224.721 41.1377C222.956 41.1377 221.294 41.3557 219.779 41.7844C218.282 42.2093 216.962 42.8301 215.857 43.6302C214.736 44.4431 213.864 45.4206 213.265 46.5365C212.644 47.6913 212.33 48.9699 212.33 50.339C212.33 52.2975 212.824 53.9752 213.887 55.6196C215.091 57.4876 217.094 59.3906 220.008 61.4378C220.763 61.9681 223.007 63.4056 223.179 63.5146C227.884 67.0713 229.947 68.991 229.947 72.4277C229.947 74.0204 229.106 75.6518 227.637 76.9009C226.016 78.281 223.798 79.0404 221.389 79.0404C219.944 79.0404 217.841 78.8594 216.027 77.9947C214.291 77.1669 213.225 75.905 212.858 74.2365C212.692 73.5418 212.601 73.1594 212.088 73.1594C211.534 73.1594 211.464 73.8116 211.427 74.1608V74.17C211.41 74.401 211.381 74.6061 211.347 74.8426C211.264 75.4135 211.152 76.1969 211.152 78.015C211.152 79.3804 211.188 79.7204 212.115 80.1435C214.269 81.1061 218.227 81.5385 221.19 81.5385C225.053 81.5385 227.924 80.9047 229.968 79.5984C233.525 77.2852 234.792 73.6194 234.792 70.9606C234.792 68.6973 234.302 67.0159 233.156 65.3327C231.942 63.5516 229.915 61.6836 226.585 59.2779" fill="#A5865C"/>
<path d="M194.052 59.2799L192.24 57.9237C189.394 55.786 187.703 54.3023 186.586 52.9609C185.396 51.5364 184.867 50.2726 184.867 48.8665C184.867 47.1999 185.637 45.792 187.093 44.7943C188.422 43.8816 190.224 43.379 192.164 43.379C197.213 43.379 198.573 44.1938 199.874 46.1431C200.02 46.3611 200.112 46.6493 200.194 46.9025C200.324 47.3071 200.445 47.6896 200.797 47.6896C201.406 47.6896 201.406 46.7861 201.406 46.302C201.406 43.5915 201.542 42.9614 201.601 42.6935C201.618 42.6141 201.631 42.5513 201.631 42.4755C201.631 41.9046 201.088 41.9046 200.856 41.9046C200.406 41.9046 199.942 41.8436 198.951 41.657C197.516 41.3374 194.328 41.1396 192.195 41.1396C190.43 41.1396 188.768 41.3577 187.253 41.7863C185.756 42.2113 184.436 42.8321 183.331 43.6321C182.21 44.4451 181.338 45.4225 180.739 46.5385C180.118 47.6933 179.805 48.9718 179.805 50.341C179.805 52.2995 180.3 53.9771 181.361 55.6215C182.565 57.4895 184.568 59.3926 187.482 61.4398C188.237 61.9701 190.481 63.4076 190.653 63.5166C195.358 67.0733 197.421 68.993 197.421 72.4296C197.421 74.0223 196.58 75.6538 195.111 76.9028C193.49 78.283 191.272 79.0424 188.863 79.0424C187.418 79.0424 185.315 78.8613 183.502 77.9966C181.766 77.1689 180.699 75.9069 180.332 74.2385C180.166 73.5438 180.075 73.1613 179.563 73.1613C179.008 73.1613 178.938 73.8135 178.901 74.1627V74.172C178.884 74.4029 178.855 74.608 178.821 74.8445C178.738 75.4154 178.626 76.1988 178.626 78.0169C178.626 79.3824 178.662 79.7223 179.589 80.1454C181.743 81.1081 185.701 81.5404 188.664 81.5404C192.527 81.5404 195.398 80.9067 197.442 79.6004C200.999 77.2871 202.266 73.6214 202.266 70.9626C202.266 68.6992 201.776 67.0179 200.631 65.3347C199.416 63.5535 197.389 61.6855 194.059 59.2799" fill="#A5865C"/>
<path d="M117.79 94.125H124.378V95.6918H119.594V97.8074H123.509V99.3224H119.594V101.438H124.378V103.005H117.79V94.125Z" fill="#A5865C"/>
<path d="M130.859 94.125H133.504L135.764 100.562L138.009 94.125H140.654V103.005H138.85V96.6581L136.632 103.005H134.881L132.663 96.6581V103.005H130.859V94.125Z" fill="#A5865C"/>
<path d="M147.604 94.125H151.265C153.765 94.125 154.994 95.0008 154.994 97.1681C154.994 99.3354 153.765 100.289 151.265 100.289H149.408V103.005H147.604V94.125ZM151.265 98.7608C152.468 98.7608 153.122 98.2915 153.122 97.1939C153.122 96.0964 152.468 95.6918 151.265 95.6918H149.408V98.7608H151.265Z" fill="#A5865C"/>
<path d="M161.543 94.125H165.178C167.609 94.125 168.893 94.8696 168.893 96.9852C168.893 98.4873 168.226 99.3224 166.982 99.6883C167.261 99.8712 167.504 100.106 167.704 100.42L169.241 103.005H167.25L165.994 100.876C165.514 100.054 164.831 99.9359 163.71 99.9359H163.349V103.005H161.545V94.125H161.543ZM165.178 98.4079C166.314 98.4079 167.021 98.055 167.021 97.011C167.021 95.9671 166.312 95.6918 165.178 95.6918H163.347V98.4079H165.178Z" fill="#A5865C"/>
<path d="M175.588 94.125H182.176V95.6918H177.392V97.8074H181.308V99.3224H177.392V101.438H182.176V103.005H175.588V94.125Z" fill="#A5865C"/>
<path d="M188.657 94.125H195.247V95.6918H190.461V97.8074H194.377V99.3224H190.461V101.438H195.247V103.005H188.657V94.125Z" fill="#A5865C"/>
<path d="M203.893 94.125L207.607 100.353V94.125H209.411V103.005H207.179L203.532 96.9205V103.005H201.728V94.125H203.893Z" fill="#A5865C"/>
<path d="M216.36 94.125H219.847C222.548 94.125 224.339 95.4054 224.339 98.5649C224.339 101.724 222.548 103.005 219.847 103.005H216.36V94.125ZM219.781 101.438C221.277 101.438 222.467 100.732 222.467 98.5649C222.467 96.3976 221.277 95.6918 219.781 95.6918H218.164V101.438H219.781Z" fill="#A5865C"/>
<path d="M232.691 94.125H230.887V103.005H232.691V94.125Z" fill="#A5865C"/>
<path d="M239.641 94.125H242.286L244.544 100.562L246.791 94.125H249.436V103.005H247.632V96.6581L245.414 103.005H243.663L241.445 96.6581V103.005H239.641V94.125Z" fill="#A5865C"/>
<path d="M256.386 94.125H262.974V95.6918H258.19V97.8074H262.104V99.3224H258.19V101.438H262.974V103.005H256.386V94.125Z" fill="#A5865C"/>
<path d="M271.62 94.125L275.336 100.353V94.125H277.14V103.005H274.909L271.259 96.9205V103.005H269.455V94.125H271.62Z" fill="#A5865C"/>
<path d="M291.519 94.125V95.6918H288.365V103.005H286.561V95.6918H283.433V94.125H291.519Z" fill="#A5865C"/>
<path d="M301.502 93.9951C304.042 93.9951 305.899 95.4049 305.899 98.5662C305.899 101.728 304.042 103.135 301.502 103.135C298.962 103.135 297.119 101.726 297.119 98.5662C297.119 95.4067 298.976 93.9951 301.502 93.9951ZM301.515 101.528C302.932 101.528 304.029 100.654 304.029 98.5644C304.029 96.4747 302.934 95.5878 301.515 95.5878C300.097 95.5878 298.989 96.4747 298.989 98.5644C298.989 100.654 300.099 101.528 301.515 101.528Z" fill="#A5865C"/>
<path d="M315.855 93.9959C318.382 93.9959 319.331 95.2098 319.397 96.869H317.593C317.514 96.1909 317.126 95.498 315.789 95.498C314.692 95.498 314.093 95.838 314.093 96.5807C314.093 98.6058 319.626 97.063 319.626 100.537C319.626 102.325 318.423 103.134 315.884 103.134C313.064 103.134 312.154 101.92 312.062 100.21H313.919C313.958 100.967 314.48 101.632 315.923 101.632C317.232 101.632 317.754 101.279 317.754 100.548C317.754 98.8755 312.221 100.313 312.221 96.6436C312.221 94.9456 313.531 93.9922 315.855 93.9922" fill="#A5865C"/>
<path d="M24.6206 22.8887C23.0246 22.8887 21.7217 23.8421 21.7217 24.9987C21.7217 26.1553 23.0246 27.1032 24.6206 27.1032H53.0107C54.6124 27.1032 55.9192 26.1553 55.9192 24.9987C55.9192 23.8421 54.6124 22.8887 53.0107 22.8887H24.6206Z" fill="#A5865C"/>
<path d="M36.366 1.54094C35.1501 5.32678 35.4451 11.7862 37.4533 21.9926H40.1745C42.1809 11.7862 42.4759 5.32678 41.2694 1.54094C40.9404 0.511799 39.8795 0 38.8243 0C37.7691 0 36.6988 0.515494 36.366 1.54094Z" fill="#A5865C"/>
<path d="M15.417 5.94173C14.7703 6.64014 14.3127 7.48452 14.1198 8.45454C13.787 10.0435 14.2559 11.8468 15.3111 13.3545C16.2869 14.7606 17.7165 15.8895 19.2161 16.8189C21.2528 18.0716 23.3008 19.1746 24.1196 21.996H24.7682C24.4883 17.4822 17.9756 14.2746 18.1931 9.44118C18.3084 6.93577 20.0614 5.2193 23.1514 5.23223C23.3443 4.95508 23.5617 4.69272 23.8057 4.44513C22.6389 4.09223 21.4891 3.89453 20.3999 3.89453C18.4843 3.89453 16.7559 4.50241 15.4189 5.94542" fill="#A5865C"/>
<path d="M29.4336 2.3485C27.6503 2.52957 25.9881 3.1744 24.7438 4.32919C21.3891 7.43324 22.3271 11.6791 24.7892 14.7204C25.8066 15.9675 27.1435 16.8304 28.1893 18.0295C29.0819 19.055 29.7135 20.2689 29.6586 21.9835H30.3526C31.5629 17.2166 25.2166 12.967 27.0395 7.93026C28.1382 4.90011 31.1771 3.32776 35.1407 4.70056C35.241 4.31995 35.3071 3.92086 35.3998 3.53839C34.0647 2.74205 32.2891 2.29492 30.4926 2.29492C30.1408 2.29492 29.7834 2.3134 29.4317 2.34666" fill="#A5865C"/>
<path d="M53.8372 4.44014C54.0755 4.69142 54.2986 4.9501 54.4953 5.22724C57.5777 5.21616 59.3345 6.93078 59.4498 9.43804C59.6597 14.2715 53.1527 17.4827 52.8728 21.9928H53.5271C54.3421 19.1715 56.3845 18.0684 58.4268 16.8157C59.9264 15.8882 61.356 14.7611 62.3336 13.3514C63.387 11.8455 63.8484 10.0404 63.5288 8.4514C63.3302 7.48507 62.8707 6.63885 62.2278 5.94044C60.8908 4.49557 59.1548 3.8877 57.243 3.8877C56.15 3.8877 55.0021 4.08539 53.8372 4.43829" fill="#A5865C"/>
<path d="M42.2395 3.54024C42.3359 3.9227 42.3965 4.3181 42.4967 4.69872C46.4641 3.33146 49.4992 4.90011 50.5941 7.93211C52.4265 12.967 46.084 17.2184 47.281 21.9854H47.9807C47.9296 20.2707 48.5537 19.055 49.4481 18.0314C50.5052 16.8322 51.8346 15.9657 52.8482 14.7185C55.3103 11.6755 56.2483 7.43509 52.8936 4.32919C51.6663 3.17071 49.9927 2.52773 48.2133 2.3485C47.8578 2.31155 47.5004 2.29492 47.1448 2.29492C45.3465 2.29492 43.5765 2.74021 42.2395 3.53839" fill="#A5865C"/>
<path d="M74.9695 99.0749C74.6197 100.158 75.1227 100.756 74.8107 102.493C74.5308 104.073 73.4075 105.285 72.097 106.482C67.9992 110.211 61.112 112.108 55.3311 114.73C54.1152 115.199 52.8841 115.826 51.5434 116.611C50.5695 117.195 49.5843 117.779 48.7087 118.507C43.3798 122.934 43.7126 126.422 43.7126 126.422C44.6487 124.63 46.2144 122.756 48.0903 121.121C50.4825 119.024 53.4079 117.21 56.5073 116.55C58.8409 116.044 60.904 116.363 62.0405 117.821C62.9331 118.967 66.2462 118.616 65.6997 117.387C68.3339 117.387 70.7601 114.216 69.3437 111.94C69.6368 114.645 66.4296 114.087 63.4853 113.784C62.1786 113.651 60.9967 113.623 59.8734 113.703C66.8797 111.234 74.5043 108.306 76.9948 102.953C78.3942 99.498 77.2331 97.534 76.1703 97.5303C75.6333 97.5303 75.1227 98.0273 74.9695 99.0786" fill="#A5865C"/>
<path d="M1.47073 97.5264C0.406081 97.5301 -0.755014 99.4941 0.644351 102.949C3.13295 108.304 10.7595 111.23 17.7658 113.699C16.6425 113.619 15.4606 113.647 14.1539 113.78C11.2115 114.085 8.00426 114.643 8.29737 111.936C6.88098 114.214 9.30718 117.383 11.9414 117.383C11.3949 118.612 14.7099 118.963 15.6005 117.817C16.7371 116.359 18.8002 116.04 21.1337 116.546C24.2312 117.206 27.1567 119.022 29.5488 121.119C31.4247 122.754 32.9905 124.628 33.9266 126.42C33.9266 126.42 34.2594 122.932 28.9304 118.505C28.053 117.777 27.0697 117.193 26.0958 116.609C24.7569 115.826 23.524 115.197 22.308 114.73C16.5272 112.108 9.64189 110.211 5.54213 106.482C4.23164 105.285 3.10837 104.073 2.8285 102.493C2.51648 100.756 3.01949 100.157 2.66965 99.0747C2.51648 98.0234 2.0059 97.5264 1.46884 97.5264" fill="#A5865C"/>
<path d="M8.31261 45.0015C15.3227 45.02 22.4689 43.9261 28.94 41.223C30.954 40.3824 33.0039 39.2941 34.789 38.0543C35.4206 37.6201 36.2564 36.9808 36.8181 36.4616C37.4932 35.8815 38.259 35.0962 38.8226 34.4107C41.3868 37.4982 45.01 39.6525 48.7032 41.223C50.6188 42.0231 52.75 42.7381 54.7621 43.2591C55.7417 43.5197 57.0994 43.7987 58.0941 43.9982C62.1144 44.7631 66.322 45.0754 70.4142 44.9867V79.2958L70.3783 80.894C70.3329 81.6792 70.1665 83.2257 70.0549 84.0017L69.775 85.5205L69.4195 87.0152L68.994 88.4786L68.5005 89.9124C68.2282 90.62 67.623 91.9965 67.2959 92.6783L66.5981 94.0012C59.1342 107.408 42.8864 113.439 27.9605 108.284C25.1561 107.262 22.3082 105.786 19.916 104.019C17.9682 102.596 15.994 100.751 14.4396 98.9215L13.5073 97.7575L12.628 96.5454L11.7997 95.2983L11.0471 93.9994L10.3511 92.6764C10.0108 91.9836 9.42265 90.6385 9.14278 89.9105L8.64922 88.4767L8.22374 87.0134L7.86633 85.5186L7.58646 83.9999C7.47678 83.2368 7.31226 81.6644 7.26876 80.8921L7.23094 79.2939V44.9849C7.37844 44.9904 7.54675 44.9793 7.69425 44.9978H8.3164L8.31261 45.0015ZM38.8226 30.0688L38.7942 30.0281C38.4425 30.4272 36.2148 33.1525 35.9123 33.4278C35.6664 33.6772 35.1634 34.1576 34.9006 34.3886C32.8393 36.19 30.3394 37.585 27.8092 38.6529C22.9076 40.7112 17.539 41.7478 12.2308 42.0914C10.9695 42.1727 9.39429 42.2023 8.13108 42.1986C7.37466 42.1949 5.13757 42.1302 4.36035 42.1136V79.3309L4.41141 81.0344L4.53244 82.7342C4.6251 83.5805 4.89173 85.2452 5.05625 86.0766C5.2359 86.8951 5.66517 88.5008 5.90911 89.3008C6.16251 90.0916 6.74306 91.6325 7.06642 92.3974C7.39924 93.1513 8.13108 94.6128 8.5263 95.3352L9.35457 96.7487L10.2471 98.1159C10.718 98.7848 11.7108 100.071 12.2327 100.699L13.3163 101.924C13.8741 102.523 15.039 103.657 15.6479 104.204L16.8979 105.259C17.5428 105.773 18.874 106.741 19.5605 107.199L20.9485 108.073L22.3914 108.882L23.8834 109.625C24.7873 110.054 26.0524 110.549 26.9696 110.907C42.0619 116.058 58.5442 110.909 67.3885 98.1141C68.5667 96.4142 69.7391 94.2802 70.5768 92.3956C70.8926 91.6418 71.4826 90.0768 71.736 89.2989C71.9762 88.5118 72.4073 86.8822 72.5794 86.0748L72.8858 84.4101L73.0995 82.7305L73.2299 81.0307L73.281 79.3272V42.1099C72.4924 42.1284 70.244 42.1875 69.5065 42.1949C68.249 42.1986 66.6775 42.169 65.42 42.0877C60.1099 41.7478 54.7375 40.7075 49.8341 38.6493C47.302 37.5813 44.8058 36.1826 42.7389 34.3849C42.4912 34.1539 41.9692 33.6661 41.731 33.4241C41.3641 33.0915 39.2197 30.4438 38.8566 30.0244L38.8188 30.0651L38.8226 30.0688Z" fill="#A5865C"/>
<path d="M28.0681 56.693C23.3386 59.5975 19.1973 65.4601 19.1973 73.769C19.1973 80.2542 22.2778 85.8083 25.5171 88.5631C31.4096 93.598 38.9586 94.1135 42.9978 94.1135C46.0783 94.1135 51.5945 93.5426 54.9927 91.7818C55.628 91.4159 55.6848 91.3161 55.6848 88.9733V83.1624C55.6848 80.9822 55.6848 79.4228 55.7926 77.7618C55.8966 75.9492 56.3183 75.066 57.7536 74.8055C58.3946 74.7021 58.4457 74.545 58.4457 74.3325C58.4457 74.0277 58.1791 73.9223 57.5909 73.9223H48.1112C47.5193 73.9223 47.2545 74.0277 47.2545 74.3325C47.2545 74.545 47.9939 74.7039 48.4232 74.8055C50.5449 75.3764 50.7284 75.9492 50.7284 80.1508V88.7331C50.7284 89.6218 50.3558 90.1872 49.6713 90.5512C48.287 91.3309 45.7701 91.6413 43.8582 91.6413C38.9737 91.6413 34.282 90.0856 30.084 86.0873C28.227 84.3209 24.4543 79.2676 24.4543 71.949C24.4543 65.8758 26.6309 61.3454 29.7095 58.9545C33.7544 55.8394 37.5895 55.5308 40.9328 55.5308C47.7821 55.5308 52.0918 57.7609 53.4155 59.7342C54.2154 60.9795 54.6409 62.1436 54.9094 62.1436C55.2763 62.1436 55.3841 61.8849 55.3841 61.0534C55.3841 55.8652 55.7604 56.013 55.7604 55.2869C55.7604 55.0818 55.6507 54.873 55.1156 54.8176C53.7919 54.7659 51.9292 54.5608 50.8135 54.304C49.8037 54.0952 45.5469 53.4189 42.1998 53.4189C38.1057 53.4189 32.843 53.7811 28.0662 56.693" fill="#A5865C"/>
</svg>
