<svg width="210" viewBox="0 0 374 185" fill="none" xmlns="http://www.w3.org/2000/svg">
<g clip-path="url(#clip0_117_10)">
<path d="M154.04 184.964C154.04 184.964 154.13 184.964 154.184 184.964C154.238 184.964 154.31 184.964 154.364 184.964L154.436 184.91C155.697 184.821 156.813 184.552 157.984 184.14C158.218 184.069 158.56 183.908 158.542 183.639C158.578 181.955 158.596 180.254 158.596 178.553C158.596 178.159 158.668 177.55 159.082 177.371C159.388 177.281 160.09 177.048 159.37 176.887C158.074 176.887 156.795 176.869 155.499 176.887C155.175 176.941 155.085 177.138 155.445 177.227C156.219 177.353 156.561 177.639 156.579 178.445C156.597 179.985 156.615 181.526 156.561 183.048C156.543 183.603 155.031 183.854 154.598 183.89C150.133 184.176 146.748 181.311 146.28 176.905C145.866 173.037 147.936 169.867 152.024 169.652C154.058 169.545 157.209 169.831 158.038 171.998C158.236 172.41 158.434 172.32 158.47 171.873C158.452 171.085 158.488 170.315 158.614 169.58C158.65 169.365 158.452 169.348 158.272 169.312L157.461 169.258C156.363 169.061 155.265 168.918 154.166 168.81L153.95 168.721C153.95 168.721 153.806 168.721 153.734 168.721C153.644 168.721 153.536 168.721 153.446 168.721C153.266 168.721 153.086 168.721 152.906 168.721C152.78 168.721 152.672 168.721 152.546 168.721C152.456 168.721 152.384 168.721 152.294 168.721L152.096 168.792C147.774 168.989 144.425 171.694 144.155 176.117C143.957 179.412 145.289 182.278 148.296 183.8C149.683 184.499 150.853 184.678 152.366 184.875C152.438 184.875 152.51 184.928 152.582 184.964C152.672 184.964 152.744 184.964 152.834 184.964C152.888 184.964 152.924 184.964 152.978 184.964C153.086 184.964 153.248 184.928 153.338 185H153.698C153.698 185 153.914 184.964 154.022 184.964H154.04Z" fill="#AF9A75"/>
<path d="M157.479 169.24L158.29 169.294C158.452 169.312 158.65 169.348 158.632 169.562C158.506 170.315 158.47 171.067 158.488 171.855C158.47 172.303 158.272 172.374 158.056 171.98C157.227 169.813 154.076 169.527 152.042 169.634C147.954 169.849 145.884 173.019 146.298 176.887C146.766 181.293 150.151 184.158 154.616 183.872C155.049 183.836 156.561 183.585 156.579 183.03C156.633 181.49 156.633 179.95 156.597 178.427C156.597 177.621 156.237 177.335 155.463 177.21C155.103 177.12 155.193 176.923 155.517 176.869C156.813 176.869 158.11 176.869 159.388 176.869C160.108 177.03 159.388 177.281 159.1 177.353C158.704 177.532 158.632 178.141 158.614 178.535C158.614 180.236 158.578 181.938 158.56 183.621C158.56 183.89 158.218 184.051 158.002 184.122C156.813 184.534 155.697 184.803 154.454 184.893L154.382 184.946C155.517 184.875 156.957 184.66 158.002 184.194C158.776 183.854 158.614 183.836 158.668 183.066C158.758 181.615 158.632 180.147 158.704 178.696C158.704 178.374 158.758 177.818 158.938 177.568C159.172 177.263 159.766 177.353 159.784 177.048C159.784 176.816 159.514 176.798 159.334 176.78C158.128 176.69 156.813 176.851 155.589 176.78C155.373 176.744 155.031 176.959 155.247 177.156C155.409 177.281 155.931 177.335 156.183 177.478C156.471 177.657 156.525 178.087 156.543 178.409C156.633 179.896 156.489 181.49 156.543 182.976C156.435 183.46 155.589 183.639 155.157 183.711C152.456 184.176 149.503 183.066 147.9 180.845C145.325 177.299 145.794 171.085 150.673 169.867C152.474 169.419 156.327 169.616 157.569 171.192C157.768 171.443 158.002 172.07 158.182 172.231C158.38 172.41 158.542 172.177 158.56 171.962C158.614 171.443 158.56 170.834 158.596 170.315C158.596 170.082 158.758 169.58 158.704 169.383C158.704 169.348 158.632 169.294 158.596 169.276C158.416 169.151 157.768 169.186 157.497 169.151C156.309 168.989 155.211 168.739 153.986 168.685L154.202 168.774C155.301 168.882 156.399 169.043 157.497 169.222L157.479 169.24Z" fill="#AF9A75"/>
<path d="M144.101 176.207C143.831 181.508 147.504 184.678 152.6 184.964C152.528 184.928 152.474 184.893 152.384 184.875C150.871 184.678 149.683 184.499 148.314 183.8C145.307 182.26 143.975 179.412 144.173 176.117C144.443 171.694 147.792 168.989 152.114 168.792L152.312 168.721C147.81 168.864 144.335 171.586 144.101 176.225V176.207Z" fill="#AF9A75"/>
<path d="M243.439 182.135H243.385C243.259 181.973 243.151 182.117 243.097 182.26C242.971 183.245 242.269 183.567 241.351 183.675C239.676 183.746 238.002 183.818 236.309 183.764C236.219 183.764 236.183 183.728 236.219 183.639H236.147V176.905L236.219 176.869C236.219 176.869 236.219 176.798 236.237 176.798C237.732 176.798 239.262 176.798 240.757 176.887C241.423 176.959 241.819 177.084 242.053 177.783C242.233 178.105 242.377 177.335 242.341 177.21L242.521 176.099C242.575 175.669 242.629 175.061 242.125 175.705C241.855 175.849 241.549 175.92 241.207 175.92C239.622 175.974 238.002 175.992 236.381 175.92L236.201 175.884H236.129V170.171L236.201 170.136V170.064L240.36 170.1C240.739 170.136 241.225 170.171 241.567 170.297C242.035 170.458 242.197 170.655 242.341 171.103C242.449 171.353 242.575 171.138 242.611 170.959C242.719 170.404 242.809 169.742 242.881 169.186C242.881 169.061 242.827 168.971 242.683 169.025C242.323 169.151 241.945 169.222 241.549 169.222C238.902 169.186 236.147 169.151 233.518 169.151C233.374 169.151 232.924 169.151 232.834 169.258C232.708 169.383 232.924 169.509 233.032 169.545C233.59 169.652 233.878 169.974 233.914 170.547C233.914 174.738 233.914 178.983 233.878 183.137C233.86 183.514 233.644 184.23 233.212 184.337C232.294 184.552 233.05 184.821 233.608 184.749C236.597 184.696 239.712 184.749 242.701 184.803C242.917 184.803 243.205 184.803 243.331 184.57H243.421V182.314C243.421 182.314 243.403 182.242 243.385 182.206L243.439 182.135Z" fill="#AF9A75"/>
<path d="M236.327 183.782C238.002 183.836 239.694 183.782 241.369 183.693C242.287 183.567 242.989 183.263 243.115 182.278C243.151 182.135 243.277 181.991 243.403 182.152H243.457C243.403 181.991 243.277 181.955 243.151 182.081C243.025 182.206 243.007 182.564 242.917 182.743C242.395 183.961 240.378 183.567 239.334 183.728C238.398 183.639 237.281 183.836 236.381 183.728C236.345 183.728 236.255 183.728 236.255 183.675C236.201 183.764 236.255 183.782 236.345 183.8L236.327 183.782Z" fill="#AF9A75"/>
<path d="M236.165 183.639H236.237V176.887L236.165 176.923V183.639Z" fill="#AF9A75"/>
<path d="M242.773 184.731C239.784 184.66 236.669 184.606 233.68 184.678C233.122 184.749 232.366 184.481 233.284 184.266C233.698 184.158 233.914 183.442 233.95 183.066C233.986 178.929 233.986 174.667 233.986 170.476C233.95 169.903 233.644 169.598 233.104 169.473C232.996 169.437 232.78 169.33 232.906 169.186C232.996 169.079 233.446 169.079 233.59 169.079C236.219 169.079 238.992 169.115 241.621 169.151C242.017 169.151 242.395 169.097 242.755 168.954C242.881 168.9 242.971 168.989 242.953 169.115C242.881 169.688 242.791 170.333 242.683 170.888C242.647 171.067 242.521 171.282 242.413 171.031C242.287 170.583 242.125 170.386 241.639 170.225C241.279 170.118 240.793 170.064 240.432 170.028L236.291 169.992V170.064L240.432 170.1C240.919 170.171 241.855 170.189 242.179 170.619C242.269 170.744 242.341 171.156 242.467 171.192C242.701 171.246 242.737 170.977 242.773 170.816C242.899 170.279 242.899 169.652 243.025 169.115C243.025 168.667 242.629 168.936 242.359 168.989C241.693 169.115 241.027 169.043 240.36 169.025C238.272 169.025 236.183 169.025 234.094 168.989C233.842 168.989 232.978 168.936 232.852 169.115C232.618 169.473 233.338 169.545 233.518 169.652C233.806 169.831 233.878 170.1 233.932 170.422C233.932 173.735 233.932 177.066 233.896 180.379C233.896 181.203 233.968 182.152 233.896 182.958C233.878 183.263 233.716 183.818 233.5 184.033C233.302 184.212 232.888 184.158 232.816 184.355C232.744 184.57 232.978 184.642 233.158 184.66C234.04 184.749 235.139 184.66 236.039 184.66C238.11 184.678 240.198 184.696 242.269 184.731C242.647 184.731 243.349 184.857 243.511 184.445H243.421C243.295 184.66 243.025 184.678 242.791 184.678L242.773 184.731Z" fill="#AF9A75"/>
<path d="M236.165 175.849H236.237V170.118L236.165 170.153V175.849Z" fill="#AF9A75"/>
<path d="M241.243 175.902C241.585 175.902 241.891 175.831 242.161 175.687C242.647 175.043 242.611 175.652 242.557 176.081L242.377 177.192C242.413 177.317 242.269 178.087 242.089 177.765C241.855 177.066 241.477 176.959 240.793 176.869C239.298 176.798 237.768 176.762 236.273 176.78C236.273 176.78 236.255 176.816 236.255 176.851L240.018 176.887C240.613 176.977 241.531 176.816 241.873 177.442C242.017 177.711 242.125 178.212 242.413 177.639C242.431 177.013 242.647 176.35 242.665 175.759C242.665 175.616 242.701 175.293 242.467 175.311C242.287 175.311 242.215 175.526 242.125 175.616C241.891 175.831 240.847 175.831 240.486 175.849C239.082 175.884 237.66 175.813 236.255 175.849L236.435 175.884C238.056 175.938 239.658 175.938 241.261 175.884L241.243 175.902Z" fill="#AF9A75"/>
<path d="M182.742 168.703C182.742 168.703 182.652 168.703 182.598 168.703L182.472 168.792C181.139 168.936 179.753 169.455 178.96 170.583C177.016 173.878 180.491 176.242 182.922 177.854C184.614 178.893 186.451 181.132 184.704 182.958C183.12 184.606 178.924 184.516 178.438 181.902C178.384 181.651 178.168 181.579 178.078 181.866C177.952 182.242 177.808 183.943 178.042 184.23C178.168 184.391 178.834 184.588 179.05 184.642C179.699 184.767 180.293 184.839 180.941 184.928C180.977 184.928 180.995 184.928 181.031 184.964C181.067 184.964 181.085 185 181.103 185.018C181.193 185.018 181.265 185.018 181.355 185.018C181.427 185.018 181.499 185.018 181.571 185.018C181.733 185.018 181.877 185.018 182.039 185.018C182.093 185.018 182.165 185.018 182.219 185.018C182.291 185.018 182.363 185.018 182.436 185.018C182.49 185.018 182.526 185.018 182.58 185.018L182.724 184.928C185.064 184.785 186.901 183.478 187.153 181.06C187.387 178.983 185.839 177.532 184.326 176.368C183.336 175.669 182.381 174.917 181.481 174.111C179.411 172.231 180.077 169.849 182.922 169.562C184.218 169.437 186.127 169.652 186.523 171.138C186.703 171.55 186.829 171.138 186.829 170.888C186.865 169.724 186.883 169.151 186.883 169.151C186.091 169.007 185.28 168.936 184.452 168.846C184.416 168.846 184.38 168.846 184.344 168.81C184.308 168.81 184.272 168.774 184.236 168.757C184.146 168.757 184.074 168.757 183.984 168.757C183.894 168.757 183.786 168.757 183.696 168.757C183.588 168.757 183.444 168.792 183.372 168.721H183.048L182.958 168.757C182.958 168.757 182.796 168.757 182.724 168.757L182.742 168.703Z" fill="#AF9A75"/>
<path d="M180.959 184.875C180.293 184.785 179.717 184.713 179.068 184.588C178.852 184.552 178.186 184.355 178.06 184.176C177.844 183.89 177.988 182.188 178.096 181.812C178.186 181.544 178.402 181.597 178.456 181.848C178.924 184.481 183.12 184.552 184.722 182.905C186.487 181.078 184.632 178.857 182.94 177.801C180.491 176.189 177.034 173.825 178.978 170.53C179.771 169.401 181.157 168.882 182.49 168.739L182.616 168.649C180.203 168.864 178.006 170.261 178.402 172.965C178.834 175.902 182.652 177.192 184.47 179.18C185.803 180.63 185.641 182.475 183.858 183.442C182.436 184.212 179.465 184.087 178.708 182.421C178.618 182.242 178.528 181.705 178.438 181.615C178.348 181.526 178.168 181.508 178.078 181.615C177.988 181.723 177.88 182.708 177.88 182.923C177.88 183.191 177.844 183.979 177.988 184.176C178.15 184.391 178.87 184.57 179.14 184.642C179.753 184.785 180.491 184.875 181.121 184.91C181.103 184.893 181.067 184.875 181.049 184.857C181.013 184.857 180.995 184.839 180.959 184.821V184.875Z" fill="#AF9A75"/>
<path d="M184.47 168.792C185.298 168.864 186.091 168.954 186.901 169.097C186.901 169.097 186.901 169.67 186.847 170.834C186.847 171.067 186.739 171.479 186.541 171.085C186.163 169.598 184.254 169.383 182.94 169.509C180.095 169.795 179.429 172.177 181.499 174.058C182.4 174.863 183.354 175.616 184.344 176.314C185.875 177.478 187.405 178.911 187.171 181.006C186.901 183.424 185.082 184.731 182.742 184.875L182.598 184.964C184.668 184.839 186.451 183.961 187.081 181.884C188.323 177.693 183.372 176.135 181.175 173.628C179.411 171.604 180.725 169.652 183.192 169.58C184.29 169.545 185.785 169.652 186.343 170.744C186.415 170.906 186.541 171.532 186.811 171.282C186.991 171.121 186.901 170.225 186.919 169.956C186.919 169.777 187.063 169.168 186.955 169.061C186.901 169.007 185.551 168.882 185.353 168.81C184.992 168.774 184.632 168.739 184.254 168.739C184.29 168.757 184.326 168.774 184.362 168.792C184.398 168.792 184.434 168.81 184.47 168.828V168.792Z" fill="#AF9A75"/>
<path d="M195.652 168.703C195.652 168.703 195.562 168.703 195.508 168.703L195.382 168.792C192.969 169.025 190.862 170.565 191.42 173.216C191.763 174.828 193.095 175.902 194.391 176.816L195.832 177.818C197.524 178.875 199.379 181.06 197.669 182.923C196.102 184.606 191.925 184.516 191.402 181.92C191.384 181.812 191.258 181.597 191.114 181.687C190.898 181.848 190.862 183.263 190.862 183.567C190.862 184.212 190.988 184.337 191.619 184.499C192.375 184.696 193.131 184.857 193.905 184.875L194.031 184.946C194.031 184.946 194.193 184.946 194.283 184.946C194.373 184.946 194.445 184.946 194.536 184.946C194.68 184.946 194.824 184.946 194.968 184.946C195.022 184.946 195.094 184.946 195.148 184.946C195.22 184.946 195.292 184.946 195.364 184.946C195.418 184.946 195.49 184.946 195.544 184.946L195.688 184.857C198.011 184.696 199.829 183.406 200.099 180.988C200.333 178.911 198.803 177.46 197.272 176.314C196.264 175.598 195.31 174.846 194.391 174.022C192.393 172.159 192.969 169.813 195.778 169.491C197.092 169.348 199.037 169.545 199.451 171.049C199.613 171.425 199.757 171.103 199.757 170.852C199.757 170.297 199.757 169.724 199.847 169.168C199.847 169.115 199.793 169.079 199.739 169.061C198.947 168.936 198.137 168.846 197.326 168.774L197.146 168.703C197.146 168.703 196.984 168.703 196.894 168.703C196.786 168.703 196.678 168.703 196.57 168.703C196.48 168.703 196.336 168.739 196.282 168.667H196.03L195.85 168.703C195.85 168.703 195.706 168.703 195.634 168.703H195.652Z" fill="#AF9A75"/>
<path d="M199.739 169.079C199.739 169.079 199.829 169.133 199.847 169.186C199.757 169.759 199.739 170.315 199.757 170.87C199.757 171.121 199.613 171.443 199.451 171.067C199.055 169.562 197.11 169.365 195.778 169.509C192.969 169.831 192.393 172.159 194.391 174.04C195.31 174.863 196.264 175.634 197.272 176.332C198.803 177.496 200.333 178.929 200.099 181.006C199.829 183.406 198.011 184.713 195.688 184.875L195.544 184.964C197.597 184.839 199.379 183.943 199.991 181.884C201.234 177.729 196.354 176.153 194.157 173.682C192.339 171.64 193.545 169.652 196.102 169.562C197.2 169.527 198.659 169.634 199.235 170.709C199.325 170.888 199.433 171.515 199.721 171.264C199.901 171.103 199.811 170.315 199.829 170.046C199.829 169.759 199.883 169.473 199.919 169.186C199.901 168.918 199.451 168.989 199.235 168.936C198.515 168.81 197.903 168.721 197.164 168.685L197.344 168.757C198.155 168.828 198.965 168.936 199.757 169.043L199.739 169.079Z" fill="#AF9A75"/>
<path d="M191.601 184.499C190.97 184.337 190.844 184.212 190.844 183.567C190.844 183.263 190.88 181.848 191.096 181.687C191.222 181.579 191.348 181.794 191.384 181.92C191.907 184.516 196.102 184.606 197.65 182.923C199.361 181.078 197.506 178.875 195.814 177.818L194.373 176.816C193.095 175.902 191.745 174.828 191.402 173.216C190.844 170.565 192.951 169.025 195.364 168.792L195.49 168.703C193.113 168.9 190.916 170.297 191.276 172.947C191.691 176.045 195.58 177.21 197.416 179.305C198.803 180.881 198.371 182.815 196.444 183.639C194.986 184.266 192.177 184.033 191.546 182.349C191.456 182.135 191.438 181.597 191.15 181.597C190.97 181.597 190.916 181.83 190.88 181.973C190.808 182.421 190.682 183.711 190.826 184.105C190.916 184.337 191.114 184.409 191.33 184.499C192.087 184.785 193.185 184.928 194.013 184.964L193.887 184.893C193.113 184.857 192.339 184.713 191.601 184.516V184.499Z" fill="#AF9A75"/>
<path d="M133.784 179.735C135.458 179.591 135.782 177.299 134.126 176.833C133.982 176.708 134.126 176.619 134.27 176.565C135.368 175.58 134.72 173.986 133.279 173.914C132.379 173.861 131.479 173.843 130.579 173.878L130.525 173.807V179.896C130.525 179.896 130.669 179.824 130.741 179.824C131.767 179.878 132.793 179.86 133.802 179.771L133.784 179.735ZM131.263 174.398C131.857 174.416 132.505 174.344 133.099 174.452C133.532 174.523 134.018 174.738 134.09 175.222C134.36 176.833 132.253 176.529 131.245 176.547V174.398H131.263ZM131.263 177.12H133.406C133.406 177.12 133.766 177.21 133.856 177.245C134.972 177.693 134.558 179.233 133.406 179.233H131.263V177.12Z" fill="#AF9A75"/>
<path d="M133.207 179.878C134.18 179.824 135.206 179.52 135.278 178.392C135.314 177.783 135.17 177.317 134.648 176.977C134.54 176.905 134.18 176.78 134.162 176.762C134.108 176.708 134.288 176.654 134.324 176.619C134.846 176.171 135.008 175.58 134.828 174.917C134.36 173.341 131.749 173.914 130.525 173.807L130.579 173.879C131.479 173.843 132.379 173.861 133.279 173.914C134.72 173.986 135.386 175.598 134.27 176.565C134.144 176.619 134 176.708 134.126 176.833C135.764 177.299 135.458 179.591 133.784 179.735C132.775 179.824 131.749 179.842 130.723 179.788C130.651 179.788 130.579 179.824 130.507 179.86C131.389 179.824 132.307 179.914 133.189 179.86L133.207 179.878Z" fill="#AF9A75"/>
<path d="M153.464 168.703V168.667H152.924V168.703C153.104 168.667 153.284 168.667 153.464 168.703Z" fill="#AF9A75"/>
<path d="M152.924 168.703C153.104 168.703 153.284 168.703 153.464 168.703C153.284 168.667 153.104 168.667 152.924 168.703Z" fill="#AF9A75"/>
<path d="M181.589 184.964V185H182.057V184.964C181.913 185 181.751 185 181.589 184.964Z" fill="#AF9A75"/>
<path d="M181.589 184.964C181.751 185 181.913 185 182.057 184.964C181.895 184.964 181.751 184.964 181.589 184.964Z" fill="#AF9A75"/>
<path d="M194.536 184.964V185H194.968V184.964C194.824 185 194.68 185 194.536 184.964Z" fill="#AF9A75"/>
<path d="M194.536 184.964C194.68 185 194.824 185 194.968 184.964C194.824 184.964 194.68 184.964 194.536 184.964Z" fill="#AF9A75"/>
<path d="M152.924 168.703C152.924 168.703 152.888 168.685 152.924 168.667H152.564V168.703C152.672 168.667 152.816 168.667 152.924 168.703Z" fill="#AF9A75"/>
<path d="M152.564 168.703C152.69 168.703 152.798 168.703 152.924 168.703C152.816 168.667 152.672 168.667 152.564 168.703Z" fill="#AF9A75"/>
<path d="M152.925 168.705V168.667C152.925 168.667 152.887 168.686 152.925 168.705Z" fill="#AF9A75"/>
<path d="M152.996 185H153.356C153.23 185 153.122 184.982 152.996 184.964V185Z" fill="#AF9A75"/>
<path d="M152.996 184.964C153.122 184.964 153.23 184.982 153.356 185C153.266 184.928 153.104 184.964 152.996 184.964Z" fill="#AF9A75"/>
<path d="M153.716 185H154.04V184.964C153.932 184.964 153.824 184.982 153.716 185Z" fill="#AF9A75"/>
<path d="M153.716 185C153.824 185 153.932 184.982 154.04 184.964C153.932 184.964 153.788 184.928 153.716 185Z" fill="#AF9A75"/>
<path d="M183.066 168.667H182.742V168.703C182.85 168.703 182.958 168.685 183.066 168.667Z" fill="#AF9A75"/>
<path d="M182.994 168.721L183.084 168.685C182.976 168.685 182.868 168.703 182.76 168.721C182.832 168.721 182.922 168.721 182.994 168.721Z" fill="#AF9A75"/>
<path d="M183.714 168.667H183.39C183.498 168.667 183.606 168.685 183.714 168.703V168.667Z" fill="#AF9A75"/>
<path d="M183.714 168.703C183.606 168.703 183.498 168.685 183.39 168.667C183.462 168.739 183.606 168.703 183.714 168.703Z" fill="#AF9A75"/>
<path d="M196.912 168.703V168.667H196.588V168.703C196.696 168.667 196.804 168.667 196.912 168.703Z" fill="#AF9A75"/>
<path d="M196.588 168.703C196.696 168.703 196.804 168.703 196.912 168.703C196.804 168.667 196.696 168.667 196.588 168.703Z" fill="#AF9A75"/>
<path d="M196.588 168.667H196.3C196.39 168.667 196.498 168.685 196.588 168.703C196.552 168.703 196.552 168.685 196.588 168.667Z" fill="#AF9A75"/>
<path d="M196.588 168.703C196.498 168.703 196.39 168.685 196.3 168.667C196.354 168.739 196.498 168.703 196.588 168.703Z" fill="#AF9A75"/>
<path d="M196.589 168.705V168.667C196.589 168.667 196.551 168.686 196.589 168.705Z" fill="#AF9A75"/>
<path d="M153.464 168.703C153.554 168.667 153.662 168.667 153.752 168.703V168.667H153.464C153.464 168.667 153.5 168.685 153.464 168.703Z" fill="#AF9A75"/>
<path d="M153.464 168.703C153.554 168.703 153.662 168.703 153.752 168.703C153.662 168.667 153.554 168.667 153.464 168.703Z" fill="#AF9A75"/>
<path d="M153.464 168.667V168.705C153.464 168.705 153.503 168.686 153.464 168.667Z" fill="#AF9A75"/>
<path d="M183.714 168.703C183.804 168.685 183.912 168.685 184.002 168.703V168.667H183.714C183.714 168.667 183.75 168.685 183.714 168.703Z" fill="#AF9A75"/>
<path d="M183.714 168.703C183.804 168.703 183.912 168.703 184.002 168.703C183.912 168.685 183.804 168.685 183.714 168.703Z" fill="#AF9A75"/>
<path d="M183.714 168.667V168.705C183.714 168.705 183.752 168.686 183.714 168.667Z" fill="#AF9A75"/>
<path d="M184.002 168.703C184.002 168.703 184.182 168.667 184.254 168.703C184.218 168.703 184.218 168.685 184.254 168.667H184.002C184.002 168.667 184.038 168.685 184.002 168.703Z" fill="#AF9A75"/>
<path d="M184.255 168.705V168.667C184.255 168.667 184.217 168.686 184.255 168.705Z" fill="#AF9A75"/>
<path d="M184.002 168.703C184.002 168.703 184.164 168.703 184.254 168.703C184.182 168.667 184.074 168.667 184.002 168.703Z" fill="#AF9A75"/>
<path d="M184.002 168.667V168.705C184.002 168.705 184.04 168.686 184.002 168.667Z" fill="#AF9A75"/>
<path d="M152.6 184.964C152.6 184.964 152.636 184.982 152.6 185H152.852V184.964C152.852 184.964 152.672 185 152.6 184.964Z" fill="#AF9A75"/>
<path d="M152.6 184.964V185.002C152.6 185.002 152.638 184.983 152.6 184.964Z" fill="#AF9A75"/>
<path d="M152.852 184.964C152.852 184.964 152.69 184.964 152.6 184.964C152.672 185 152.78 185 152.852 184.964Z" fill="#AF9A75"/>
<path d="M152.312 168.703C152.312 168.703 152.492 168.667 152.564 168.703C152.528 168.703 152.528 168.685 152.564 168.667H152.312C152.312 168.667 152.348 168.685 152.312 168.703Z" fill="#AF9A75"/>
<path d="M152.312 168.667V168.705C152.312 168.705 152.35 168.686 152.312 168.667Z" fill="#AF9A75"/>
<path d="M152.312 168.703C152.312 168.703 152.474 168.703 152.564 168.703C152.492 168.667 152.384 168.667 152.312 168.703Z" fill="#AF9A75"/>
<path d="M152.565 168.705V168.667C152.565 168.667 152.526 168.686 152.565 168.705Z" fill="#AF9A75"/>
<path d="M181.121 184.964C181.121 184.964 181.157 184.982 181.121 185H181.373V184.964C181.373 184.964 181.193 185 181.121 184.964Z" fill="#AF9A75"/>
<path d="M181.121 184.964V185.002C181.121 185.002 181.159 184.983 181.121 184.964Z" fill="#AF9A75"/>
<path d="M181.121 184.964C181.121 184.964 181.301 185 181.373 184.964C181.283 184.964 181.211 184.964 181.121 184.964Z" fill="#AF9A75"/>
<path d="M196.912 168.703C196.912 168.703 197.092 168.667 197.164 168.703C197.128 168.703 197.128 168.685 197.164 168.667H196.912C196.912 168.667 196.948 168.685 196.912 168.703Z" fill="#AF9A75"/>
<path d="M197.165 168.705V168.667C197.165 168.667 197.127 168.686 197.165 168.705Z" fill="#AF9A75"/>
<path d="M196.912 168.703C196.912 168.703 197.074 168.703 197.164 168.703C197.092 168.667 196.984 168.667 196.912 168.703Z" fill="#AF9A75"/>
<path d="M196.912 168.667V168.705C196.912 168.705 196.951 168.686 196.912 168.667Z" fill="#AF9A75"/>
<path d="M194.031 184.964C194.031 184.964 194.067 184.982 194.031 185H194.283V184.964C194.283 184.964 194.103 185 194.031 184.964Z" fill="#AF9A75"/>
<path d="M194.031 184.964V185.002C194.031 185.002 194.07 184.983 194.031 184.964Z" fill="#AF9A75"/>
<path d="M194.031 184.964C194.031 184.964 194.211 185 194.283 184.964C194.193 184.964 194.121 184.964 194.031 184.964Z" fill="#AF9A75"/>
<path d="M194.535 184.964C194.535 184.964 194.355 185 194.283 184.964C194.319 184.964 194.319 184.982 194.283 185H194.535C194.535 185 194.499 184.982 194.535 184.964Z" fill="#AF9A75"/>
<path d="M194.283 184.964C194.283 184.964 194.463 185 194.535 184.964C194.445 184.964 194.373 184.964 194.283 184.964Z" fill="#AF9A75"/>
<path d="M194.537 185.002V184.964C194.537 184.964 194.498 184.983 194.537 185.002Z" fill="#AF9A75"/>
<path d="M194.283 184.964V185.002C194.283 185.002 194.322 184.983 194.283 184.964Z" fill="#AF9A75"/>
<path d="M195.868 168.703V168.667H195.652V168.703C195.652 168.703 195.814 168.667 195.868 168.703Z" fill="#AF9A75"/>
<path d="M195.868 168.703C195.868 168.703 195.706 168.667 195.652 168.703C195.724 168.703 195.796 168.703 195.868 168.703Z" fill="#AF9A75"/>
<path d="M153.752 168.703C153.752 168.703 153.896 168.667 153.95 168.703C153.932 168.703 153.95 168.685 153.95 168.667H153.734C153.734 168.667 153.77 168.685 153.734 168.703H153.752Z" fill="#AF9A75"/>
<path d="M153.951 168.705V168.667C153.951 168.667 153.913 168.686 153.951 168.705Z" fill="#AF9A75"/>
<path d="M153.752 168.703C153.752 168.703 153.896 168.703 153.968 168.703C153.896 168.685 153.824 168.685 153.77 168.703H153.752Z" fill="#AF9A75"/>
<path d="M153.752 168.667V168.705C153.752 168.705 153.791 168.686 153.752 168.667Z" fill="#AF9A75"/>
<path d="M181.589 184.964C181.589 184.964 181.445 185 181.373 184.964C181.409 184.964 181.409 184.982 181.373 185H181.589C181.589 185 181.553 184.982 181.589 184.964Z" fill="#AF9A75"/>
<path d="M181.373 184.964C181.373 184.964 181.517 185 181.589 184.964C181.517 184.964 181.445 184.964 181.373 184.964Z" fill="#AF9A75"/>
<path d="M181.59 185.002V184.964C181.59 184.964 181.552 184.983 181.59 185.002Z" fill="#AF9A75"/>
<path d="M181.373 184.964V185.002C181.373 185.002 181.412 184.983 181.373 184.964Z" fill="#AF9A75"/>
<path d="M182.237 184.964V185H182.454V184.964C182.454 184.964 182.31 185 182.237 184.964Z" fill="#AF9A75"/>
<path d="M182.237 184.964C182.237 184.964 182.382 185 182.454 184.964C182.382 184.964 182.31 184.964 182.237 184.964Z" fill="#AF9A75"/>
<path d="M195.148 184.964V185H195.364V184.964C195.364 184.964 195.22 185 195.148 184.964Z" fill="#AF9A75"/>
<path d="M195.148 184.964C195.148 184.964 195.292 185 195.364 184.964C195.292 184.964 195.22 184.964 195.148 184.964Z" fill="#AF9A75"/>
<path d="M154.364 184.964C154.364 184.964 154.238 185 154.184 184.964V185H154.364C154.364 185 154.328 184.982 154.364 184.964Z" fill="#AF9A75"/>
<path d="M154.365 185.002V184.964C154.365 184.964 154.327 184.983 154.365 185.002Z" fill="#AF9A75"/>
<path d="M154.184 184.964C154.184 184.964 154.31 185 154.364 184.964C154.31 184.964 154.238 184.964 154.184 184.964Z" fill="#AF9A75"/>
<path d="M182.237 184.964C182.237 184.964 182.129 185 182.075 184.964C182.075 184.964 182.075 184.982 182.075 185H182.255C182.255 185 182.219 184.982 182.255 184.964H182.237Z" fill="#AF9A75"/>
<path d="M182.057 184.964C182.111 184.982 182.165 184.982 182.219 184.964C182.165 184.964 182.093 184.964 182.039 184.964H182.057Z" fill="#AF9A75"/>
<path d="M182.075 184.964V185.002C182.075 185.002 182.114 184.983 182.075 184.964Z" fill="#AF9A75"/>
<path d="M182.239 185.002V184.964C182.239 184.964 182.2 184.983 182.239 185.002Z" fill="#AF9A75"/>
<path d="M195.544 184.964C195.544 184.964 195.436 185 195.382 184.964C195.382 184.964 195.382 184.964 195.364 185H195.544C195.544 185 195.508 184.982 195.544 184.964Z" fill="#AF9A75"/>
<path d="M195.545 185.002V184.964C195.545 184.964 195.506 184.983 195.545 185.002Z" fill="#AF9A75"/>
<path d="M195.364 184.964C195.364 184.964 195.364 184.964 195.382 184.964C195.436 184.982 195.508 184.982 195.544 184.964C195.49 184.964 195.418 184.964 195.364 184.964Z" fill="#AF9A75"/>
<path d="M195.383 184.964C195.383 184.964 195.383 184.964 195.364 184.964V185.002C195.364 185.002 195.402 184.983 195.383 184.964Z" fill="#AF9A75"/>
<path d="M195.868 168.703C195.868 168.703 195.976 168.667 196.048 168.667H195.868C195.868 168.667 195.904 168.685 195.868 168.703Z" fill="#AF9A75"/>
<path d="M196.048 168.667C196.048 168.667 195.922 168.667 195.868 168.703L196.048 168.667Z" fill="#AF9A75"/>
<path d="M195.868 168.667V168.705C195.868 168.705 195.906 168.686 195.868 168.667Z" fill="#AF9A75"/>
<path d="M195.148 184.964C195.148 184.964 195.04 185 194.986 184.964C194.986 184.964 194.986 184.982 194.986 185H195.166C195.166 185 195.13 184.982 195.166 184.964H195.148Z" fill="#AF9A75"/>
<path d="M194.968 184.964C195.022 184.982 195.076 184.982 195.13 184.964C195.076 184.964 195.004 184.964 194.95 184.964H194.968Z" fill="#AF9A75"/>
<path d="M194.968 184.964V185.002C194.968 185.002 195.006 184.983 194.968 184.964Z" fill="#AF9A75"/>
<path d="M195.149 185.002V184.964C195.149 184.964 195.11 184.983 195.149 185.002Z" fill="#AF9A75"/>
<path d="M195.508 168.703C195.508 168.703 195.58 168.703 195.616 168.703C195.616 168.703 195.616 168.703 195.634 168.685H195.49C195.49 168.685 195.526 168.685 195.49 168.721L195.508 168.703Z" fill="#AF9A75"/>
<path d="M195.634 168.705C195.634 168.705 195.634 168.705 195.653 168.705V168.667C195.653 168.667 195.615 168.686 195.634 168.686V168.705Z" fill="#AF9A75"/>
<path d="M152.978 184.964C152.978 184.964 152.906 184.982 152.87 184.964C152.87 184.964 152.87 184.964 152.852 184.982H152.996C152.996 184.982 152.96 184.964 152.996 184.946L152.978 184.964Z" fill="#AF9A75"/>
<path d="M152.871 184.964C152.871 184.964 152.871 184.964 152.852 184.964V185.002C152.852 185.002 152.89 185.002 152.871 184.983V184.964Z" fill="#AF9A75"/>
<path d="M182.616 168.703C182.616 168.703 182.688 168.703 182.724 168.703C182.724 168.703 182.724 168.703 182.742 168.685H182.598C182.598 168.685 182.634 168.685 182.616 168.703Z" fill="#AF9A75"/>
<path d="M182.617 168.704C182.617 168.704 182.617 168.704 182.598 168.685V168.723C182.598 168.723 182.598 168.723 182.617 168.723V168.704Z" fill="#AF9A75"/>
<path d="M182.724 168.705C182.724 168.705 182.724 168.705 182.743 168.705V168.667C182.743 168.667 182.705 168.667 182.724 168.686V168.705Z" fill="#AF9A75"/>
<path d="M154.166 184.964C154.166 184.964 154.094 184.964 154.058 184.964C154.058 184.964 154.058 184.964 154.04 184.982H154.184C154.184 184.982 154.148 184.982 154.184 184.964H154.166Z" fill="#AF9A75"/>
<path d="M154.059 184.964C154.059 184.964 154.059 184.964 154.04 184.964V185.002C154.04 185.002 154.079 185.002 154.059 184.983V184.964Z" fill="#AF9A75"/>
<path d="M182.58 184.964C182.58 184.964 182.508 184.964 182.472 184.964C182.472 184.964 182.472 184.964 182.454 184.982H182.598C182.598 184.982 182.562 184.982 182.598 184.964H182.58Z" fill="#AF9A75"/>
<path d="M182.491 184.964C182.491 184.964 182.491 184.964 182.472 184.964V185.002C182.472 185.002 182.51 185.002 182.491 184.983V184.964Z" fill="#AF9A75"/>
<path d="M243.457 182.152C243.457 182.152 243.475 182.206 243.493 182.242V182.135C243.493 182.135 243.475 182.17 243.457 182.135V182.152Z" fill="#AF9A75"/>
<path d="M243.439 182.135C243.439 182.135 243.439 182.224 243.475 182.242C243.475 182.206 243.457 182.17 243.439 182.152V182.135Z" fill="#AF9A75"/>
<path d="M214.504 181.991C214.252 181.991 214.216 182.457 214.162 182.654C213.73 183.854 211.839 183.657 210.795 183.675C209.804 183.711 208.616 183.782 207.626 183.711C207.554 183.711 207.5 183.693 207.428 183.675V176.923C207.428 176.923 207.518 176.869 207.554 176.869C208.256 176.78 209.246 176.887 209.967 176.905C210.687 176.905 212.091 176.816 212.703 177.12C213.172 177.353 213.046 177.711 213.244 177.854C213.424 178.015 213.586 177.801 213.622 177.621C213.712 177.174 213.892 176.045 213.892 175.634C213.892 175.365 213.766 175.257 213.532 175.419C213.442 175.49 213.406 175.58 213.334 175.634C213.082 175.848 212.073 175.848 211.713 175.866C210.309 175.902 208.904 175.831 207.5 175.866C207.5 175.866 207.446 175.759 207.446 175.741V170.153C207.446 170.153 207.536 170.1 207.572 170.1C208.184 170.028 208.868 170.136 209.48 170.136C210.363 170.136 212.487 169.992 213.172 170.476C213.496 170.709 213.406 170.87 213.568 171.121C213.694 171.335 213.91 171.174 213.964 170.995C214 170.44 214.216 169.759 214.234 169.222C214.252 168.649 213.91 168.954 213.568 169.025C212.865 169.151 212.181 169.061 211.479 169.061C209.426 169.061 207.374 169.061 205.321 169.025C205.087 169.025 204.205 168.971 204.079 169.151C203.845 169.509 204.547 169.58 204.745 169.688C205.069 169.885 205.105 170.243 205.159 170.565C205.177 173.359 205.159 176.153 205.123 178.947C205.123 180.165 205.177 181.436 205.123 182.636C205.105 183.084 205.033 183.925 204.565 184.158C204.403 184.248 204.043 184.194 204.043 184.427C204.043 184.624 204.205 184.678 204.385 184.696L214.432 184.749C214.612 184.696 214.72 184.606 214.738 184.409C214.81 183.943 214.774 182.797 214.738 182.296C214.738 182.152 214.738 181.973 214.54 181.955L214.504 181.991Z" fill="#AF9A75"/>
<path d="M229.035 182.224C229.035 182.009 228.783 181.902 228.657 182.099C228.567 182.224 228.549 182.529 228.477 182.708C227.972 183.943 225.974 183.549 224.911 183.711C223.975 183.621 222.841 183.818 221.922 183.711C221.886 183.711 221.814 183.711 221.796 183.657V169.383C221.796 169.276 221.58 169.061 221.454 169.079C220.572 169.151 219.618 168.971 218.753 169.043C218.591 169.043 218.375 169.097 218.357 169.294C218.321 169.562 218.753 169.58 218.933 169.67C219.294 169.813 219.42 170.064 219.456 170.44C219.582 171.64 219.456 172.894 219.456 174.093C219.456 176.601 219.456 179.108 219.42 181.615C219.42 182.242 219.582 183.943 218.861 184.23C218.699 184.302 218.393 184.23 218.357 184.481C218.321 184.678 218.537 184.731 218.699 184.749C219.564 184.821 220.626 184.749 221.508 184.749C223.579 184.767 225.668 184.785 227.738 184.821C228.008 184.821 228.369 184.839 228.639 184.821C228.873 184.803 229.035 184.731 229.053 184.481C229.125 183.782 228.999 182.958 229.053 182.26L229.035 182.224Z" fill="#AF9A75"/>
<path d="M174.387 182.152C174.333 181.973 174.117 181.938 174.009 182.099C173.919 182.224 173.901 182.529 173.829 182.708C173.325 183.961 171.29 183.549 170.228 183.711C169.291 183.621 168.175 183.818 167.275 183.711C167.239 183.711 167.149 183.711 167.149 183.657V176.869L170.948 176.905C171.506 176.995 172.352 176.851 172.73 177.389C172.802 177.514 172.892 177.854 173.018 177.89C173.253 177.962 173.325 177.675 173.343 177.514C173.451 176.887 173.469 176.225 173.595 175.598C173.451 174.971 173.126 175.634 172.91 175.741C172.676 175.848 171.704 175.866 171.398 175.884C169.993 175.92 168.571 175.848 167.167 175.884V170.118L171.326 170.153C171.83 170.225 172.766 170.243 173.09 170.691C173.181 170.834 173.289 171.479 173.559 171.192C173.793 170.941 173.775 169.562 173.937 169.168C173.901 168.703 173.559 168.989 173.289 169.043C172.586 169.186 171.866 169.097 171.182 169.079C169.201 169.079 167.221 169.097 165.24 169.079C164.898 169.079 164.556 169.025 164.196 169.043C164.016 169.043 163.727 169.079 163.727 169.312C163.727 169.58 164.16 169.58 164.34 169.67C164.7 169.813 164.79 170.118 164.844 170.458C164.916 173.825 164.898 177.21 164.844 180.594C164.844 181.436 164.988 183.406 164.484 184.033C164.25 184.319 164.016 184.194 163.835 184.319C163.565 184.499 163.817 184.713 164.07 184.731C164.952 184.821 166.05 184.731 166.95 184.731C169.021 184.749 171.11 184.767 173.181 184.803C173.559 184.803 174.369 184.946 174.423 184.463C174.495 183.746 174.369 182.905 174.423 182.17L174.387 182.152Z" fill="#AF9A75"/>
<path d="M138.033 176.869L136.25 173.789H135.386L137.655 177.604V179.878H138.375V177.639L140.644 173.789H139.834L138.033 176.869Z" fill="#AF9A75"/>
<path d="M70.493 75.4865L69.9528 74.9492V74.2328L70.493 73.6955C70.385 73.6955 70.9431 73.2836 70.9431 71.9584V41.2086C70.9431 39.8833 70.349 39.4893 70.349 39.4893L69.9708 38.9879V38.2715L70.511 37.7343H77.0291C86.6623 37.7343 92.6402 44.8441 92.6402 56.3059C92.6402 67.7677 86.5182 75.5044 77.0291 75.5044H70.511L70.493 75.4865ZM77.0471 73.1045C83.9254 73.1045 88.3728 66.4603 88.3728 56.1985C88.3728 45.9366 84.1415 40.0983 77.0471 40.0983H75.1565V73.1045H77.0471Z" fill="#F8F5EF"/>
<path d="M70.493 74.9492V74.2328C70.637 74.2328 71.4653 73.6597 71.4653 71.9584V41.2086C71.4653 39.561 70.637 38.9879 70.493 38.9879V38.2715H77.0111C86.3381 38.2715 92.082 45.1307 92.082 56.3059C92.082 67.4811 86.1581 74.9671 77.0111 74.9671H70.493V74.9492ZM77.0471 73.6418C84.2315 73.6418 88.913 66.8722 88.913 56.1984C88.913 45.5247 84.1954 39.561 77.0471 39.561H74.6163V73.6418H77.0471Z" fill="#F8F5EF"/>
<path d="M115.544 76.3461C110.61 76.3461 104.848 73.4985 104.848 65.4574V42.5518C104.848 40.3132 104.218 39.5073 103.696 39.5073L103.156 38.97V38.2536L103.696 37.7164H110.25L110.79 38.2536V38.97L110.25 39.5073C109.71 39.5073 109.098 40.3132 109.098 42.5876V65.4932C109.098 73.3015 114.085 74.1433 116.228 74.1433C120.657 74.1433 123.52 70.8838 123.52 65.8335V42.4802C123.52 40.2773 122.89 39.4893 122.368 39.4893L121.828 38.9879L121.774 38.2715L122.314 37.6984H127.031L127.572 38.2357V38.9521L127.031 39.4893C126.491 39.4893 125.879 40.2773 125.879 42.4802V66.0305C125.879 73.1404 120.693 76.3282 115.562 76.3282L115.544 76.3461Z" fill="#F8F5EF"/>
<path d="M110.232 38.97C109.458 38.97 108.539 39.7401 108.539 42.5876V65.4932C108.539 72.8001 112.825 74.6805 116.21 74.6805C120.531 74.6805 124.042 71.6897 124.042 65.8335V42.4801C124.042 39.7222 123.124 38.9521 122.35 38.9521L122.296 38.2357H127.013V38.9521C126.239 38.9521 125.321 39.7222 125.321 42.4801V66.0305C125.321 72.5135 120.747 75.7909 115.544 75.7909C110.826 75.7909 105.388 73.0866 105.388 65.4395V42.5339C105.388 39.7222 104.47 38.9521 103.696 38.9521V38.2357H110.25V38.9521L110.232 38.97Z" fill="#F8F5EF"/>
<path d="M167.689 84.2798C165.978 82.2202 163.385 81.3964 160.882 80.6084C157.839 79.6413 154.941 78.728 154.166 75.6655C144.695 75.1283 138.123 67.3916 138.123 56.682C138.123 45.9724 145.163 37.6805 155.229 37.6805C165.294 37.6805 172.298 45.4889 172.298 56.682C172.298 67.8751 166.05 74.9313 156.687 75.6476C157.281 77.0266 158.596 77.1878 160.846 77.349C163.097 77.5102 165.888 77.7072 168.463 79.9279L168.643 80.3398V83.9574L167.689 84.2977V84.2798ZM153.536 40.2953C152.222 40.2953 150.835 40.5639 149.395 41.0833C142.12 43.8233 139.708 51.6854 143.255 61.1234C146.064 68.6273 151.195 73.1045 156.939 73.1045C158.254 73.1045 159.64 72.8359 161.081 72.3166C168.373 69.5765 170.768 61.6965 167.167 52.2226C164.34 44.7546 159.244 40.2953 153.536 40.2953Z" fill="#F8F5EF"/>
<path d="M155.229 38.1999C165.726 38.1999 171.758 46.6171 171.758 56.6641C171.758 66.711 166.014 74.7522 155.967 75.1283C157.083 79.8204 163.061 75.9521 168.121 80.304V83.9216C164.088 79.0862 155.625 80.7338 154.616 75.1283C144.515 74.788 138.681 66.5678 138.681 56.6641C138.681 46.7604 144.749 38.1999 155.247 38.1999H155.229ZM156.939 73.6418C158.344 73.6418 159.802 73.3553 161.261 72.818C168.607 70.06 171.47 62.0368 167.671 52.0257C164.664 44.0561 159.316 39.7401 153.536 39.7401C152.132 39.7401 150.673 40.0266 149.215 40.5639C141.868 43.3219 139.005 51.3451 142.751 61.3025C145.758 69.3258 151.159 73.6239 156.939 73.6239V73.6418Z" fill="#F8F5EF"/>
<path d="M195.22 76.3461C190.286 76.3461 184.524 73.4985 184.524 65.4574V42.5518C184.524 40.3132 183.894 39.5073 183.372 39.5073L182.832 38.97V38.2536L183.372 37.7164H189.926L190.466 38.2536V38.97L189.926 39.5073C189.386 39.5073 188.774 40.3132 188.774 42.5876V65.4932C188.774 73.3015 193.761 74.1433 195.904 74.1433C200.333 74.1433 203.196 70.8838 203.196 65.8335V42.4802C203.196 40.2773 202.566 39.4893 202.044 39.4893L201.504 38.9879L201.45 38.2715L201.99 37.6984H206.707L207.248 38.2357V38.9521L206.707 39.4893C206.167 39.4893 205.555 40.2773 205.555 42.4802V66.0305C205.555 73.1404 200.369 76.3282 195.238 76.3282L195.22 76.3461Z" fill="#F8F5EF"/>
<path d="M189.926 38.97C189.152 38.97 188.233 39.7401 188.233 42.5876V65.4932C188.233 72.8001 192.519 74.6805 195.904 74.6805C200.225 74.6805 203.736 71.6897 203.736 65.8335V42.4801C203.736 39.7222 202.818 38.9521 202.044 38.9521L201.99 38.2357H206.707V38.9521C205.933 38.9521 205.015 39.7222 205.015 42.4801V66.0305C205.015 72.5135 200.441 75.7909 195.238 75.7909C190.52 75.7909 185.082 73.0866 185.082 65.4395V42.5339C185.082 39.7222 184.164 38.9521 183.39 38.9521V38.2357H189.944V38.9521L189.926 38.97Z" fill="#F8F5EF"/>
<path d="M218.195 75.4864L217.655 74.9492V74.2328L218.195 73.6955C218.915 73.6955 219.348 72.7285 219.348 71.0987V42.1399C219.348 40.5102 218.915 39.5431 218.195 39.5431L217.655 39.0058V38.2894L218.195 37.7522H236.327L236.867 38.2894V46.3127L236.327 46.8499H235.589L235.049 46.3664C234.761 43.5189 233.536 40.1341 229.323 40.1341H223.597V54.1568H230.151C232.51 54.1568 233.014 50.4497 233.014 49.5184L233.554 48.9811H234.292L234.833 49.5184V61.1592L234.292 61.6965H233.554L233.014 61.1592C233.014 59.9773 232.312 56.5208 230.151 56.5208H223.597V73.1404H229.323C232.618 73.1404 234.653 70.9197 235.049 66.908L235.589 66.4245H236.327L236.867 66.9618V74.985L236.327 75.5223H218.195V75.4864Z" fill="#F8F5EF"/>
<path d="M223.057 52.4197V39.561H229.323C232.924 39.561 235.157 41.925 235.589 46.2769H236.327V38.2536H218.195V38.97C218.969 38.97 219.888 39.6505 219.888 42.1041V71.0629C219.888 73.5344 218.969 74.197 218.195 74.197V74.9134H236.327V66.8901H235.589C235.157 71.1883 232.924 73.606 229.323 73.606H223.057V55.9119H230.151C232.78 55.9119 233.554 59.7803 233.554 61.0876H234.292V49.4288H233.554C233.554 50.8258 232.834 54.6045 230.151 54.6045H223.057V52.3838V52.4197Z" fill="#F8F5EF"/>
<path d="M258.15 75.4865L257.61 74.9492V74.2328L258.15 73.6955C258.042 73.6955 258.6 73.2836 258.6 71.9584V41.2086C258.6 39.8833 258.006 39.4893 258.006 39.4893L257.628 38.9879V38.2715L258.168 37.7343H264.686C274.319 37.7343 280.297 44.8441 280.297 56.3059C280.297 67.7677 274.175 75.5044 264.686 75.5044H258.168L258.15 75.4865ZM264.722 73.1045C271.601 73.1045 276.048 66.4603 276.048 56.1985C276.048 45.9366 271.817 40.0983 264.722 40.0983H262.832V73.1045H264.722Z" fill="#F8F5EF"/>
<path d="M258.15 74.9492V74.2328C258.294 74.2328 259.123 73.6597 259.123 71.9584V41.2086C259.123 39.561 258.294 38.9879 258.15 38.9879V38.2715H264.668C273.995 38.2715 279.739 45.1307 279.739 56.3059C279.739 67.4811 273.815 74.9671 264.668 74.9671H258.15V74.9492ZM264.722 73.6418C271.925 73.6418 276.588 66.8722 276.588 56.1984C276.588 45.5247 271.871 39.561 264.722 39.561H262.292V73.6418H264.722Z" fill="#F8F5EF"/>
<path d="M285.375 75.4864L284.835 74.9492V74.2328L285.375 73.6955C286.095 73.6955 286.527 72.7285 286.527 71.0987V42.1399C286.527 40.5102 286.095 39.5431 285.375 39.5431L284.835 39.0058V38.2894L285.375 37.7522H303.507L304.047 38.2894V46.3127L303.507 46.8499H302.769L302.229 46.3664C301.94 43.5189 300.716 40.1341 296.503 40.1341H290.777V54.1568H297.331C299.69 54.1568 300.194 50.4497 300.194 49.5184L300.734 48.9811H301.472L302.012 49.5184V61.1592L301.472 61.6965H300.734L300.194 61.1592C300.194 59.9773 299.492 56.5208 297.331 56.5208H290.777V73.1404H296.503C299.798 73.1404 301.832 70.9197 302.229 66.908L302.769 66.4245H303.507L304.047 66.9618V74.985L303.507 75.5223H285.375V75.4864Z" fill="#F8F5EF"/>
<path d="M290.237 52.4197V39.561H296.503C300.104 39.561 302.337 41.925 302.769 46.2769H303.507V38.2536H285.375V38.97C286.149 38.97 287.068 39.6505 287.068 42.1041V71.0629C287.068 73.5344 286.149 74.197 285.375 74.197V74.9134H303.507V66.8901H302.769C302.337 71.1883 300.104 73.606 296.503 73.606H290.237V55.9119H297.331C299.96 55.9119 300.734 59.7803 300.734 61.0876H301.472V49.4288H300.734C300.734 50.8258 300.014 54.6045 297.331 54.6045H290.237V52.3838V52.4197Z" fill="#F8F5EF"/>
<path d="M20.5087 151.259C26.9008 151.259 30.8801 146.961 31.6543 139.314H32.9507V153.57H0.73822V152.28C2.12467 152.28 3.76321 151.08 3.76321 146.693V95.2222C3.76321 90.8345 2.12467 89.6346 0.73822 89.6346V88.3451H32.9507V102.601H31.6543C30.8801 94.864 26.9008 90.6554 20.5087 90.6554H9.36303V111.107H21.9671C26.7207 111.107 28.0171 104.409 28.0171 101.92H29.3135V122.623H28.0171C28.0171 120.295 26.6307 113.436 21.9671 113.436H9.36303V151.242H20.5087V151.259Z" fill="#F8F5EF"/>
<path d="M35.5436 153.588V152.298C35.7957 152.298 37.2721 151.259 37.2721 148.269V93.6283C37.2721 90.7091 35.7957 89.6704 35.5436 89.6704V88.3809H47.1214C63.7048 88.3809 73.8961 100.577 73.8961 120.42C73.8961 140.263 63.3627 153.588 47.1214 153.588H35.5436ZM47.2114 151.259C59.9956 151.259 68.2963 139.225 68.2963 120.241C68.2963 101.257 59.9235 90.6912 47.2114 90.6912H42.89V151.259H47.2114Z" fill="#F8F5EF"/>
<path d="M77.3532 152.298C78.7397 152.298 80.3782 151.098 80.3782 146.621V95.3296C80.3782 90.8703 78.7397 89.6525 77.3532 89.6525V88.363H89.021V89.6525C87.6346 89.6525 85.996 90.8524 85.996 95.3296V146.621C85.996 151.08 87.6346 152.298 89.021 152.298V153.588H77.3532V152.298Z" fill="#F8F5EF"/>
<path d="M95.4851 95.2401C95.4851 90.8524 93.8466 89.6525 92.4601 89.6525V88.363H101.445L116.048 141.284L130.471 88.363H139.113V89.6525C137.727 89.6525 136.088 90.8524 136.088 95.2401V146.621C136.088 151.08 137.727 152.298 139.113 152.298V153.588H127.446V152.298C128.832 152.298 130.471 151.098 130.471 146.621V97.1384L115.094 152.818H113.707L97.7179 96.0281V146.639C97.7179 151.098 99.3564 152.316 100.743 152.316V153.606H92.4421V152.316C93.8286 152.316 95.4671 151.116 95.4671 146.639V95.258L95.4851 95.2401Z" fill="#F8F5EF"/>
<path d="M142.552 153.158C142.895 153.158 144.371 151.868 144.371 147.66V94.3088C144.371 90.0106 142.895 88.8107 142.552 88.8107V88.3809H156.813C164.754 88.3809 172.532 91.3896 172.532 97.0668C172.532 101.526 167.689 103.174 160.18 107.812C168.985 107.132 177.88 116.229 177.88 130.413C177.88 147.248 165.348 153.605 153.608 153.605H142.552V153.176V153.158ZM153.968 151.259C162.863 151.259 172.19 144.991 172.19 130.897C172.19 120.241 166.842 110.445 158.974 110.445C157.335 110.445 155.607 110.785 153.788 111.734V110.964C161.297 102.636 166.824 102.368 166.824 97.2101C166.824 92.4821 162.323 90.6733 156.291 90.6733H149.989V151.242H153.968V151.259Z" fill="#F8F5EF"/>
<path d="M193.005 89.6704C191.619 89.6704 189.98 91.0494 189.98 96.1176V136.843C189.98 149.809 197.578 153.176 203.628 153.176C211.317 153.176 217.529 147.857 217.529 137.452V95.9564C217.529 91.0673 215.89 89.6883 214.504 89.6883L214.414 88.3988H222.787V89.6883C221.4 89.6883 219.762 91.0673 219.762 95.9564V137.792C219.762 149.307 211.641 155.146 202.404 155.146C194.031 155.146 184.344 150.328 184.344 136.753V96.0281C184.344 91.0494 182.706 89.6704 181.319 89.6704V88.3809H192.987V89.6704H193.005Z" fill="#F8F5EF"/>
<path d="M226.244 153.588V153.158C226.586 153.158 228.062 151.868 228.062 147.66V94.3088C228.062 90.0106 226.586 88.8107 226.244 88.8107V88.3809H240.937C249.057 88.3809 257.088 94.7386 257.088 104.356C257.088 112.433 251.47 117.591 242.395 118.88L253.451 139.762C263.984 159.695 277.903 163.294 285.591 163.294C288.706 163.294 290.777 162.685 291.209 162.345V164.064C290.687 164.405 288.364 164.924 284.997 164.924C276.102 164.924 260.023 161.575 250.012 143.702L236.273 119.22H233.68V147.66C233.68 151.868 235.157 153.158 235.499 153.158V153.588H226.262H226.244ZM233.68 116.892H237.732C246.969 116.892 251.38 113.113 251.38 104.427C251.38 95.7415 246.626 90.6733 240.324 90.6733H233.68V116.874V116.892Z" fill="#F8F5EF"/>
<path d="M304.173 124.199C304.173 119.74 302.535 118.522 301.148 118.522V117.232H311.862V118.522C310.475 118.522 308.837 119.722 308.837 124.199V141.123C306.514 146.711 300.896 154.519 288.544 154.519C272.213 154.519 261.859 140.765 261.859 120.922C261.859 101.078 272.321 87.4138 288.112 87.4138C296.323 87.4138 301.76 91.1926 304.011 91.1926C304.605 91.1926 304.965 90.9419 305.128 90.333H306.514V107.866H305.218C303.831 100.219 300.374 89.6525 287.86 89.6525C273.959 89.6525 267.387 102.798 267.387 117.752C267.387 136.825 276.804 150.651 290.453 150.651C296.233 150.651 304.191 148.161 304.191 143.003V124.181L304.173 124.199Z" fill="#F8F5EF"/>
<path d="M343.894 88.1123C362.548 88.1123 373.262 103.066 373.262 120.939C373.262 138.813 362.548 153.767 343.894 153.767C325.24 153.767 314.437 138.902 314.437 120.939C314.437 102.977 325.24 88.1123 343.894 88.1123ZM346.919 151.098C349.422 151.098 352.015 150.579 354.608 149.63C367.644 144.741 372.758 130.467 366.005 112.683C360.658 98.4995 351.15 90.8703 340.869 90.8703C338.366 90.8703 335.773 91.3896 333.181 92.3388C320.144 97.228 315.049 111.501 321.693 129.196C327.041 143.451 336.638 151.098 346.919 151.098Z" fill="#F8F5EF"/>
<path d="M374 177.46H251.398V179.574H374V177.46Z" fill="#F8F5EF"/>
<path d="M121.396 177.46H0V179.574H121.396V177.46Z" fill="#F8F5EF"/>
<path d="M374 55.4821H313.266V57.5953H374V55.4821Z" fill="#F8F5EF"/>
<path d="M60.7338 55.4821H0V57.5953H60.7338V55.4821Z" fill="#F8F5EF"/>
<path d="M150.871 24.6965L150.799 24.5891V24.0518C150.763 24.0518 150.799 23.7832 150.439 23.2638L144.299 14.1302C143.939 13.5929 143.633 13.575 143.597 13.575L143.237 13.4676L143.417 13.181L143.093 13.2348L143.165 12.8049C144.551 11.8737 145.253 11.4259 146.694 10.5663C147.612 10.0111 148.656 9.72459 149.647 9.72459C150.979 9.72459 152.024 10.2798 152.528 11.2289C153.41 12.9124 152.276 14.9003 149.431 16.6554C149.161 16.8166 148.999 16.924 148.783 17.0673L152.078 22.2072C152.456 22.7982 152.744 22.834 152.762 22.834L153.068 22.9593L153.212 23.1922L153.122 23.6041C152.402 24.0518 152.042 24.2846 151.339 24.7682L150.907 24.6965H150.871ZM148.152 16.1539L148.801 15.742C150.781 14.5242 151.303 13.5213 150.619 12.2677C150.205 11.5155 149.557 11.1036 148.746 11.1036C148.224 11.1036 147.648 11.2827 147.09 11.6229C146.55 11.9453 146.244 12.1423 145.758 12.4468L148.134 16.1539H148.152Z" fill="#AF9A75"/>
<path d="M148.314 16.9777C149.701 19.1268 150.385 20.2193 151.771 22.3683C152.258 23.1205 152.69 23.1743 152.762 23.1205C152.816 23.2101 152.852 23.2638 152.906 23.3533C152.186 23.8011 151.826 24.0339 151.123 24.5174C151.069 24.4279 151.033 24.3742 150.961 24.2846C151.033 24.2309 151.159 23.819 150.673 23.1026C148.206 19.4492 146.982 17.6225 144.533 13.969C144.029 13.2348 143.543 13.2527 143.471 13.3064C143.417 13.2168 143.381 13.1631 143.309 13.0736C144.695 12.1423 145.397 11.6946 146.82 10.8349C148.783 9.65295 151.357 9.72459 152.222 11.3722C153.068 12.984 151.807 14.8107 149.233 16.3867C148.873 16.6196 148.674 16.727 148.314 16.9598V16.9777ZM148.062 16.5658C148.422 16.333 148.602 16.2256 148.963 15.9927C151.033 14.7212 151.699 13.575 150.889 12.1065C150.061 10.6021 148.458 10.4409 146.928 11.3364C146.28 11.7125 145.974 11.9095 145.343 12.3214C146.424 14.0048 146.964 14.8466 148.062 16.5479V16.5658Z" fill="#AF9A75"/>
<path d="M163.547 18.0702L163.457 17.8195L163.637 17.4255C163.853 17.3359 163.871 16.9777 163.691 16.4405L159.946 6.21442C159.856 5.9637 159.64 5.51597 159.316 5.51597C159.262 5.51597 159.208 5.51597 159.154 5.55179L158.758 5.3727L158.668 5.12197L158.848 4.72798C160.054 4.28025 160.666 4.06534 161.909 3.65344L162.287 3.85044L162.341 4.02953L162.179 4.49516C162.071 4.53098 161.981 4.60261 161.927 4.71007C161.837 4.88916 161.855 5.1757 161.981 5.51597L163.115 8.82914C165.114 8.1486 166.284 7.80832 168.337 7.30687L167.491 3.90416C167.419 3.61762 167.257 3.15198 166.896 3.15198L166.41 2.95499L166.338 2.68635L166.554 2.31026C167.797 1.9879 168.427 1.84463 169.687 1.57599L170.047 1.80881L169.867 2.43562C169.759 2.45353 169.651 2.52517 169.597 2.61471C169.489 2.7759 169.471 3.06244 169.561 3.42062L171.956 14.0407C172.064 14.5421 172.262 14.8466 172.478 14.8466L172.892 15.0794L172.946 15.348L172.712 15.7062C171.704 15.9211 171.2 16.0465 170.191 16.2972L169.813 16.0823L169.741 15.8316L169.957 15.4555C170.191 15.4017 170.245 15.0257 170.101 14.4884L168.553 8.22023C166.518 8.72168 165.402 9.04405 163.403 9.72459L165.492 15.8316C165.654 16.2972 165.87 16.5837 166.068 16.5837L166.536 16.7628L166.428 17.4075C165.438 17.7299 164.952 17.909 163.961 18.2672L163.565 18.0881L163.547 18.0702Z" fill="#AF9A75"/>
<path d="M163.727 17.6941C164.015 17.5866 164.286 17.2106 163.961 16.333C162.467 12.2498 161.711 10.2081 160.216 6.10697C159.892 5.21152 159.37 5.12197 159.028 5.26525C158.992 5.15779 158.974 5.10407 158.938 5.01452C160.144 4.5668 160.756 4.35189 161.981 3.93998C162.017 4.04743 162.035 4.10116 162.071 4.19071C161.711 4.31607 161.369 4.69216 161.675 5.58761C162.161 7.02033 162.413 7.7546 162.917 9.18732C165.204 8.41723 166.374 8.07696 168.697 7.50387C168.337 6.01743 168.139 5.28316 167.779 3.81462C167.545 2.90126 167.058 2.75799 166.68 2.84753C166.644 2.74008 166.644 2.68635 166.608 2.5789C167.851 2.25653 168.481 2.11326 169.723 1.84463C169.741 1.95208 169.759 2.00581 169.777 2.11326C169.399 2.1849 169.021 2.54308 169.237 3.45644C170.191 7.70087 170.678 9.83204 171.632 14.0765C171.848 15.0077 172.262 15.1689 172.568 15.0973C172.586 15.2047 172.604 15.2585 172.622 15.3659C171.596 15.5808 171.092 15.7062 170.083 15.9569C170.047 15.8495 170.047 15.7957 170.011 15.6883C170.318 15.6167 170.606 15.2764 170.372 14.363C169.723 11.7304 169.399 10.423 168.751 7.80832C166.428 8.38141 165.276 8.72168 162.989 9.49177C163.871 12.0528 164.304 13.3243 165.186 15.8853C165.492 16.7807 165.924 16.9061 166.23 16.8166C166.266 16.924 166.284 16.9777 166.32 17.0673C165.33 17.3896 164.826 17.5687 163.853 17.9448C163.817 17.8374 163.799 17.7836 163.763 17.6941H163.727Z" fill="#AF9A75"/>
<path d="M179.735 14.3093V14.0407L179.987 13.7004C180.221 13.6825 180.329 13.3243 180.293 12.7691L179.464 1.91627C179.446 1.5939 179.338 1.05663 178.924 1.05663L178.546 0.787998V0.519363L178.798 0.179092C180.077 0.0716378 180.707 0.0358198 181.985 -0.0358162L182.309 0.250728L182.021 0.841725C181.895 0.841725 181.805 0.895452 181.733 0.967088C181.589 1.11036 181.535 1.3969 181.553 1.75508L182.165 12.6079C182.201 13.1452 182.345 13.4855 182.58 13.4855L182.904 13.772L182.616 14.363C181.589 14.4167 181.067 14.4347 180.041 14.5242L179.717 14.2377L179.735 14.3093Z" fill="#AF9A75"/>
<path d="M180.005 14.0227C180.311 14.0048 180.653 13.7183 180.581 12.7691C180.257 8.43514 180.077 6.26815 179.753 1.91627C179.681 0.967088 179.212 0.75218 178.834 0.787998C178.834 0.680544 178.834 0.626817 178.816 0.519363C180.077 0.411909 180.725 0.376091 181.985 0.304455C181.985 0.411909 181.985 0.465636 181.985 0.57309C181.607 0.57309 181.175 0.859634 181.229 1.80881C181.463 6.1607 181.589 8.32769 181.841 12.6617C181.895 13.6108 182.273 13.8437 182.58 13.8258C182.58 13.9332 182.58 13.9869 182.58 14.0944C181.553 14.1481 181.031 14.166 179.987 14.2556C179.987 14.1481 179.987 14.0944 179.969 13.9869L180.005 14.0227Z" fill="#AF9A75"/>
<path d="M196.966 15.4913C194.157 14.9361 192.771 14.757 189.89 14.5421L189.602 14.2197L189.944 13.6646C190.178 13.6646 190.34 13.3422 190.394 12.8228L191.348 1.95208C191.384 1.5939 191.33 1.32527 191.204 1.182C191.132 1.09245 191.042 1.05663 190.916 1.03872L190.628 0.716361V0.447726L190.97 0.161182C192.249 0.250727 192.879 0.322363 194.157 0.465635L194.427 0.805906L194.049 1.34318C193.599 1.34318 193.473 1.86254 193.455 2.16699L192.213 13.6825C193.023 13.772 193.509 13.8437 194.391 13.969C194.535 13.9869 194.679 14.0048 194.823 14.0048C195.886 14.0048 196.606 13.3601 197.002 12.1065L197.344 11.8916L197.65 11.9453L197.885 12.3035L197.308 15.2764L196.948 15.5092L196.966 15.4913Z" fill="#AF9A75"/>
<path d="M190.97 0.447727C192.249 0.537272 192.879 0.608908 194.139 0.75218C194.139 0.859634 194.121 0.913361 194.103 1.02082C193.725 0.984997 193.257 1.182 193.149 2.11326C192.645 6.84124 192.375 9.20523 191.871 13.9332C192.861 14.0407 193.365 14.0944 194.355 14.2556C195.778 14.4705 196.804 13.7541 197.308 12.1781C197.434 12.196 197.488 12.2139 197.614 12.2319C197.38 13.4138 197.254 14.0048 197.02 15.2047C194.193 14.6496 192.771 14.4705 189.926 14.2556C189.926 14.1481 189.926 14.0944 189.944 13.9869C190.25 14.0048 190.646 13.7899 190.718 12.8587C191.096 8.50678 191.294 6.33979 191.672 1.9879C191.762 1.05663 191.33 0.770089 190.952 0.734271C190.952 0.626817 190.952 0.57309 190.97 0.465636V0.447727Z" fill="#AF9A75"/>
<path d="M206.491 18.1776C205.519 17.8195 205.015 17.6404 204.024 17.318L203.826 16.9419L203.916 16.6912L204.295 16.4942C204.565 16.4942 204.781 16.2256 204.925 15.7599L208.418 5.46225C208.544 5.10407 208.544 4.83543 208.454 4.65634C208.4 4.54889 208.328 4.49516 208.202 4.45934L208.004 4.08325L208.094 3.83253L208.472 3.63553C209.696 4.02953 210.309 4.24443 211.533 4.69216L211.713 5.08616L211.623 5.33688L211.227 5.51597C211.227 5.51597 211.119 5.48016 211.065 5.48016C210.723 5.48016 210.525 5.90997 210.435 6.17861L206.725 16.4046C206.527 16.9419 206.545 17.3001 206.779 17.3896L206.959 17.7836L206.869 18.0344L206.473 18.2135L206.491 18.1776Z" fill="#AF9A75"/>
<path d="M204.223 16.7628C204.511 16.8524 204.943 16.727 205.249 15.8316C206.653 11.7125 207.356 9.65296 208.742 5.53389C209.048 4.63844 208.706 4.24444 208.346 4.13698C208.382 4.02953 208.4 3.9758 208.436 3.88626C209.66 4.28026 210.273 4.49516 211.479 4.94289C211.443 5.05034 211.425 5.10407 211.389 5.19361C211.029 5.06825 210.525 5.13989 210.201 6.03534C208.706 10.1365 207.968 12.1781 206.491 16.2614C206.167 17.1568 206.437 17.515 206.725 17.6225C206.689 17.7299 206.671 17.7836 206.635 17.8732C205.645 17.515 205.159 17.3359 204.151 17.0136C204.187 16.9061 204.205 16.8524 204.241 16.7628H204.223Z" fill="#AF9A75"/>
<path d="M215.116 22.1713C214.378 21.7594 214.018 21.5624 213.262 21.1684L213.135 20.7565L213.262 20.5058L213.676 20.3804C213.568 20.3446 213.856 20.2909 214.18 19.682L219.348 9.97532C219.618 9.45596 219.564 9.1515 219.51 9.09778L219.438 8.7396H219.78L219.564 8.48887L219.978 8.36351C221.454 9.13359 222.174 9.52759 223.597 10.3693C224.911 11.1394 225.902 12.393 226.172 13.6467C226.352 14.4526 226.226 15.2047 225.812 15.8137C225.307 16.5658 224.497 16.9598 223.471 16.9598C222.373 16.9598 221.004 16.5121 219.528 15.6525L218.861 15.2764L215.89 20.5954C215.548 21.2043 215.656 21.4908 215.656 21.4908L215.692 21.8311L215.548 22.0639L215.134 22.1713H215.116ZM220.05 14.6854C221.058 15.2585 221.85 15.545 222.481 15.545C223.111 15.545 223.597 15.2585 223.993 14.6317C224.353 14.0765 224.461 13.5213 224.335 12.9661C224.173 12.3035 223.669 11.6767 222.877 11.2289C222.336 10.9066 222.012 10.7275 221.544 10.4589L219.384 14.3093L220.05 14.6854Z" fill="#AF9A75"/>
<path d="M218.735 14.8645C217.475 17.1031 216.863 18.2135 215.602 20.4521C215.17 21.2401 215.332 21.6341 215.404 21.6699C215.35 21.7594 215.314 21.8132 215.26 21.9027C214.522 21.4908 214.144 21.2938 213.406 20.8998C213.46 20.8103 213.478 20.7565 213.532 20.6491C213.604 20.6849 214.036 20.5954 214.432 19.8253C216.503 15.939 217.529 14.0048 219.6 10.1186C220.014 9.33059 219.78 8.91868 219.69 8.86496C219.744 8.77541 219.762 8.72169 219.816 8.61423C221.274 9.36641 221.994 9.77832 223.417 10.62C225.397 11.7841 226.586 14.0944 225.542 15.6346C224.515 17.1389 222.264 16.8882 219.654 15.3838C219.275 15.1689 219.095 15.0615 218.717 14.8645H218.735ZM218.969 14.4347C219.348 14.6317 219.528 14.7391 219.888 14.954C221.976 16.1539 223.345 16.2076 224.245 14.8107C225.181 13.378 224.551 11.8737 223.039 10.9782C222.391 10.6021 222.066 10.423 221.418 10.0649C220.446 11.8199 219.942 12.6975 218.969 14.4347Z" fill="#AF9A75"/>
</g>
<defs>
<clipPath id="clip0_117_10">
<rect width="374" height="185" fill="white"/>
</clipPath>
</defs>
</svg>
