<svg width="436px"  viewBox="0 0 780 232" fill="none" xmlns="http://www.w3.org/2000/svg">
<g filter="url(#filter0_d_117_196)">
<path d="M58.6953 143.252C52.7949 143.252 47.2285 142.696 41.9961 141.583C36.8193 140.469 31.9487 138.799 27.3843 136.573C22.8755 134.346 18.645 131.563 14.6929 128.223L25.2969 115.198C29.917 119.206 35.0103 122.211 40.5767 124.215C46.1431 126.219 52.1826 127.221 58.6953 127.221C67.4902 127.221 74.3091 125.579 79.1519 122.295C83.9946 119.011 86.416 114.418 86.416 108.518V108.435C86.416 103.814 85.1914 100.28 82.7422 97.8306C80.293 95.3813 77.0645 93.5723 73.0566 92.4033C69.1045 91.1787 64.7627 90.1768 60.0312 89.3975C55.4668 88.6182 50.8467 87.6997 46.1709 86.6421C41.5508 85.5845 37.2925 83.9424 33.396 81.7158C29.4995 79.4336 26.3545 76.1772 23.9609 71.9468C21.623 67.7163 20.4541 62.0664 20.4541 54.9971V54.9136C20.4541 43.6138 24.2114 34.8745 31.7261 28.6958C39.2407 22.4614 49.8447 19.3442 63.5381 19.3442C70.0508 19.3442 76.4243 20.4019 82.6587 22.5171C88.8931 24.5767 94.9604 27.7495 100.861 32.0356L91.1753 45.562C86.5552 42.1108 81.9351 39.5503 77.3149 37.8804C72.7505 36.2104 68.1582 35.3755 63.5381 35.3755C55.2441 35.3755 48.7871 37.0454 44.167 40.3853C39.6025 43.6694 37.3203 48.3452 37.3203 54.4126V54.4961C37.3203 59.0605 38.6562 62.5396 41.3281 64.9331C44 67.3267 47.479 69.1079 51.7651 70.2769C56.1069 71.3901 60.7549 72.4478 65.709 73.4497C70.1621 74.3403 74.6152 75.4258 79.0684 76.7061C83.5215 77.9307 87.5571 79.7397 91.1753 82.1333C94.8491 84.4712 97.7715 87.6997 99.9424 91.8188C102.169 95.938 103.282 101.31 103.282 107.934V108.101C103.282 119.289 99.3857 127.945 91.5928 134.068C83.7998 140.191 72.834 143.252 58.6953 143.252ZM161.396 143.252C149.316 143.252 139.965 139.885 133.341 133.149C126.717 126.414 123.405 116.84 123.405 104.427V94.6577C123.405 81.7437 126.578 71.752 132.923 64.6826C139.325 57.6133 148.314 54.0786 159.893 54.0786C170.803 54.0786 179.236 58.0864 185.192 66.1021C191.204 74.1177 194.209 85.3618 194.209 99.8345V105.512H135.762V91.8188H178.011C177.51 84.8052 175.673 79.3223 172.5 75.3701C169.383 71.418 165.181 69.4419 159.893 69.4419C153.491 69.4419 148.509 71.5571 144.947 75.7876C141.384 80.0181 139.603 86.002 139.603 93.7393V104.761C139.603 111.941 141.496 117.452 145.281 121.293C149.122 125.134 154.493 127.054 161.396 127.054C164.847 127.054 168.27 126.358 171.666 124.967C175.061 123.575 178.095 121.627 180.767 119.122L191.955 130.311C187.669 134.43 182.854 137.63 177.51 139.913C172.167 142.139 166.795 143.252 161.396 143.252ZM267.686 142V55.3311H284.636V142H267.686ZM232.451 55.3311V108.017C232.451 114.084 233.981 118.788 237.043 122.128C240.16 125.412 244.53 127.054 250.152 127.054C255.774 127.054 260.088 125.579 263.094 122.629C266.155 119.623 267.686 115.42 267.686 110.021L268.855 128.14C267.296 132.036 264.569 135.543 260.672 138.66C256.776 141.722 251.683 143.252 245.393 143.252C235.818 143.252 228.415 140.191 223.183 134.068C218.006 127.889 215.417 119.206 215.417 108.017V55.3311H232.451ZM398.357 143.252C389.785 143.252 382.298 141.416 375.897 137.742C369.496 134.012 364.514 128.78 360.951 122.044C357.444 115.309 355.691 107.46 355.691 98.4985V64.0981C355.691 55.0806 357.444 47.2319 360.951 40.5522C364.514 33.8169 369.496 28.6123 375.897 24.9385C382.298 21.209 389.785 19.3442 398.357 19.3442C406.93 19.3442 414.417 21.209 420.818 24.9385C427.219 28.6123 432.173 33.8169 435.68 40.5522C439.243 47.2319 441.024 55.0806 441.024 64.0981V98.4985C441.024 107.46 439.243 115.309 435.68 122.044C432.173 128.78 427.219 134.012 420.818 137.742C414.417 141.416 406.93 143.252 398.357 143.252ZM398.357 126.47C405.983 126.47 412.079 123.965 416.643 118.955C421.263 113.945 423.573 107.321 423.573 99.083V63.5137C423.573 55.2197 421.263 48.5957 416.643 43.6416C412.079 38.6318 405.983 36.127 398.357 36.127C390.787 36.127 384.692 38.6318 380.072 43.6416C375.452 48.5957 373.142 55.2197 373.142 63.5137V99.083C373.142 107.321 375.452 113.945 380.072 118.955C384.692 123.965 390.787 126.47 398.357 126.47ZM515.836 142V87.0596C515.836 81.3818 514.306 76.9844 511.244 73.8672C508.238 70.6943 503.952 69.1079 498.386 69.1079C494.99 69.1079 491.623 69.6367 488.283 70.6943C484.999 71.6963 482.048 73.1714 479.432 75.1196L466.991 66.603C470.275 62.6509 474.589 59.5894 479.933 57.4185C485.333 55.1919 491.316 54.0786 497.885 54.0786C508.739 54.0786 517.145 56.8896 523.101 62.5117C529.057 68.1338 532.035 76.0659 532.035 86.3081V142H515.836ZM494.628 143.252C483.997 143.252 476.009 141.054 470.665 136.656C465.377 132.259 462.733 125.523 462.733 116.45C462.733 107.822 465.154 101.393 469.997 97.1626C474.896 92.8765 482.215 90.7334 491.957 90.7334H516.588L517.757 104.427H492.04C487.643 104.427 484.331 105.429 482.104 107.433C479.877 109.381 478.764 112.387 478.764 116.45C478.764 120.848 480.239 124.104 483.189 126.219C486.14 128.334 490.565 129.392 496.465 129.392C502.922 129.392 507.765 128.696 510.994 127.305C514.222 125.913 515.836 123.742 515.836 120.792L517.59 132.982C516.087 135.32 514.222 137.241 511.996 138.744C509.769 140.247 507.208 141.36 504.314 142.083C501.475 142.863 498.247 143.252 494.628 143.252ZM500.056 38.6318L489.368 30.0317L513.248 0.390625L525.522 10.5771L500.056 38.6318ZM588.562 143.252C580.88 143.252 573.894 142.139 567.604 139.913C561.37 137.63 555.775 134.235 550.821 129.726L560.924 117.285C565.656 120.848 570.304 123.52 574.868 125.301C579.488 127.082 584.053 127.973 588.562 127.973C595.297 127.973 600.334 126.943 603.674 124.883C607.07 122.768 608.768 119.623 608.768 115.448C608.768 112.22 607.626 109.938 605.344 108.602C603.118 107.266 600.167 106.403 596.494 106.013C592.875 105.568 588.979 105.206 584.804 104.928C581.297 104.649 577.818 104.232 574.367 103.675C570.916 103.063 567.771 102.005 564.932 100.502C562.093 98.9438 559.811 96.6616 558.085 93.6558C556.416 90.6499 555.581 86.6143 555.581 81.5488C555.581 72.3643 558.392 65.4897 564.014 60.9253C569.636 56.3608 578.013 54.0786 589.146 54.0786C595.937 54.0786 602.255 54.9971 608.1 56.834C613.944 58.6709 619.427 61.4819 624.548 65.2671L614.278 77.708C609.937 74.9248 605.65 72.8374 601.42 71.4458C597.245 70.0542 593.154 69.3584 589.146 69.3584C583.357 69.3584 579.015 70.3604 576.121 72.3643C573.226 74.3125 571.779 77.2627 571.779 81.2148C571.779 83.8311 572.781 85.7236 574.785 86.8926C576.789 88.0059 579.433 88.7295 582.717 89.0635C586.001 89.3975 589.536 89.7036 593.321 89.9819C596.939 90.2046 600.585 90.6221 604.259 91.2344C607.988 91.791 611.412 92.9043 614.529 94.5742C617.646 96.2441 620.151 98.7212 622.043 102.005C623.936 105.29 624.882 109.771 624.882 115.448C624.882 124.744 621.849 131.702 615.781 136.322C609.77 140.942 600.696 143.252 588.562 143.252ZM646.591 37.6299V20.5967H663.625V37.6299H646.591ZM646.591 142V55.3311H663.625V142H646.591ZM720.151 143.252C712.47 143.252 705.484 142.139 699.194 139.913C692.959 137.63 687.365 134.235 682.411 129.726L692.514 117.285C697.246 120.848 701.894 123.52 706.458 125.301C711.078 127.082 715.643 127.973 720.151 127.973C726.887 127.973 731.924 126.943 735.264 124.883C738.66 122.768 740.357 119.623 740.357 115.448C740.357 112.22 739.216 109.938 736.934 108.602C734.708 107.266 731.757 106.403 728.083 106.013C724.465 105.568 720.569 105.206 716.394 104.928C712.887 104.649 709.408 104.232 705.957 103.675C702.506 103.063 699.361 102.005 696.522 100.502C693.683 98.9438 691.401 96.6616 689.675 93.6558C688.005 90.6499 687.17 86.6143 687.17 81.5488C687.17 72.3643 689.981 65.4897 695.604 60.9253C701.226 56.3608 709.603 54.0786 720.736 54.0786C727.527 54.0786 733.845 54.9971 739.689 56.834C745.534 58.6709 751.017 61.4819 756.138 65.2671L745.868 77.708C741.526 74.9248 737.24 72.8374 733.01 71.4458C728.835 70.0542 724.744 69.3584 720.736 69.3584C714.947 69.3584 710.605 70.3604 707.71 72.3643C704.816 74.3125 703.369 77.2627 703.369 81.2148C703.369 83.8311 704.371 85.7236 706.375 86.8926C708.378 88.0059 711.022 88.7295 714.307 89.0635C717.591 89.3975 721.125 89.7036 724.911 89.9819C728.529 90.2046 732.175 90.6221 735.849 91.2344C739.578 91.791 743.001 92.9043 746.119 94.5742C749.236 96.2441 751.741 98.7212 753.633 102.005C755.526 105.29 756.472 109.771 756.472 115.448C756.472 124.744 753.438 131.702 747.371 136.322C741.359 140.942 732.286 143.252 720.151 143.252Z" fill="#F8F5EF"/>
<path d="M14.5883 219.338C9.68227 219.561 4.77627 217.777 5.44527 210.418C6.11427 205.066 10.5743 197.261 21.5013 189.233C28.8603 183.881 41.5713 178.529 48.9303 179.867C53.3903 180.536 54.9513 184.55 53.6133 188.341C58.9653 182.766 62.7563 179.867 66.3243 179.867C71.0073 179.644 71.4533 180.759 69.2233 183.435C66.3243 186.78 61.4183 192.355 56.7353 198.153C53.8363 201.721 50.9373 205.512 48.9303 209.08C47.3693 211.756 47.3693 213.54 48.2613 214.209C49.3763 215.101 51.6063 214.209 53.3903 213.317C55.6203 212.202 59.8573 209.303 63.4253 206.404C68.1083 202.613 71.6763 199.491 74.1293 197.261C75.4673 196.146 76.5823 195.031 77.2513 195.7C77.9203 196.369 76.8053 197.484 74.3523 199.714C71.4533 202.39 66.1013 207.073 61.8643 210.418C57.4043 213.986 50.0453 219.338 42.6863 219.338C38.4493 219.338 36.4423 217.331 36.2193 214.655C35.9963 212.202 37.3343 209.08 39.3413 206.627L39.1183 206.404C33.3203 211.533 23.0623 218.892 14.5883 219.338ZM48.0383 182.097C43.5783 182.097 35.5503 188.118 27.5223 196.146C18.3793 205.066 14.5883 210.864 15.0343 213.763C15.2573 215.324 16.3723 215.993 17.9333 215.993C22.1703 215.993 30.6443 211.087 36.6653 205.512C43.8013 199.268 51.8293 189.679 52.0523 186.111C52.2753 183.212 50.4913 182.097 48.0383 182.097ZM83.0684 220.007H82.8454C74.5944 220.007 70.5804 216.662 71.0264 210.641C71.4724 206.181 73.9254 201.498 77.4934 197.261L77.2704 197.038C76.6014 197.707 74.8174 199.268 73.4794 200.383C72.1414 201.498 71.0264 202.167 70.5804 201.721C70.1344 201.052 71.0264 200.16 71.9184 199.268C74.8174 196.592 76.8244 195.031 80.1694 192.578C82.6224 190.794 87.0824 187.895 90.8734 185.888C98.4554 181.874 105.591 178.975 111.389 179.867C116.518 180.759 118.302 184.104 117.41 188.341C116.518 192.578 112.727 195.923 109.828 195.923C106.037 195.923 106.037 192.801 108.044 189.456C110.497 185.219 111.389 182.543 108.713 182.097C106.26 181.651 101.131 184.996 94.8874 191.463C88.8664 197.484 83.0684 205.958 82.3994 211.31C81.9534 214.655 83.9604 216.439 87.5284 216.439C90.4274 216.439 98.2324 215.101 108.044 208.411C112.281 205.512 117.856 200.829 121.424 197.707C122.762 196.592 123.431 196.369 123.877 196.815C124.323 197.484 123.431 198.376 122.093 199.714C119.194 202.39 112.95 207.742 108.936 210.418C101.131 215.77 90.6504 220.007 83.0684 220.007ZM170.901 150.208H171.124C174.023 150.208 175.361 152.661 172.685 156.006C170.009 159.574 164.434 162.027 162.204 162.027C161.089 160.689 160.866 157.344 161.981 154.445C163.319 151.1 166.664 150.208 170.901 150.208ZM139.904 186.111C138.343 186.78 133.66 190.125 130.315 192.801C126.97 195.477 124.517 197.484 122.287 199.491C120.503 201.052 119.611 201.721 118.942 201.275C118.496 200.829 118.942 199.937 121.395 197.707C123.848 195.477 131.876 188.787 137.228 185.219C143.026 181.205 145.925 180.313 150.162 180.313C154.845 180.313 155.291 180.982 152.615 183.881C148.601 188.341 145.033 192.578 140.573 198.153C136.782 202.836 134.106 206.85 132.768 209.08C131.43 211.533 131.207 213.094 132.099 213.986C133.214 214.878 135.221 214.432 137.451 213.317C139.681 212.202 143.472 209.749 147.263 206.627C151.946 202.836 153.953 201.052 157.521 197.707C159.528 195.923 160.42 195.031 161.089 195.7C161.758 196.369 159.305 198.599 158.636 199.268C155.96 201.944 150.385 206.85 145.925 210.418C141.465 213.986 133.883 219.561 126.524 219.561C121.841 219.561 119.834 217.331 119.834 213.763C119.834 210.864 121.395 207.965 123.179 205.289C127.639 198.376 136.336 189.233 139.904 186.111ZM169.364 187.226C175.385 182.543 179.845 179.867 184.528 179.867C188.765 179.867 190.103 182.32 190.103 184.773C190.103 187.449 188.319 190.348 185.42 194.362C182.075 198.822 177.392 204.843 174.939 208.411L175.162 208.634C180.514 204.174 187.873 197.707 195.678 191.909C203.483 186.111 213.295 179.867 219.762 179.867C225.337 179.867 227.567 182.543 226.898 186.334C226.229 189.902 221.992 194.585 218.201 199.045C214.41 203.505 212.18 206.181 210.173 208.857L210.396 209.08C215.525 204.62 223.553 197.707 231.358 191.909C239.163 186.111 248.975 179.867 255.665 179.867C260.571 179.867 263.024 182.32 262.578 185.888C261.909 189.902 257.226 195.031 253.658 199.491C250.09 203.728 247.637 207.296 246.299 209.303C244.515 211.979 244.515 213.54 245.407 214.209C246.522 215.101 248.975 214.209 250.759 213.317C253.435 211.979 256.557 210.195 261.463 206.404C265.254 203.505 269.714 199.491 272.167 197.261C273.505 196.146 274.397 195.254 275.066 195.923C275.512 196.369 274.843 197.261 273.282 198.822C271.275 200.829 264.585 206.85 259.902 210.418C255.442 213.763 246.745 219.338 239.832 219.338C235.372 219.338 232.919 217.331 233.142 213.54C233.365 208.411 238.717 202.613 242.508 197.93C245.853 193.916 248.975 190.348 251.874 187.003C252.766 185.888 253.212 184.55 252.097 183.881C250.982 183.212 248.529 184.104 246.299 185.219C242.285 187.226 236.041 191.017 228.905 196.592C219.093 204.174 213.741 209.303 203.929 216.885C201.922 218.446 200.361 218.892 198.131 218.892C194.563 218.892 193.894 218.223 195.232 215.324C197.462 210.641 203.037 202.836 207.051 197.93C210.842 193.247 214.856 189.233 216.417 187.003C217.309 185.888 217.532 184.327 216.194 183.881C214.856 183.435 213.072 184.104 210.619 185.219C206.605 187.226 199.915 191.24 193.225 196.592C183.413 204.174 178.061 209.303 168.249 216.885C166.242 218.446 164.904 218.892 162.451 218.892C159.329 218.892 157.768 218.446 159.552 215.324C161.113 212.425 166.019 205.066 169.364 200.383C172.709 195.7 175.831 191.909 178.284 188.787C179.845 186.78 180.291 185.665 179.845 184.996C179.176 184.104 177.838 184.55 176.5 185.219C173.824 186.557 170.479 189.01 167.803 191.24C164.904 193.693 161.336 196.815 158.214 199.714C155.984 201.721 155.092 202.39 154.423 201.721C153.977 201.052 155.092 199.937 157.768 197.484C160.444 195.031 165.35 190.348 169.364 187.226ZM310.014 182.097C305.554 182.097 297.526 188.118 289.498 196.146C280.355 205.066 276.564 210.864 277.01 213.763C277.233 215.324 278.348 215.993 279.909 215.993C284.146 215.993 292.62 211.087 298.641 205.512C305.777 199.268 313.805 189.679 314.028 186.111C314.251 183.212 312.467 182.097 310.014 182.097ZM278.348 192.355C280.578 190.794 284.369 188.341 288.606 186.111C296.634 181.874 305.108 178.975 310.906 179.867C315.366 180.759 316.927 184.55 315.589 188.341C320.941 182.766 324.732 179.867 328.3 179.867C332.983 179.644 333.429 180.759 331.199 183.435C328.3 186.78 323.394 192.355 318.711 198.153C314.92 202.613 312.69 205.735 310.906 209.08C309.568 211.533 309.122 213.54 309.568 215.101C310.237 217.108 312.021 217.777 313.582 217.777C317.373 217.777 320.718 215.77 324.509 213.986C331.645 210.418 338.112 207.073 343.687 207.296C348.37 207.519 351.269 210.641 351.492 214.878C351.715 219.561 348.147 221.791 347.255 222.46C346.809 222.683 346.363 223.129 346.14 222.906C345.917 222.683 345.917 222.46 346.363 222.014C346.809 221.345 347.478 220.23 347.478 218.223C347.255 212.871 343.687 211.087 339.673 211.087C335.659 211.087 331.645 212.425 323.394 216.439C319.826 218.223 314.697 220.676 309.345 220.899C305.331 221.122 301.094 219.338 299.979 215.101C299.31 212.425 299.979 208.634 301.317 206.627L301.094 206.404C295.296 211.533 285.038 218.892 276.564 219.338C271.658 219.561 266.529 217.554 267.421 210.418C267.867 207.073 269.651 203.505 273.665 198.822L273.442 198.599C272.773 199.268 271.881 200.16 270.543 201.275C269.651 201.944 268.982 202.39 268.536 201.944C268.09 201.275 269.205 199.937 271.658 197.707C272.327 197.038 276.118 193.916 278.348 192.355ZM397.051 215.993H397.274C401.288 215.993 409.762 211.087 415.783 205.512C422.919 199.268 430.947 189.679 431.17 186.111C431.393 183.212 429.609 182.097 427.156 182.097C422.696 182.097 414.668 188.118 406.64 196.146C398.166 204.397 393.706 210.418 394.152 213.763C394.375 215.324 395.49 215.993 397.051 215.993ZM428.048 179.867C432.285 180.759 433.846 183.658 432.954 187.672C439.867 177.637 450.348 164.703 461.721 151.546C469.526 142.403 478.669 132.814 488.258 123.894C490.711 121.441 493.387 120.103 496.509 120.103C498.739 120.103 499.631 120.772 499.854 121.664C493.833 127.462 482.683 139.727 474.432 149.316C467.073 157.79 459.491 166.933 446.557 183.435C439.644 192.355 430.055 205.512 428.048 209.08C426.487 211.756 426.487 213.54 427.379 214.209C428.494 215.101 430.724 214.209 432.508 213.317C434.738 212.202 438.975 209.303 442.543 206.404C447.226 202.613 450.794 199.491 453.247 197.261C454.585 196.146 455.7 195.031 456.369 195.7C457.038 196.369 455.923 197.484 453.47 199.714C450.571 202.39 445.219 207.073 440.982 210.418C436.522 213.986 429.163 219.338 421.804 219.338C417.567 219.338 415.56 217.331 415.337 214.655C415.114 212.202 416.452 209.08 418.459 206.627L418.236 206.404C412.215 211.756 402.18 218.892 393.706 219.338C388.8 219.561 383.894 217.777 384.563 210.418C385.232 205.066 389.692 197.261 400.619 189.233C407.978 183.881 420.689 178.529 428.048 179.867ZM466.449 216.662C469.348 216.662 476.93 215.101 486.742 208.411C490.979 205.512 496.108 201.498 500.345 197.707C501.683 196.592 502.352 196.369 502.798 196.815C503.244 197.484 502.352 198.599 501.014 199.714C498.115 202.39 490.979 208.188 486.965 210.864C477.599 217.108 469.348 220.007 461.766 220.007C453.515 220.007 449.724 216.885 449.947 211.087C450.17 206.627 452.177 202.613 456.637 197.261L456.414 197.038C455.745 197.707 453.292 199.937 451.954 201.052C450.839 201.944 450.17 202.167 449.724 201.721C449.278 201.052 450.17 200.16 451.062 199.268C453.961 196.592 455.968 195.031 459.313 192.578C461.766 190.794 466.003 188.118 470.24 185.888C476.707 182.543 483.397 179.644 489.418 179.644H489.641C494.547 179.644 496.331 182.766 496.108 185.665C495.662 191.463 488.526 195.923 481.836 199.268C475.369 202.39 467.787 205.066 462.658 206.404C461.766 208.188 461.32 210.195 461.32 211.533C461.32 214.878 463.104 216.662 466.449 216.662ZM463.996 203.951C468.456 202.836 474.477 200.383 479.16 197.261C484.735 193.47 488.08 188.787 488.303 185.665C488.526 183.658 487.634 182.543 485.627 182.543C483.62 182.543 480.275 184.773 475.815 189.01C472.247 192.355 466.672 199.491 463.996 203.951ZM560.156 210.418C555.696 213.763 548.114 219.561 539.64 219.561H539.417C534.511 219.561 532.727 216.662 532.95 213.317C533.396 207.742 538.971 199.045 544.769 191.24C546.776 188.564 550.121 184.327 551.236 182.989C548.337 182.989 543.654 183.212 543.208 183.212C541.87 183.212 540.532 183.212 540.755 182.097C540.978 181.205 543.431 180.982 546.776 180.759C546.999 180.759 551.682 180.536 553.02 180.536C559.933 172.062 569.076 162.25 573.982 157.344C577.996 153.33 583.348 148.201 588.031 148.201C590.484 148.201 591.376 148.87 591.376 149.539C588.7 151.992 582.902 158.236 577.773 164.034C572.644 169.832 568.63 174.738 564.17 180.536C569.076 180.313 573.313 180.313 576.881 180.313C579.557 180.313 580.226 180.759 580.003 181.651C579.557 182.766 577.773 182.766 575.989 182.766C571.083 182.766 567.515 182.766 562.386 182.989C557.926 188.341 550.344 199.714 546.33 207.519C544.992 209.972 544.323 213.094 546.107 213.986C547.445 214.655 549.898 213.986 551.682 213.094C554.358 211.756 558.149 209.303 561.717 206.404C565.731 203.282 569.745 199.714 572.198 197.484C573.313 196.592 574.651 195.254 575.32 195.923C575.766 196.369 575.32 197.038 573.759 198.599C571.306 201.052 564.839 206.85 560.156 210.418ZM590.477 186.111C588.916 186.78 584.233 190.125 580.888 192.801C577.543 195.477 575.09 197.484 572.86 199.491C571.076 201.052 570.184 201.721 569.515 201.275C569.069 200.829 569.515 199.937 571.968 197.707C574.421 195.477 582.449 188.787 587.801 185.219C593.599 181.205 596.498 180.313 600.735 180.313C605.418 180.313 605.864 180.982 603.188 183.881C600.289 187.003 596.052 192.132 591.592 197.707C588.024 202.39 584.456 207.296 583.341 209.749C582.449 211.533 582.449 213.094 583.118 213.763C584.01 214.655 586.017 214.432 588.247 213.317C593.153 210.641 598.059 207.073 604.972 201.721C615.676 193.47 621.92 187.895 629.056 182.32C630.84 180.982 632.178 179.867 635.523 179.867C639.314 179.867 641.544 180.313 638.868 183.435C634.854 188.341 631.509 191.909 627.049 197.707C623.258 202.39 620.359 206.404 618.798 209.08C617.46 211.31 617.237 213.317 618.129 213.986C619.244 214.878 621.028 214.432 623.258 213.317C625.488 212.202 629.725 209.526 633.293 206.627C637.753 203.059 641.544 199.714 643.997 197.484C645.335 196.146 646.673 195.254 647.119 195.923C647.788 196.369 646.004 198.153 645.335 198.822C642.659 201.498 637.084 206.181 631.732 210.418C627.718 213.54 619.913 219.338 612.554 219.338C608.094 219.338 605.641 217.331 605.641 213.986C605.641 210.864 607.202 207.742 609.209 204.843C611.662 201.275 615.899 197.038 619.69 193.247L619.467 193.024C615.007 196.592 607.425 202.613 601.627 207.073C592.484 213.986 584.456 219.338 577.766 219.338C573.083 219.338 570.184 217.108 570.407 213.094C570.63 209.972 572.637 206.627 574.644 203.951C579.104 197.93 583.564 192.578 590.477 186.111ZM682.189 182.097C677.729 182.097 669.701 188.118 661.673 196.146C652.53 205.066 648.739 210.864 649.185 213.763C649.408 215.324 650.523 215.993 652.084 215.993C656.321 215.993 664.795 211.087 670.816 205.512C677.952 199.268 685.98 189.679 686.203 186.111C686.426 183.212 684.642 182.097 682.189 182.097ZM660.781 186.111C668.586 182.097 676.837 178.975 683.081 179.867C687.318 180.536 688.879 184.104 687.987 187.449H688.21C695.123 177.414 705.381 164.703 716.754 151.546C724.559 142.403 733.702 132.814 743.291 123.894C745.744 121.441 748.42 120.103 751.542 120.103C753.772 120.103 754.664 120.772 754.887 121.664C748.866 127.462 737.716 139.727 729.465 149.316C722.106 157.79 714.524 166.933 701.59 183.435C694.677 192.355 685.088 205.512 683.081 209.08C681.52 211.756 681.52 213.54 682.412 214.209C683.527 215.101 685.757 214.209 687.541 213.317C689.771 212.202 694.008 209.303 697.576 206.404C702.259 202.613 705.827 199.491 708.28 197.261C709.618 196.146 710.733 195.031 711.402 195.7C712.071 196.369 710.956 197.484 708.503 199.714C705.604 202.39 700.252 207.073 696.015 210.418C691.555 213.986 684.196 219.338 676.837 219.338C672.6 219.338 670.593 217.331 670.37 214.655C670.147 212.202 671.485 209.08 673.492 206.627L673.269 206.404C667.471 211.533 657.213 218.892 648.739 219.338C643.833 219.561 638.704 217.554 639.596 210.418C640.042 207.073 641.826 203.505 645.84 198.822L645.617 198.599C644.948 199.268 644.056 200.16 642.718 201.275C641.826 201.944 641.157 202.39 640.711 201.944C640.265 201.275 641.826 199.491 644.279 197.261C644.948 196.592 648.293 193.916 650.523 192.355C652.753 190.794 656.321 188.341 660.781 186.111ZM718.786 217.777H719.009C723.692 217.777 732.166 211.756 739.302 204.843C744.431 199.937 747.553 195.031 749.337 191.909C750.452 190.125 751.567 186.557 751.344 184.773C751.121 181.428 747.776 180.759 744.654 182.097C739.525 184.55 734.173 189.01 728.598 194.362C721.908 200.829 716.333 209.526 715.664 213.986C715.441 216.216 716.333 217.777 718.786 217.777ZM724.807 186.111C731.72 182.543 738.633 180.536 743.762 179.867C745.1 179.644 749.114 179.198 752.236 180.536C753.351 180.982 754.689 181.874 755.358 182.32C758.703 184.327 761.156 185.219 765.393 184.996C768.738 184.773 771.191 183.435 773.644 181.651C774.536 180.982 775.205 180.536 775.428 180.982C775.874 181.651 775.205 182.32 774.313 182.989C772.083 184.773 768.961 186.557 765.17 186.78C760.933 187.003 758.257 186.111 756.473 185.219C756.919 186.334 757.142 187.895 756.919 189.456C756.25 194.808 751.344 202.167 744.654 207.965C737.295 214.432 726.145 220.007 717.002 220.007H716.779C710.089 220.007 705.629 216.439 706.075 210.195C706.298 205.735 708.974 200.383 713.211 195.923L712.988 195.7C711.427 197.038 710.535 197.93 708.974 199.268C707.413 200.606 706.521 201.052 706.075 200.606C705.629 199.937 706.744 198.822 707.636 197.93C709.197 196.369 712.319 193.916 714.549 192.355C717.448 190.348 720.124 188.564 724.807 186.111Z" fill="white"/>
</g>
<defs>
<filter id="filter0_d_117_196" x="0.776367" y="0.390625" width="779.097" height="230.738" filterUnits="userSpaceOnUse" color-interpolation-filters="sRGB">
<feFlood flood-opacity="0" result="BackgroundImageFix"/>
<feColorMatrix in="SourceAlpha" type="matrix" values="0 0 0 0 0 0 0 0 0 0 0 0 0 0 0 0 0 0 127 0" result="hardAlpha"/>
<feOffset dy="4"/>
<feGaussianBlur stdDeviation="2"/>
<feComposite in2="hardAlpha" operator="out"/>
<feColorMatrix type="matrix" values="0 0 0 0 0 0 0 0 0 0 0 0 0 0 0 0 0 0 0.25 0"/>
<feBlend mode="normal" in2="BackgroundImageFix" result="effect1_dropShadow_117_196"/>
<feBlend mode="normal" in="SourceGraphic" in2="effect1_dropShadow_117_196" result="shape"/>
</filter>
</defs>
</svg>
